<svg width="40" height="41" viewBox="0 0 40 41" fill="none" xmlns="http://www.w3.org/2000/svg">
<g clip-path="url(#clip0_262_1560)">
<path d="M0.732374 18.7854L10.7324 8.7854C11.7089 7.80884 13.291 7.80884 14.2675 8.7854C15.2441 9.76196 15.2441 11.344 14.2675 12.3206L8.53901 18.051H37.5C38.882 18.051 40 19.169 40 20.551C40 21.9331 38.882 23.051 37.5 23.051H8.53901L14.2718 28.7838C15.2484 29.7604 15.2484 31.3424 14.2718 32.319C13.296 33.2948 11.714 33.2963 10.7367 32.319L0.736671 22.319C-0.244189 21.3401 -0.244189 19.762 0.732374 18.7854Z" fill="white"/>
</g>
<defs>
<clipPath id="clip0_262_1560">
<rect width="40" height="40" fill="white" transform="translate(0 0.551025)"/>
</clipPath>
</defs>
</svg>
