<svg width="40" height="41" viewBox="0 0 40 41" fill="none" xmlns="http://www.w3.org/2000/svg">
<g clip-path="url(#clip0_262_1563)">
<path d="M39.2676 22.3166L29.2676 32.3166C28.2911 33.2932 26.709 33.2932 25.7325 32.3166C24.7559 31.3401 24.7559 29.7581 25.7325 28.7815L31.461 23.051L2.50004 23.051C1.11801 23.051 4.29335e-05 21.9331 4.30543e-05 20.551C4.31751e-05 19.169 1.11801 18.051 2.50004 18.051L31.461 18.051L25.7282 12.3182C24.7516 11.3416 24.7516 9.75961 25.7282 8.78305C26.704 7.80727 28.286 7.80571 29.2633 8.78305L39.2633 18.7831C40.2442 19.762 40.2442 21.3401 39.2676 22.3166Z" fill="white"/>
</g>
<defs>
<clipPath id="clip0_262_1563">
<rect width="40" height="40" fill="white" transform="translate(40 40.551) rotate(-180)"/>
</clipPath>
</defs>
</svg>
