<svg width="13" height="15" viewBox="0 0 13 15" fill="none" xmlns="http://www.w3.org/2000/svg">
<path d="M12.6181 11.8231C13.1259 12.3358 13.1259 13.1664 12.6181 13.679C12.3663 13.9354 12.0331 14.0625 11.7 14.0625C11.3669 14.0625 11.0346 13.9344 10.7811 13.678L6.5 9.35805L2.21934 13.677C1.96544 13.9354 1.63272 14.0625 1.3 14.0625C0.967281 14.0625 0.634969 13.9354 0.380859 13.677C-0.126953 13.1643 -0.126953 12.3337 0.380859 11.821L4.66273 7.498L0.380859 3.177C-0.126953 2.66431 -0.126953 1.83374 0.380859 1.32104C0.888672 0.80835 1.71133 0.80835 2.21914 1.32104L6.5 5.64614L10.7819 1.3231C11.2897 0.810401 12.1123 0.810401 12.6202 1.3231C13.128 1.83579 13.128 2.66636 12.6202 3.17905L8.33828 7.5021L12.6181 11.8231Z" fill="#00EE16"/>
</svg>
