<svg width="252" height="46" viewBox="0 0 252 46" fill="none" xmlns="http://www.w3.org/2000/svg">
<path fill-rule="evenodd" clip-rule="evenodd" d="M20.6731 0C32.1228 0 41.3462 2.71772 41.3462 6.14004C41.3462 8.15317 38.2718 9.86433 33.395 10.9716C33.289 10.9716 34.2432 7.64989 34.3492 7.44858C34.3492 7.34792 37.6357 6.64333 37.3176 6.34136C32.971 3.62363 10.1775 3.01969 4.13462 6.54267C3.60454 6.84464 7.10307 7.54923 7.10307 7.64989C7.20909 7.8512 8.16323 11.0722 8.05722 11.0722C3.07446 9.86433 0 8.15317 0 6.14004C0 2.71772 9.22339 0 20.6731 0ZM20.6731 11.4748C11.4497 11.4748 3.92259 13.5886 3.92259 16.3063C3.92259 17.8162 6.36096 19.2254 10.3896 20.1313C10.4956 20.1313 9.75347 17.5142 9.75347 17.5142C9.64746 17.3129 6.89104 16.9103 7.3151 16.709C12.1918 13.9912 30.6386 14.3939 34.1371 16.709C34.4552 16.9103 31.6988 17.4136 31.6988 17.5142C31.5928 17.8162 30.9567 20.2319 30.9567 20.2319C34.8793 19.326 37.4236 18.0175 37.4236 16.407C37.4236 13.5886 29.8965 11.4748 20.6731 11.4748ZM20.6731 21.0372C13.464 21.0372 7.73917 22.9497 7.73917 25.2648C7.73917 26.674 9.64746 27.8818 12.7219 28.6871C12.8279 28.6871 12.0858 26.372 12.0858 26.2713C11.7678 26.07 9.9655 25.7681 10.2836 25.5667C14.1001 23.151 28.4123 23.5536 31.1687 25.5667C31.3807 25.7681 29.2604 26.1707 29.2604 26.2713C29.1544 26.5733 28.6243 28.6871 28.6243 28.6871C31.6988 27.8818 33.7131 26.674 33.7131 25.2648C33.7131 22.9497 27.8822 21.0372 20.6731 21.0372ZM20.6731 30.2976C17.9167 30.2976 15.7964 32.4114 15.7964 35.0284C15.7964 37.6455 18.0227 39.7593 20.6731 39.7593C23.3235 39.7593 25.5499 37.6455 25.5499 35.0284C25.6559 32.4114 23.4295 30.2976 20.6731 30.2976Z" fill="url(#paint0_linear_262_2561)"/>
<path d="M58.9947 26.6221H51.9457V30.207H57.2686V33.1763H51.9457V40.9615H48.6143V23.6529H58.9947V26.6221ZM71.596 40.7564C70.6947 41.0541 69.7452 41.203 68.7474 41.203C67.7496 41.203 66.8001 41.0541 65.8988 40.7564C64.9976 40.4506 64.217 40.008 63.5572 39.4286C62.0766 38.109 61.3363 36.1898 61.3363 33.6711V23.6529H64.6677V33.9125C64.6677 35.3529 65.0459 36.4272 65.8023 37.1353C66.5667 37.8756 67.5484 38.2457 68.7474 38.2457C69.9464 38.2457 70.9281 37.8756 71.6925 37.1353C72.4489 36.4272 72.8271 35.3529 72.8271 33.9125V23.6529H76.1585V33.6711C76.1585 36.1898 75.4182 38.109 73.9376 39.4286C73.2778 40.008 72.4972 40.4506 71.596 40.7564ZM78.6329 23.6529H91.1135V26.6221H86.551V40.9615H83.2075V26.6221H78.6329V23.6529ZM103.848 40.7564C102.946 41.0541 101.997 41.203 100.999 41.203C100.001 41.203 99.0517 41.0541 98.1504 40.7564C97.2492 40.4506 96.4687 40.008 95.8088 39.4286C94.3282 38.109 93.5879 36.1898 93.5879 33.6711V23.6529H96.9193V33.9125C96.9193 35.3529 97.2975 36.4272 98.0539 37.1353C98.8183 37.8756 99.8 38.2457 100.999 38.2457C102.198 38.2457 103.18 37.8756 103.944 37.1353C104.701 36.4272 105.079 35.3529 105.079 33.9125V23.6529H108.41V33.6711C108.41 36.1898 107.67 38.109 106.189 39.4286C105.529 40.008 104.749 40.4506 103.848 40.7564ZM116.799 33.297H115.58V40.9615H112.248V23.6529H118.549C120.126 23.6529 121.386 24.0834 122.327 24.9444C122.81 25.403 123.184 25.9382 123.45 26.5497C123.723 27.1532 123.86 27.797 123.86 28.4809C123.86 29.1649 123.723 29.8127 123.45 30.4242C123.184 31.0278 122.81 31.5589 122.327 32.0175C121.836 32.4842 121.261 32.8222 120.601 33.0314L127.083 40.9615H122.955L116.799 33.297ZM115.58 30.3277H118.356C119.153 30.3277 119.712 30.1547 120.034 29.8087C120.364 29.4546 120.529 29.0201 120.529 28.5051C120.529 27.9659 120.364 27.5194 120.034 27.1653C119.696 26.8032 119.137 26.6221 118.356 26.6221H115.58V30.3277ZM139.189 26.6221H132.14V30.207H137.463V33.1763H132.14V37.9923H139.431V40.9615H128.809V23.6529H139.189V26.6221ZM147.192 23.6529H159.672V26.6221H155.11V40.9615H151.766V26.6221H147.192V23.6529ZM166.818 33.297H165.599V40.9615H162.267V23.6529H168.568C170.145 23.6529 171.405 24.0834 172.346 24.9444C172.829 25.403 173.203 25.9382 173.469 26.5497C173.742 27.1532 173.879 27.797 173.879 28.4809C173.879 29.1649 173.742 29.8127 173.469 30.4242C173.203 31.0278 172.829 31.5589 172.346 32.0175C171.855 32.4842 171.28 32.8222 170.62 33.0314L177.102 40.9615H172.974L166.818 33.297ZM165.599 30.3277H168.375C169.172 30.3277 169.731 30.1547 170.053 29.8087C170.383 29.4546 170.548 29.0201 170.548 28.5051C170.548 27.9659 170.383 27.5194 170.053 27.1653C169.715 26.8032 169.155 26.6221 168.375 26.6221H165.599V30.3277ZM181.447 40.9615H177.959L185.37 23.6529H187.724L195.135 40.9615H191.658L190.017 37.1353H183.076L181.447 40.9615ZM186.541 29.0482L184.332 34.166H188.737L186.541 29.0482ZM200.892 40.9615L193.891 23.6529H197.331L202.051 35.4696L206.807 23.6529H210.234L203.246 40.9615H200.892ZM222.836 26.6221H215.787V30.207H221.11V33.1763H215.787V37.9923H223.077V40.9615H212.455V23.6529H222.836V26.6221ZM226.046 40.9615V23.6529H229.378V37.9923H236.668V40.9615H226.046ZM238.406 38.6079L240.591 36.3387C241.106 36.91 241.722 37.3727 242.438 37.7267C243.162 38.0727 243.906 38.2457 244.671 38.2457C245.411 38.2457 246.015 38.0406 246.481 37.6302C246.956 37.2117 247.193 36.6887 247.193 36.061C247.193 35.6426 247.081 35.2725 246.856 34.9506C246.63 34.6287 246.308 34.3551 245.89 34.1298C245.479 33.9045 245.057 33.7073 244.623 33.5384C244.188 33.3613 243.681 33.1521 243.102 32.9107C242.53 32.6693 242.048 32.436 241.653 32.2106C240.02 31.2531 239.203 29.9414 239.203 28.2758C239.203 27.5274 239.364 26.8434 239.686 26.2238C240.016 25.5962 240.446 25.0812 240.977 24.6788C241.516 24.2765 242.124 23.9667 242.8 23.7494C243.484 23.5241 244.188 23.4115 244.912 23.4115C246.795 23.4115 248.469 23.9546 249.933 25.0409L248.195 27.5153C247.841 27.1854 247.391 26.9158 246.843 26.7066C246.304 26.4894 245.761 26.3807 245.214 26.3807C244.884 26.3807 244.566 26.4169 244.26 26.4894C243.955 26.5618 243.669 26.6704 243.403 26.8153C243.146 26.9521 242.937 27.1452 242.776 27.3946C242.615 27.6441 242.534 27.9297 242.534 28.2516C242.534 28.5815 242.647 28.8833 242.872 29.1569C243.106 29.4224 243.407 29.6437 243.778 29.8207C244.156 29.9978 244.582 30.1909 245.057 30.4001C245.54 30.6013 246.031 30.7984 246.53 30.9916C247.029 31.1847 247.515 31.4341 247.99 31.7399C248.473 32.0376 248.899 32.3676 249.27 32.7297C249.648 33.0918 249.95 33.5545 250.175 34.1177C250.408 34.681 250.525 35.3127 250.525 36.0128C250.525 37.0025 250.251 37.8997 249.704 38.7044C249.165 39.5091 248.449 40.1287 247.556 40.5632C246.67 40.9897 245.709 41.203 244.671 41.203C242.377 41.203 240.289 40.3379 238.406 38.6079Z" fill="white"/>
<path d="M61.4891 13.3873L50.4634 0.70459H48.6611V18.0175H51.3115V5.33479L62.2312 18.0175H64.0334V0.70459H61.4891V13.3873Z" fill="black"/>
<path d="M79.4059 15.7024H71.3486V9.86433H77.3915V7.54923H71.3486V3.01969H79.1938V0.70459H68.6982V18.0175H79.4059V15.7024Z" fill="black"/>
<path d="M136.549 18.0175H139.093V3.01969H144.076V0.70459H131.566V3.01969H136.549V18.0175Z" fill="black"/>
<path d="M167.611 13.3873L156.691 0.70459H154.783V18.0175H157.434V5.33479L168.353 18.0175H170.262V0.70459H167.611V13.3873Z" fill="black"/>
<path d="M180.227 0.70459L172.7 18.0175H175.457L177.365 13.5886H185.104L187.012 18.0175H189.769L182.242 0.70459H180.227ZM178.319 11.2735L181.181 4.83151L184.044 11.2735H178.319Z" fill="black"/>
<path d="M188.603 3.01969H193.479V18.0175H196.13V3.01969H201.112V0.70459H188.603V3.01969Z" fill="black"/>
<path d="M216.061 10.9715C216.061 12.4814 215.637 13.5886 214.894 14.3939C213.94 15.4004 212.668 15.9037 211.078 15.9037C209.488 15.9037 208.215 15.4004 207.261 14.3939C206.519 13.5886 206.095 12.4814 206.095 10.9715V0.70459H203.551V10.8709C203.551 12.9847 204.187 14.6958 205.459 16.0044C206.201 16.709 207.049 17.3129 208.003 17.7155C208.958 18.1182 210.018 18.3195 211.184 18.3195C212.244 18.3195 213.304 18.1182 214.258 17.7155C215.213 17.3129 216.061 16.709 216.803 16.0044C218.075 14.6958 218.711 12.9847 218.711 10.8709V0.70459H216.061V10.9715Z" fill="black"/>
<path d="M233.023 8.85777C233.553 8.45515 233.977 7.85121 234.295 7.24727C234.613 6.64333 234.825 5.93874 234.825 5.23414C234.825 4.52954 234.613 3.82495 234.295 3.22101C233.977 2.61707 233.553 2.11379 233.023 1.61051C232.175 0.905912 230.903 0.603943 229.419 0.603943H223.058V17.9169H225.708V9.86434H227.828L234.295 18.0175H237.476L230.903 9.76368C231.751 9.66302 232.387 9.36105 233.023 8.85777ZM225.708 7.54924V3.0197H229.313C230.373 3.0197 231.009 3.22101 231.539 3.62364C231.963 4.02626 232.175 4.52954 232.175 5.23414C232.175 5.83808 231.963 6.34136 231.539 6.84464C231.115 7.24727 230.373 7.44858 229.313 7.44858H225.708V7.54924Z" fill="black"/>
<path d="M242.352 15.7024V9.86433H248.395V7.54923H242.352V3.01969H250.198V0.70459H239.808V18.0175H250.516V15.7024H242.352Z" fill="black"/>
<path d="M127.537 18.0175V15.7024L108.984 9.36105L127.537 3.01969V0.70459L105.486 8.15317L83.4346 0.70459V3.01969L101.987 9.36105L83.4346 15.7024V18.0175L105.486 10.5689L127.537 18.0175Z" fill="black"/>
<defs>
<linearGradient id="paint0_linear_262_2561" x1="20.6674" y1="39.7837" x2="20.6674" y2="0" gradientUnits="userSpaceOnUse">
<stop stop-color="#00D3FF"/>
<stop offset="0.0639164" stop-color="#00C3EC"/>
<stop offset="0.4146" stop-color="#007188"/>
<stop offset="0.6976" stop-color="#00343F"/>
<stop offset="0.899" stop-color="#000E11"/>
<stop offset="1"/>
</linearGradient>
</defs>
</svg>
