<svg width="102" height="102" viewBox="0 0 102 102" fill="none" xmlns="http://www.w3.org/2000/svg">
<path d="M101.478 51.3113C101.478 79.2046 78.8714 101.811 50.978 101.811C23.0847 101.811 0.478027 79.2046 0.478027 51.3113C0.478027 23.4179 23.0847 0.811279 50.978 0.811279C78.8714 0.811279 101.478 23.4179 101.478 51.3113ZM35.1968 33.9519V68.6707C35.1968 70.3869 36.1239 71.965 37.6231 72.7935C39.1026 73.6417 40.9372 73.6023 42.397 72.7146L70.8032 55.3552C72.2038 54.4873 73.0718 52.9683 73.0718 51.3113C73.0718 49.6542 72.2038 48.1353 70.8032 47.2673L42.397 29.908C40.9372 28.8427 39.1026 28.9808 37.6231 29.8291C36.1239 30.6576 35.1968 32.2357 35.1968 33.9519Z" fill="#00F00F"/>
</svg>
