<svg width="21" height="581" viewBox="0 0 21 581" fill="none" xmlns="http://www.w3.org/2000/svg">
<rect width="12" height="2" fill="white"/>
<rect y="7" width="12" height="2" fill="white"/>
<rect y="14" width="12" height="2" fill="white"/>
<rect y="21" width="12" height="2" fill="white"/>
<rect y="28" width="21" height="3" fill="white"/>
<rect y="36" width="12" height="2" fill="white"/>
<rect y="43" width="12" height="2" fill="white"/>
<rect y="50" width="12" height="2" fill="white"/>
<rect y="57" width="12" height="2" fill="white"/>
<rect y="64" width="21" height="3" fill="white"/>
<rect y="72" width="12" height="2" fill="white"/>
<rect y="79" width="12" height="2" fill="white"/>
<rect y="86" width="12" height="2" fill="white"/>
<rect y="93" width="12" height="2" fill="white"/>
<rect y="100" width="21" height="3" fill="white"/>
<rect y="108" width="12" height="2" fill="white"/>
<rect y="115" width="12" height="2" fill="white"/>
<rect y="122" width="12" height="2" fill="white"/>
<rect y="129" width="12" height="2" fill="white"/>
<rect y="136" width="21" height="3" fill="white"/>
<rect y="144" width="12" height="2" fill="white"/>
<rect y="151" width="12" height="2" fill="white"/>
<rect y="158" width="12" height="2" fill="white"/>
<rect y="165" width="12" height="2" fill="white"/>
<rect y="172" width="21" height="3" fill="white"/>
<rect y="180" width="12" height="2" fill="white"/>
<rect y="187" width="12" height="2" fill="white"/>
<rect y="194" width="12" height="2" fill="white"/>
<rect y="201" width="12" height="2" fill="white"/>
<rect y="208" width="21" height="3" fill="white"/>
<rect y="216" width="12" height="2" fill="white"/>
<rect y="223" width="12" height="2" fill="white"/>
<rect y="230" width="12" height="2" fill="white"/>
<rect y="237" width="12" height="2" fill="white"/>
<rect y="244" width="21" height="3" fill="white"/>
<rect y="252" width="12" height="2" fill="white"/>
<rect y="259" width="12" height="2" fill="white"/>
<rect y="266" width="12" height="2" fill="white"/>
<rect y="273" width="12" height="2" fill="white"/>
<rect y="280" width="21" height="3" fill="white"/>
<rect y="288" width="12" height="2" fill="white"/>
<rect y="295" width="12" height="2" fill="white"/>
<rect y="302" width="12" height="2" fill="white"/>
<rect y="309" width="12" height="2" fill="white"/>
<rect width="21" height="3" transform="matrix(1 0 0 -1 0 319)" fill="white"/>
<rect y="324" width="12" height="2" fill="white"/>
<rect y="331" width="12" height="2" fill="white"/>
<rect y="338" width="12" height="2" fill="white"/>
<rect y="345" width="12" height="2" fill="white"/>
<rect width="21" height="3" transform="matrix(1 0 0 -1 0 355)" fill="white"/>
<rect y="360" width="12" height="2" fill="white"/>
<rect y="367" width="12" height="2" fill="white"/>
<rect y="374" width="12" height="2" fill="white"/>
<rect y="381" width="12" height="2" fill="white"/>
<rect width="21" height="3" transform="matrix(1 0 0 -1 0 391)" fill="white"/>
<rect y="396" width="12" height="2" fill="white"/>
<rect y="403" width="12" height="2" fill="white"/>
<rect y="410" width="12" height="2" fill="white"/>
<rect y="417" width="12" height="2" fill="white"/>
<rect width="21" height="3" transform="matrix(1 0 0 -1 0 427)" fill="white"/>
<rect y="432" width="12" height="2" fill="white"/>
<rect y="439" width="12" height="2" fill="white"/>
<rect y="446" width="12" height="2" fill="white"/>
<rect y="453" width="12" height="2" fill="white"/>
<rect width="21" height="3" transform="matrix(1 0 0 -1 0 463)" fill="white"/>
<rect y="468" width="12" height="2" fill="white"/>
<rect y="475" width="12" height="2" fill="white"/>
<rect y="482" width="12" height="2" fill="white"/>
<rect y="489" width="12" height="2" fill="white"/>
<rect width="21" height="3" transform="matrix(1 0 0 -1 0 499)" fill="white"/>
<rect y="504" width="12" height="2" fill="white"/>
<rect y="511" width="12" height="2" fill="white"/>
<rect y="518" width="12" height="2" fill="white"/>
<rect y="525" width="12" height="2" fill="white"/>
<rect width="21" height="3" transform="matrix(1 0 0 -1 0 535)" fill="white"/>
<rect y="540" width="12" height="2" fill="white"/>
<rect y="547" width="12" height="2" fill="white"/>
<rect y="554" width="12" height="2" fill="white"/>
<rect y="561" width="12" height="2" fill="white"/>
<rect width="21" height="3" transform="matrix(1 0 0 -1 0 571)" fill="white"/>
<rect y="576" width="12" height="2" fill="white"/>
</svg>
