<svg width="91" height="174" viewBox="0 0 91 174" fill="none" xmlns="http://www.w3.org/2000/svg">
<g clip-path="url(#clip0_266_4262)">
<path d="M18.7535 154.591C19.5443 155.904 19.3184 156.703 18.0757 156.874C16.833 157.102 14.2911 155.675 13.6697 154.476C12.8224 152.935 12.427 151.28 12.54 149.51C12.54 149.282 12.3141 149.053 12.1446 148.882C12.0316 148.825 11.6927 148.825 11.6362 148.939C11.0149 149.91 10.3935 150.88 9.82865 151.908C9.77216 152.022 10.0546 152.307 10.1676 152.478C10.3935 152.764 10.7324 153.049 10.7889 153.335C10.8454 153.963 11.9187 154.305 11.0149 155.276C10.1676 156.132 9.32027 156.417 8.30351 156.246C7.28675 156.018 6.94783 154.191 8.02107 153.221C8.81189 152.478 8.02107 152.136 7.96459 151.679C7.9081 150.994 7.45621 151.051 7.00431 151.337C6.2135 151.736 5.47917 152.193 4.68836 152.535C3.6716 152.935 2.93727 153.791 3.05025 154.591C3.16322 155.39 3.44565 156.589 4.63187 156.874C5.70512 157.16 6.55242 157.959 7.85161 158.073C9.20729 158.187 10.3935 159.158 11.8622 159.329C13.1614 159.5 14.3476 160.242 15.7033 160.242C17.0589 160.242 18.2452 161.041 19.7138 160.87C20.7306 160.756 21.8038 161.213 22.8771 161.384C23.9503 161.555 25.1365 161.041 26.0403 161.955C28.1303 161.955 30.2768 161.612 32.2538 162.012C36.1514 162.868 39.9925 162.354 43.8901 162.469C47.8442 162.583 51.7982 162.526 55.7523 162.469C57.1645 162.469 58.5766 162.012 60.0453 161.955C61.5704 161.841 63.152 162.297 64.5077 161.841C65.9764 161.327 67.3885 161.498 68.8007 161.327C69.761 161.213 70.7213 160.927 71.6815 160.756C72.6418 160.585 73.6021 160.585 74.5624 160.299C75.8051 159.957 77.2172 159.9 78.5164 159.671C81.9056 159.043 85.1254 158.016 88.1191 156.189C89.4183 155.39 89.4748 154.419 88.5146 153.335C87.3283 151.965 85.6337 151.622 84.0521 151.108C83.7697 150.994 83.2048 151.337 82.9224 151.622C82.301 152.193 83.0918 152.364 83.3178 152.593C83.9956 153.392 83.4872 153.963 83.2613 154.762C82.9789 155.847 82.414 155.618 81.8491 155.561C81.3407 155.504 80.5499 156.075 80.2675 154.99C80.0416 154.134 79.1943 153.392 80.211 152.535C81.0583 151.793 81.1713 151.051 80.3805 150.138C79.9851 149.738 80.098 148.825 79.7026 148.425C78.121 146.884 78.5164 145.228 79.0248 143.345C79.4767 141.86 79.4767 140.319 79.7026 138.778C79.8721 137.807 80.098 136.837 80.2675 135.866C80.437 134.896 79.9286 133.868 80.7759 132.898C81.1148 132.555 80.8324 131.642 80.8324 130.957C80.8324 125.134 80.7194 119.368 80.8889 113.545C81.0018 109.949 79.9851 106.581 79.0248 103.156C78.8553 102.471 78.5164 101.843 78.234 101.215C77.9516 100.472 78.347 99.6162 79.0248 99.6162C80.8324 99.5591 82.5835 99.5591 84.391 99.6733C84.6735 99.6733 85.6902 100.016 84.8994 100.986C84.2781 101.785 83.7132 102.927 83.7697 103.898C83.7697 105.096 83.3743 106.124 83.0353 107.037C82.6399 108.122 82.7529 109.207 82.527 110.234C82.188 111.719 82.3575 113.146 82.4705 114.63C82.5835 116.228 82.9789 117.941 82.0186 119.539C81.7926 119.939 81.7926 120.738 82.0186 121.195C82.9789 122.965 82.414 124.848 82.527 126.675C82.6399 127.931 82.4705 129.187 83.0353 130.443C83.5437 131.585 82.6399 133.012 83.6567 134.211C83.7697 134.382 83.6567 134.782 83.6567 135.067C83.8262 136.323 83.4308 137.579 84.1086 138.892C84.617 139.862 84.1651 141.175 84.6735 142.374C85.1254 143.459 84.7864 144.829 85.2948 146.142C85.8032 147.398 85.0124 148.482 83.9956 149.282C83.6002 149.624 83.6567 149.852 84.2216 149.91C85.9162 149.967 87.1024 151.165 88.5146 151.793C89.3619 152.193 89.8138 153.449 90.4351 154.362C89.8702 156.474 91.9038 158.587 90.4916 160.756C90.2092 161.213 90.4351 162.069 90.4351 162.697C90.4916 163.896 89.9267 164.98 89.4183 166.008C88.8535 167.264 87.4413 167.264 86.4245 167.549C83.0353 168.463 79.6461 169.433 76.257 170.289C75.9745 170.347 75.7486 170.461 75.4661 170.461C74.5059 170.632 73.5456 170.232 72.5288 170.974C71.851 171.488 70.6648 171.146 69.648 171.488C68.3488 171.945 66.8237 171.774 65.4115 172.059C62.8131 172.573 60.1018 172.345 57.5034 172.744C51.9677 173.658 46.3755 173.144 40.7833 173.201C39.936 173.201 39.3712 174.514 38.2979 173.486C37.846 173.03 36.7163 173.315 35.869 173.258C34.9087 173.258 34.0049 173.258 33.0447 173.258C32.1974 173.258 31.3501 173.429 30.5028 173.258C27.396 172.63 24.1763 172.687 21.126 172.059C16.72 171.203 12.3141 170.347 8.13405 168.691C6.10053 167.892 4.17998 166.75 2.37241 165.551C2.08997 165.38 1.86403 164.98 1.80754 164.638C1.58159 163.325 1.46862 161.955 1.18619 160.585C1.07321 159.9 0.677807 159.215 0.677807 158.53C0.677807 157.845 1.1297 157.16 1.18619 156.474C1.46862 153.848 2.99376 151.85 5.47917 150.937C5.87458 150.766 6.32647 150.595 6.60891 150.309C7.00431 149.91 7.00431 149.282 6.43945 149.282C5.3662 149.282 5.87458 148.311 5.3662 147.911C4.68836 147.455 5.70512 146.998 5.70512 146.541C5.81809 143.915 6.77837 141.404 6.94783 138.778C7.0608 137.179 7.00431 135.41 7.51269 133.925C8.07756 132.27 7.56918 130.557 8.02107 129.016C8.98135 125.876 8.35999 122.679 8.47297 119.539C8.58594 116.285 8.69891 113.032 8.41648 109.835C8.19053 107.209 7.11729 104.697 6.2135 102.242C6.10053 101.9 5.70512 101.671 5.70512 101.329C5.64863 100.815 5.47917 100.187 6.43945 100.187C7.73864 100.244 9.09432 100.13 10.3935 100.244C11.2973 100.301 12.54 99.7304 12.9354 100.644C13.2178 101.215 12.4835 102.242 12.2011 103.098C11.3538 105.839 10.6195 108.522 10.1111 111.376C9.6027 114.287 9.77216 117.142 9.71567 119.996C9.6027 122.965 9.43324 125.933 9.77216 128.845C9.99811 130.785 9.88513 132.726 10.337 134.61C10.9019 137.122 10.9584 139.748 11.8622 142.203C12.2576 143.287 12.2576 144.658 12.54 145.913C12.653 146.484 12.8224 146.484 13.1614 146.085C13.4438 145.799 13.6697 145.514 13.9522 145.285C14.4041 145 14.9689 144.829 15.2514 144.429C15.3643 144.258 14.9689 143.687 14.743 143.287C13.6697 141.061 12.8789 138.835 13.0484 136.266C13.1049 135.524 12.427 134.496 12.7095 134.039C13.2743 133.183 12.9919 132.384 13.0484 131.585C13.1049 128.845 14.0651 124.677 15.4208 122.051C17.0025 119.083 18.3581 116 20.3916 113.26C21.0695 112.346 21.6908 111.319 22.4252 110.406C23.9503 108.579 25.6449 106.809 27.17 104.982C28.1868 103.784 29.2036 102.585 30.1638 101.386C31.0676 100.244 32.2538 99.3878 33.0447 98.0178C34.0049 96.3622 35.5301 95.0492 36.7728 93.565C37.846 92.3091 38.9758 91.0532 39.936 89.7402C40.3314 89.2264 40.5009 88.4843 40.7268 87.7992C40.8398 87.3996 40.7833 86.8288 41.0093 86.4863C41.8566 85.1733 41.4047 84.0315 40.8398 82.7185C39.9925 80.7205 38.8628 79.1221 37.3941 77.5807C35.982 76.0965 34.1744 75.0118 33.3836 73.0138C31.3501 72.6142 31.0111 70.2737 29.3165 69.3032C27.9044 68.504 27.0571 66.6772 25.8709 65.4213C23.3854 62.8524 21.2389 60.0552 19.2054 57.0866C17.7368 54.9744 16.3246 52.8052 15.1384 50.5217C14.3476 49.0374 14.0087 47.3819 13.6133 45.7264C12.8224 42.6437 13.3308 39.5611 13.1614 36.5355C13.1049 35.6792 13.5003 34.7658 13.6697 33.9095C13.8392 33.1103 13.2743 32.1969 14.1216 31.5118C13.6133 30.2559 14.7995 28.8859 13.9522 27.6299C13.2743 26.6595 13.7827 25.7461 14.2911 24.8327C15.4208 24.4331 16.607 24.0906 17.7368 23.691C19.2054 23.1201 20.7871 22.8347 22.3122 22.4922C23.8373 22.1496 25.5319 22.4922 26.8311 21.9213C28.4128 21.2362 29.9944 21.9213 31.4065 21.4075C34.1179 20.4941 36.9422 21.3504 39.5971 20.8366C43.9466 19.9233 48.2396 20.4941 52.589 20.3799C54.1142 20.3229 55.6958 19.9803 57.1645 20.8937C57.5034 21.1221 58.2377 20.6083 58.8026 20.6083C59.4239 20.6083 59.9888 20.8937 60.6101 20.8937C61.4575 20.9508 62.3047 20.8366 63.1521 20.9508C63.9429 21.065 64.6772 21.4075 65.468 21.4646C66.3153 21.5788 67.1626 21.4075 68.0099 21.5217C68.6313 21.5788 69.2526 21.9213 69.874 22.0355C70.8907 22.2067 72.0769 22.7205 72.8678 22.378C73.6586 22.0355 74.2234 23.4626 74.6188 22.378C74.7318 21.9784 74.054 21.3504 73.7715 20.8366C73.6021 20.4941 73.715 20.0945 73.5456 19.8091C73.4326 19.5807 72.9242 19.2382 72.8113 19.2953C72.1334 19.8662 71.738 19.9803 71.851 18.8386C71.9075 18.3819 71.4556 17.6398 72.6418 17.6969C72.8113 17.754 72.6983 17.6398 72.6418 17.5256C72.5853 17.5827 72.4723 17.6969 72.4159 17.754C72.5288 17.8681 72.6418 17.9252 72.7548 17.9823C72.7548 17.9823 72.8678 17.8681 72.6983 17.6398C72.4159 17.1831 72.4159 16.8977 72.4159 16.6122C72.6418 16.6122 72.8113 16.6122 73.0372 16.6693C73.2632 16.7264 73.5456 16.8406 73.7715 16.8977C76.0875 17.4114 77.4432 18.8386 78.121 21.1792C78.4034 22.2638 78.6294 23.2914 78.6859 24.376C78.6859 24.5473 78.9683 24.8327 79.1943 24.8327C79.3637 24.8327 79.7026 24.6614 79.8156 24.4902C80.1545 23.8622 80.324 23.1772 80.7194 22.6063C81.2278 21.8071 81.0583 21.2362 80.437 20.6654C80.211 20.4941 79.9851 20.3229 79.8721 20.0374C79.5897 19.4095 79.9286 17.9823 80.4934 17.754C81.2278 17.3544 82.0186 17.2402 82.8094 17.8681C84.1086 18.8957 84.2216 19.3524 83.0918 20.8366C82.8094 21.2362 82.527 21.5217 82.9224 22.0355C83.3178 22.4922 83.5437 22.3209 84.1651 22.2067C85.4643 21.9213 86.5375 21.4646 87.3848 20.4941C87.6673 20.1516 88.571 19.9233 88.0627 19.3524C87.5543 18.6674 88.1756 17.5256 87.1024 17.1831C85.6337 16.6693 84.3345 15.4705 82.6399 15.6418C82.527 15.6418 82.301 15.7559 82.2445 15.6988C81.3972 14.2717 79.8156 14.5571 78.6294 14.2717C76.2005 13.7008 73.7715 13.0158 71.2296 12.9587C70.0434 12.9587 68.8007 12.502 67.5015 12.4449C66.3718 12.3878 65.2421 11.9882 64.0558 11.9311C62.7566 11.817 61.3445 12.1595 60.1018 11.874C55.6958 10.8465 51.4028 11.5315 47.1663 11.4173C42.9298 11.3032 38.6933 11.0748 34.4568 11.4744C31.689 11.7028 28.9211 11.6457 26.2098 12.0453C24.6846 12.2736 23.1595 12.3878 21.6344 12.502C20.6741 12.5591 19.7138 12.9016 18.7535 13.0729C17.9062 13.2441 17.0025 12.8445 16.0987 13.5866C15.6468 13.9862 14.63 13.5866 13.8957 13.7008C13.2178 13.815 12.54 14.0433 11.8622 14.2717C9.09432 15.128 6.2135 15.5276 3.6716 17.0118C3.05025 17.4114 2.37241 17.754 1.977 18.3248C1.75105 18.6673 1.69457 19.4666 1.92051 19.8091C2.99376 21.3504 4.63187 22.2067 6.32647 22.7776C6.77837 22.9488 7.39972 22.7205 7.9081 22.5492C8.19053 22.4351 8.81189 22.0925 8.13405 21.5788C7.79513 21.2933 7.51269 20.8937 7.39972 20.4941C7.11729 19.124 7.73864 18.439 9.09432 18.3248C10.1111 18.2107 10.8454 18.4961 11.0714 19.5236C11.1278 19.8091 11.1843 20.2087 11.1278 20.4941C11.0149 20.8937 10.7889 21.2933 10.563 21.6929C9.94162 22.7205 10.0546 23.5197 10.8454 24.4331C11.9751 25.7461 13.1049 27.3445 12.427 29.1142C11.5232 31.2835 11.5797 33.624 10.9019 35.8504C10.337 37.7343 10.2805 39.8465 10.2805 41.8445C10.2241 48.1241 10.3935 54.4036 10.2241 60.6831C10.1111 64.4508 11.0714 67.8189 12.2011 71.3012C12.2011 71.3583 12.3705 71.4154 12.3705 71.5296C13.2743 73.9843 13.1049 74.2126 10.5065 74.2697C9.37675 74.2697 8.24702 74.3268 7.11729 74.2697C6.04404 74.2126 5.76161 73.5276 6.10053 72.4429C7.34323 69.0178 8.7554 65.5926 8.58594 61.7677C8.47297 58.7992 8.41648 55.8878 8.58594 52.9193C8.81189 49.2658 7.9081 45.6693 7.96459 42.0158C7.96459 41.0453 7.34323 40.189 7.39972 39.1044C7.45621 38.2481 7.62567 37.3347 7.11729 36.3642C6.66539 35.565 7.17377 34.3091 6.83485 33.3386C6.2135 31.5118 6.38296 29.5709 5.76161 27.8012C5.25323 26.374 5.3662 26.0315 6.49593 25.1181C7.11729 24.6614 7.17377 24.3189 6.43945 23.9764C5.47917 23.5197 4.5189 23.1201 3.61511 22.6063C1.977 21.75 0.338887 20.7796 0.734294 18.439C-0.113006 16.8977 -3.26261e-05 15.128 0.225914 13.5296C0.508347 11.5315 0.508347 9.41932 1.80754 7.64963C2.03349 7.30711 1.92051 6.90751 2.59835 6.79333C5.02728 6.45081 7.34323 5.42325 9.71567 4.85239C10.8454 4.56695 11.9187 4.16735 12.9919 3.939C14.2346 3.65357 15.5903 3.82483 16.6635 3.25396C17.5108 2.85436 18.3581 2.91144 19.2619 2.79727C20.2222 2.6831 21.1825 2.39766 22.1427 2.2264C22.99 2.05514 24.0068 2.62601 24.7411 1.65554C24.7976 1.54136 25.08 1.65554 25.306 1.65554C27.5655 1.48428 29.8814 1.48428 32.1409 1.02758C37.9025 2.41715e-05 43.7771 0.856324 49.6517 0.513804C50.3296 0.456717 51.1769 0.799237 51.7417 0.0571108C51.8547 -0.0570625 52.3066 -0.0570625 52.4761 0.114197C53.3234 0.970497 54.4531 0.57089 55.3569 0.513804C58.9155 0.171284 62.3612 1.02758 65.8634 1.19884C68.3488 1.3701 70.8907 1.76971 73.2632 2.34058C76.3134 3.02562 79.4767 3.59648 82.301 5.08073C83.2048 5.59451 84.2216 5.93703 85.2383 6.22247C86.8764 6.62207 87.9497 7.7638 88.8535 9.01971C89.4748 9.81892 89.7008 10.9607 89.8702 11.9882C90.0397 13.4154 89.8137 14.8425 89.9267 16.2697C90.1527 19.2953 88.571 21.065 86.1421 22.3209C85.7467 22.5492 85.3513 22.7205 84.9559 22.9488C83.6567 23.6339 83.6002 23.691 84.8994 24.4902C85.5208 24.8327 85.3513 25.2323 85.3513 25.6319C85.5208 27.5158 84.391 29.2284 84.7864 31.1122C83.4872 32.3111 84.8994 34.252 83.6567 35.5079C84.1086 37.6772 83.3178 39.7323 83.0353 41.8445C82.5835 44.6989 82.6399 47.6103 82.527 50.4646C82.4705 51.4922 81.5667 52.6339 82.0751 53.6044C82.8659 55.2599 82.4705 56.9154 82.5835 58.5138C82.5835 59.0276 82.301 59.5414 82.2445 60.0552C82.188 60.5689 82.2445 61.0827 82.301 61.5965C82.301 61.7678 82.6399 61.8819 82.5835 62.0532C82.2445 64.3366 83.0918 66.3347 83.7132 68.4469C84.1651 69.7599 84.4475 71.187 85.0689 72.4429C85.4643 73.1851 84.8994 73.4134 84.7299 73.4705C82.5835 73.5847 80.4934 73.6418 78.347 73.6989C78.234 73.6989 78.008 73.2422 78.0645 73.0138C78.234 72.1575 78.4599 71.3012 78.7424 70.4449C79.8721 67.4193 80.4934 64.3366 81.0018 61.0827C81.6797 56.5729 81.2278 52.1201 81.3972 47.6103C81.4537 46.2973 81.0583 44.9272 80.8889 43.5571C80.7194 42.187 80.9453 40.874 80.437 39.504C79.9286 38.191 80.0415 36.6496 79.8721 35.2225C79.5897 32.7677 78.7424 30.4843 78.6294 28.0296C78.6294 27.9154 78.234 27.7441 78.1775 27.7441C77.4997 28.2008 76.8218 28.6004 76.257 29.1713C75.9745 29.4567 75.7486 30.1418 75.8615 30.3701C76.4264 31.1693 76.0875 32.254 76.4829 32.9961C78.347 36.5355 77.1607 40.3032 77.4997 43.9567C76.5394 46.8111 76.0875 49.7796 75.0142 52.6339C74.3364 54.4036 73.0372 55.8307 72.0205 57.3721C69.874 60.5118 67.2756 63.252 64.7337 66.0492C62.1353 68.9036 59.7064 71.9292 57.1645 74.8406C55.0745 77.2382 53.3799 80.0926 51.5158 82.7185C50.1036 84.7737 50.0471 87.9134 51.4028 89.8544C52.4761 91.3957 53.1539 93.2796 54.792 94.4213C54.8485 95.6201 56.2607 95.5059 56.7126 96.4193C57.1645 97.2756 57.9553 98.0178 58.5766 98.7599C59.1415 99.4449 59.8193 100.016 60.2712 100.929C60.6101 101.671 62.0788 101.9 62.2483 102.585C62.5307 103.726 63.5475 103.669 64.1688 104.297C68.2358 108.636 71.851 113.26 75.0707 118.284C75.6356 120.681 77.3302 122.679 77.6126 125.191C77.7256 126.047 78.008 126.904 78.2905 127.76C78.347 127.988 78.6859 128.217 78.6859 128.445C78.6294 131.528 79.7591 134.553 79.2507 137.636C78.8553 139.919 78.5729 142.26 77.4432 144.258C77.1043 144.886 76.8218 145.457 77.1607 146.028C77.9516 147.455 77.3867 148.939 77.5561 150.423C77.5561 150.48 77.3302 150.595 77.2172 150.652C77.2172 150.652 77.0478 150.537 77.0478 150.48C77.0478 150.081 77.0478 149.738 77.0478 149.339C77.0478 149.053 76.9348 148.825 76.8783 148.539C76.6524 148.654 76.4829 148.825 76.257 148.939C75.0142 150.081 73.3196 150.252 71.851 150.595C69.4221 151.165 66.9931 152.079 64.4512 151.85C62.3047 153.049 59.8758 152.25 57.5599 152.878C55.3569 153.506 52.815 152.593 50.5555 153.106C46.9404 153.906 43.3817 153.449 39.7666 153.563C38.5239 153.62 37.1682 154.077 36.0385 153.049C34.1179 153.963 32.2538 152.707 30.2768 152.992C28.9776 153.163 27.5655 153.335 26.2663 152.535C25.9273 152.307 25.08 152.992 24.6281 152.821C22.7076 152.136 20.5611 152.364 18.6971 151.451C18.6406 151.451 18.3581 151.736 18.3016 151.908C18.2452 152.25 18.3016 152.65 18.3016 153.049C18.1322 152.878 17.7933 152.821 17.7368 152.593C17.6238 152.079 17.9627 150.994 16.8895 151.394C16.1552 151.622 17.2849 152.079 17.1719 152.65C17.0025 153.563 17.4543 154.305 18.2452 154.762C18.2452 154.933 18.2452 155.161 18.2452 155.333C18.3016 155.504 18.3581 155.675 18.4146 155.789C18.5276 155.618 18.6971 155.504 18.7535 155.276C18.81 154.99 18.7535 154.762 18.7535 154.591ZM48.1831 24.4902C43.8336 24.8327 39.4841 23.9764 35.1347 25.004C33.3836 25.4036 31.5195 25.2894 29.7119 25.5177C26.8311 25.8032 24.0633 26.6024 21.1825 26.8307C20.3352 26.8878 19.3184 27.1733 18.6406 27.4587C17.5108 27.9725 15.3643 28.0296 15.8727 30.313C15.9292 30.4843 15.4773 30.7126 15.4208 30.941C14.856 33.3957 13.9522 35.7933 14.1781 38.4193C14.2911 40.0177 14.2346 41.6733 14.1781 43.2717C14.1216 44.9272 14.743 46.4114 15.1384 48.0099C16.1551 51.8918 18.5276 55.0886 20.8435 58.1713C23.7244 61.9961 26.7746 65.7638 30.3333 69.0748C32.1974 70.7874 33.9484 72.6713 35.6995 74.4981C37.3941 76.3248 39.0322 78.2087 40.6704 80.0926C41.9131 81.5197 42.5344 83.3465 42.8733 85.1162C43.0428 86.2008 42.4214 87.5709 41.8001 88.5985C40.5009 90.7107 39.0322 92.8229 37.4506 94.7638C35.1347 97.6181 32.7622 100.472 30.2768 103.156C27.8479 105.782 25.5319 108.522 23.329 111.376C20.8435 114.516 18.4711 117.77 17.0025 121.537C16.2116 123.593 15.2514 125.534 14.63 127.703C14.0651 129.758 14.856 131.927 13.6697 133.868C13.5003 134.096 13.5568 134.782 13.7262 134.953C14.3476 135.467 14.1781 136.152 14.1781 136.78C14.0087 139.748 15.1949 142.374 16.4941 144.943C17.0589 146.028 18.0192 146.77 19.3184 147.284C21.8038 148.311 24.4587 147.854 26.8311 148.882C29.7119 148.425 32.4798 149.567 35.3606 149.51C39.2017 149.396 43.0993 149.339 46.9404 149.51C50.838 149.738 54.679 148.882 58.5766 148.882C59.3674 148.882 60.1018 148.425 60.8926 148.368C61.7399 148.254 62.6437 148.539 63.4345 148.311C65.9764 147.455 68.6877 147.455 71.2296 146.656C72.5853 146.256 73.828 145.685 75.0142 144.886C76.3699 143.972 76.257 142.089 77.4432 141.061C77.5561 140.947 77.5561 140.376 77.4432 140.262C76.6524 139.463 76.9348 138.549 76.8783 137.636C76.8783 135.352 76.7653 133.069 76.8783 130.785C76.9913 128.559 75.6356 126.618 75.7486 124.392C75.7486 123.935 74.7318 123.65 75.5791 123.079C75.6921 122.965 75.3532 122.165 75.1837 121.709C75.0143 121.195 74.8448 120.681 74.6188 120.224C72.7548 116.742 70.8907 113.26 68.2923 110.348C64.4512 106.01 60.0453 102.185 56.2607 97.7323C54.0577 95.1634 51.7982 92.6516 50.2166 89.6831C49.6517 88.5985 49.0869 87.3996 49.2563 86.0866C49.3128 85.5158 50.1036 82.3189 50.3296 81.9764C52.4196 78.3229 55.3569 75.3544 57.9553 72.0433C58.6896 71.0729 59.6499 70.2737 60.5537 69.4174C61.3445 68.6181 62.1353 67.8189 62.8131 66.9626C63.5475 66.0492 63.8864 64.7363 64.7902 64.1654C65.7504 63.5374 66.0329 62.5099 66.8802 61.8819C67.784 61.1398 68.4053 60.0552 69.0831 59.1418C71.2296 56.4016 73.1502 53.5473 74.7318 50.4075C75.4097 49.0374 75.0143 47.6103 75.7486 46.2402C76.3699 45.1555 76.5394 43.8426 76.3699 42.5296C76.257 41.2166 76.144 39.8465 76.3699 38.5335C76.8218 35.9646 75.3532 33.7382 75.1272 31.2835C75.0142 30.2559 73.941 29.3425 73.5456 28.2579C73.3761 27.7441 73.0937 27.687 72.7548 27.4587C70.2694 25.689 67.3321 25.6319 64.6207 25.3465C60.6101 24.9469 56.5431 24.2618 52.4761 24.6044C51.0074 24.6044 49.5953 24.4902 48.1831 24.4902ZM60.4407 171.545C61.7964 171.545 63.2085 172.116 64.4512 171.146C66.3153 171.545 68.0099 170.632 69.874 170.518C71.3991 170.461 72.8678 169.776 74.3929 169.947C75.1837 168.691 76.6524 169.833 77.7256 169.034C78.5729 168.406 79.9286 168.577 81.0583 168.291C83.2048 167.721 85.2948 167.207 87.3848 166.522C88.4016 166.179 89.2489 165.323 89.3054 164.238C89.3619 162.297 90.3221 160.471 89.9267 158.473C89.8137 157.73 89.7573 157.045 89.6443 156.303C89.1359 156.703 88.684 157.102 88.1191 157.388C84.391 159.728 80.098 160.471 75.918 161.327C73.5456 161.841 71.1167 161.955 68.7442 162.411C66.8237 162.754 64.7902 162.583 62.7566 162.982C60.7796 163.382 58.6331 162.982 56.5431 163.097C54.4531 163.211 52.3631 163.496 50.2731 163.61C49.5388 163.667 48.748 163.61 48.0136 163.61C47.1663 163.61 46.319 163.61 45.4717 163.61C44.7374 163.61 43.9466 163.61 43.2123 163.61C42.4779 163.61 41.6871 163.61 40.9528 163.61C40.162 163.553 39.2582 163.896 38.6368 163.097C38.0155 164.238 37.4506 162.982 36.8293 162.982C33.4966 162.982 30.1638 163.439 26.8876 162.526C26.0403 162.297 25.0236 162.411 24.0633 162.526C23.2725 162.64 22.4817 161.098 21.6908 162.469C20.6741 161.098 19.0925 162.411 17.8498 161.555C16.7765 160.813 15.2514 161.213 13.9522 160.87C11.2408 160.128 8.35999 160.014 5.87458 158.53C5.30971 158.187 4.5189 158.13 3.84106 157.959C3.78457 157.959 3.55863 158.358 3.55863 158.358C4.29295 159.1 3.78457 159.957 3.95403 160.756C4.06701 161.27 4.68836 161.726 4.01052 162.24C5.02728 162.925 4.12349 163.439 3.95403 164.067C3.72809 164.809 4.06701 165.494 4.68836 165.722C5.87458 166.065 6.94783 166.693 8.07756 167.15C10.1111 167.949 12.2011 168.634 14.2346 169.376C16.4376 170.175 18.6971 170.461 20.9 170.917C22.2557 171.203 23.7244 171.545 25.1365 171.602C26.6617 171.66 28.1868 171.831 29.7119 172.116C31.689 172.459 33.8355 172.345 35.869 172.173C37.959 172.002 39.8231 172.915 41.8566 172.801C44.3985 172.63 46.9404 172.972 49.5388 172.287C51.2334 171.831 53.0974 172.287 54.8485 172.173C56.8255 172.116 58.6331 171.774 60.4407 171.545ZM58.3507 10.9036C58.3507 10.8465 58.3507 10.8465 58.3507 10.7894C59.9323 10.7894 61.5704 10.7323 63.1521 10.7894C63.7169 10.7894 64.2818 11.2461 64.9031 11.3032C65.5245 11.4173 66.2023 11.2461 66.8802 11.3603C67.558 11.4173 68.4618 11.9311 68.8007 11.7028C69.5915 11.0177 69.761 12.2736 70.4388 11.9882C71.0602 11.7028 72.4159 11.7028 72.5853 11.9882C73.0937 12.9587 73.7715 11.5315 74.3364 12.3307C74.6188 12.6733 75.918 12.1595 76.4264 12.502C77.1043 12.9587 77.7821 12.9016 78.4599 13.0158C79.1378 13.187 79.7026 13.815 80.4934 13.5296C80.7759 14.5571 81.5667 13.5866 82.1316 13.9292C83.4308 14.6142 84.8994 14.8996 86.3116 15.4134C86.594 15.5276 86.9329 16.0414 86.9894 15.3563C87.0459 14.7284 86.9894 13.9862 86.6505 13.5296C86.1421 12.7303 86.9894 11.5886 85.9162 10.9607C86.0291 10.8465 86.1986 10.7323 86.3116 10.561C86.594 9.99018 87.1589 9.30514 86.9894 8.90554C86.7635 8.33467 86.0291 7.93506 85.4643 7.64963C83.8827 6.90751 82.301 6.05121 80.6629 5.59451C77.5561 4.68113 74.5624 3.19687 71.1731 3.25396C67.6145 1.88388 63.8299 2.45475 60.2712 1.71262C58.2942 1.31302 56.2042 2.16932 54.2836 1.14176C54.0577 1.02758 53.6058 1.25593 53.2669 1.31302C52.928 1.3701 52.4196 1.71262 52.3066 1.59845C51.5158 0.74215 50.5555 1.14176 49.6517 1.14176C46.8839 1.19884 44.1725 0.856324 41.4047 1.59845C39.8231 1.99806 38.0155 1.65554 36.3209 1.65554C35.5866 1.65554 34.7957 1.54136 34.0614 1.71262C33.4401 1.88388 32.8752 2.28349 32.2538 1.65554C31.2371 2.45475 29.9944 2.11223 28.8082 2.2264C27.5655 2.34058 26.3228 2.62601 25.08 2.79727C23.329 3.02562 21.4649 2.96853 19.7703 3.48231C16.4376 4.45278 12.9919 4.68113 9.65919 5.70869C7.39972 6.39373 5.19674 7.25002 2.99376 7.93506C2.31592 8.16341 1.92051 8.50593 1.80754 9.24806C1.63808 10.3898 1.35565 11.5315 1.29916 12.7303C1.18619 13.9862 1.29916 15.1851 1.29916 16.441C1.29916 17.126 1.80754 17.2973 2.20295 17.0118C3.16322 16.1555 4.23647 15.6418 5.47917 15.2992C6.60891 14.9567 7.85161 14.5571 8.92486 14.1004C11.0149 13.2441 13.2178 13.2441 15.3643 12.5591C17.5673 11.817 19.9398 11.9311 22.2557 11.4744C24.0068 11.0748 25.8144 11.3603 27.6784 10.9607C29.4295 10.504 31.4065 10.8465 33.3271 10.8465C35.1347 10.8465 36.8293 10.1044 38.7498 10.2185C42.026 10.3898 45.3587 10.1614 48.635 10.2756C51.7417 10.3898 55.0745 10.6752 58.3507 10.9036ZM34.5133 22.2067C33.3836 22.2067 32.1409 21.8642 31.1806 22.2638C30.1074 22.7205 29.0906 22.6634 28.0173 22.7776C26.9441 22.8918 25.9273 23.2914 24.8541 23.2914C22.7076 23.4055 20.7306 23.9764 18.81 24.5473C17.5108 24.9469 15.9857 25.1181 15.0254 26.317C14.856 26.4882 14.856 27.0591 15.0254 27.2303C15.1949 27.4587 15.4208 28.2579 15.9857 27.5729C16.8895 26.5453 18.3016 26.8307 19.4879 26.4311C21.4084 25.7461 23.4419 25.4036 25.419 25.0611C28.3563 24.6044 31.3501 24.5473 34.2874 23.9764C35.982 23.6339 37.846 23.9764 39.6536 23.9193C41.4612 23.8051 43.2687 23.4626 45.0763 23.4055C47.9007 23.2914 50.725 23.4626 53.5493 23.3485C56.4301 23.2343 59.198 24.2048 62.0788 24.0335C64.0558 23.9193 66.1458 24.0335 68.0099 24.6614C69.0831 25.004 70.2129 24.7185 71.1167 25.2894C72.4159 26.0315 74.4494 25.7461 74.8448 27.8583C74.8448 27.9725 75.3532 28.0296 75.5791 27.9725C76.3134 27.9154 77.5561 26.7166 77.4432 26.2028C77.2737 25.5748 76.6524 25.4036 76.0875 25.0611C75.1272 24.4331 74.1105 24.376 73.0937 24.0335C70.0434 22.9488 66.7672 23.063 63.6604 22.3209C62.2483 21.9784 60.6666 22.378 59.1415 22.2638C57.6164 22.1496 56.1477 21.6359 54.5661 21.6929C51.1769 21.8071 47.7877 21.8071 44.3985 21.6929C41.0658 21.5217 37.7895 21.8642 34.5133 22.2067ZM55.8653 151.622C57.5034 151.679 59.085 151.85 60.7231 151.222C61.9658 150.709 63.378 151.394 64.7337 150.709C65.8634 150.195 67.3885 150.366 68.6877 150.138C71.1731 149.738 73.3761 148.768 75.6356 147.797C76.2005 147.569 76.4264 147.226 76.144 146.827C75.918 146.541 75.8051 145.856 74.9578 146.37C73.7715 147.055 72.3029 147.284 71.0037 147.74C69.4786 148.254 67.8969 148.311 66.3718 148.768C64.7902 149.224 62.9826 148.939 61.2315 149.339C59.4239 149.795 57.3904 149.167 55.5828 150.024C51.5723 149.795 47.6182 150.309 43.6642 150.595C41.6871 150.709 39.7101 150.709 37.7331 150.595C35.8125 150.48 33.9484 150.081 32.0279 150.081C28.5257 150.081 25.1365 149.681 21.7473 148.939C19.5443 148.425 17.2849 148.254 15.7597 146.313C15.5903 146.085 13.7262 146.541 13.6697 146.884C13.6133 147.398 13.7262 147.969 13.9522 148.425C14.0651 148.711 14.517 148.768 14.856 148.939C16.5506 149.967 18.5276 150.195 20.3916 150.652C22.8206 151.222 25.3625 151.108 27.8479 151.736C29.373 152.136 31.0111 151.736 32.6493 151.85C34.1744 151.965 35.6995 152.364 37.2247 152.364C43.4382 152.25 49.6517 152.65 55.8653 151.622ZM78.121 138.435C78.008 138.035 77.8951 137.807 77.8386 137.579C77.7256 137.807 77.4997 138.093 77.4997 138.321C77.4432 138.549 77.6126 138.835 77.6691 139.063C77.7821 138.835 77.9516 138.663 78.121 138.435Z" fill="white"/>
<path d="M9.15089 89.5689C8.24711 89.626 7.51278 88.8268 7.45629 87.685C7.39981 86.9429 8.58603 85.5157 9.26387 85.5728C10.0547 85.6299 11.4668 86.7717 11.4104 87.3425C11.3539 88.4272 10.2806 89.5118 9.15089 89.5689Z" fill="white"/>
<path d="M81.9056 88.4272C81.0018 88.4272 79.7026 87.2854 79.7026 86.4862C79.7026 85.687 80.7759 84.5453 81.5667 84.4311C82.4705 84.374 83.7132 85.5728 83.6567 86.5433C83.6002 87.1142 82.4705 88.3701 81.9056 88.4272Z" fill="white"/>
<path d="M83.0919 96.0197C83.0919 96.5905 81.7927 97.6752 81.2843 97.5039C80.4935 97.2185 80.2111 96.5905 80.2676 95.7342C80.3806 94.7067 80.8325 94.0787 81.6798 94.0787C82.64 94.0787 83.0919 94.7638 83.0919 96.0197Z" fill="white"/>
<path d="M9.37682 76.439C9.99818 76.3819 10.7325 77.2953 10.789 78.3229C10.8455 79.1221 10.3371 79.75 9.54628 79.8642C8.69898 79.9784 8.02115 79.3504 7.96466 78.3799C7.90817 77.124 8.36006 76.4961 9.37682 76.439Z" fill="white"/>
<path d="M83.0919 77.5807C83.0354 78.6653 82.5835 79.2362 81.7362 79.2933C80.776 79.3504 80.2676 78.7224 80.2676 77.4665C80.2676 77.0669 81.3408 75.9252 81.7362 75.9252C82.2446 75.9252 83.0919 77.0098 83.0919 77.5807Z" fill="white"/>
<path d="M8.02116 96.248C8.19062 95.6772 7.51278 94.6496 8.86846 94.7067C10.1677 94.7067 10.789 95.0492 10.8455 96.0197C10.902 96.9331 10.2806 97.5039 9.1509 97.561C8.02116 97.561 8.02116 97.561 8.02116 96.248Z" fill="white"/>
<path d="M14.2347 23.691C14.2347 24.0335 14.2347 24.4331 14.2347 24.7756C14.2347 24.8898 14.0652 24.9469 13.9522 25.061C13.8393 24.9469 13.6698 24.7756 13.6698 24.6614C13.6133 24.0906 13.6133 23.5768 13.6698 23.0059C13.6698 22.7776 13.8393 22.4921 13.8958 22.2638C14.0087 22.5492 14.1217 22.8347 14.2347 23.1201C14.2347 23.3484 14.2347 23.5197 14.2347 23.691Z" fill="white"/>
<path d="M76.8783 152.992C76.8783 153.163 76.9348 153.392 76.8783 153.563C76.8219 153.734 76.7089 153.848 76.5959 154.02C76.4829 153.848 76.37 153.734 76.3135 153.563C76.257 153.22 76.257 152.821 76.3135 152.421C76.37 152.193 76.4829 151.965 76.5959 151.679C76.7089 151.907 76.8219 152.136 76.8783 152.421C76.9348 152.65 76.8783 152.821 76.8783 152.992Z" fill="white"/>
<path d="M18.1887 152.878C19.262 153.163 18.5276 154.02 18.7536 154.591C18.5841 154.591 18.3582 154.591 18.1887 154.591C18.1887 154.02 18.1887 153.449 18.1887 152.878Z" fill="white"/>
<path d="M14.8559 20.3228C14.6865 20.6083 14.5735 20.8366 14.4605 21.065C14.3476 20.7224 14.2346 20.3799 14.1781 20.0945C14.1781 19.8661 14.3476 19.6378 14.4605 19.3524C14.63 19.6949 14.743 20.0374 14.8559 20.3228Z" fill="white"/>
<path d="M15.4209 18.1535C15.3079 18.3248 15.195 18.5532 15.082 18.7815C14.969 18.6102 14.7996 18.4961 14.7996 18.3248C14.7996 18.0965 14.969 17.8681 15.082 17.6398C15.1385 17.811 15.2515 17.9252 15.4209 18.1535Z" fill="white"/>
<path d="M67.8405 20.7795C67.7275 20.8366 67.6146 20.9508 67.4451 20.9508C67.3886 20.9508 67.3321 20.8366 67.2756 20.7795C67.3886 20.7225 67.5016 20.6083 67.671 20.6083C67.7275 20.6083 67.784 20.7225 67.8405 20.7795Z" fill="white"/>
<path d="M50.2731 19.0098C50.2166 19.124 50.1601 19.2382 50.0471 19.3524C49.9907 19.2953 49.8777 19.2382 49.8777 19.1811C49.9342 19.0669 49.9907 18.9528 50.0471 18.7815C50.1036 18.8386 50.2166 18.9528 50.2731 19.0098Z" fill="white"/>
<path d="M67.3885 16.3268C67.445 16.2126 67.5015 16.0984 67.6145 15.9843C67.671 16.0413 67.784 16.0984 67.784 16.1555C67.7275 16.2697 67.671 16.3839 67.6145 16.5551C67.5015 16.4409 67.445 16.3839 67.3885 16.3268Z" fill="white"/>
<path d="M64.5642 15.7559C64.6207 15.6417 64.6772 15.5276 64.7901 15.4134C64.8466 15.4705 64.9596 15.5276 64.9596 15.5847C64.9031 15.6988 64.8466 15.813 64.7901 15.9843C64.6772 15.8701 64.6207 15.813 64.5642 15.7559Z" fill="white"/>
<path d="M62.3048 15.7559C62.3613 15.6417 62.4178 15.5276 62.5308 15.4134C62.5872 15.4705 62.7002 15.5276 62.7002 15.5847C62.6437 15.6988 62.5872 15.813 62.5308 15.9843C62.4178 15.8701 62.3613 15.813 62.3048 15.7559Z" fill="white"/>
<path d="M32.7622 153.791C32.7057 153.848 32.6493 153.906 32.5363 154.02C32.4798 153.906 32.3668 153.791 32.3668 153.62C32.3668 153.563 32.4798 153.506 32.5363 153.449C32.6493 153.563 32.7057 153.677 32.7622 153.791Z" fill="white"/>
<path d="M72.4724 20.8937C72.5289 20.7796 72.5854 20.6654 72.6984 20.5512C72.7549 20.6083 72.8678 20.6654 72.8678 20.7225C72.8113 20.8366 72.7549 20.9508 72.6984 21.1221C72.5854 21.0079 72.5289 20.9508 72.4724 20.8937Z" fill="white"/>
<path d="M75.8051 155.504C75.8615 155.39 75.918 155.276 76.031 155.161C76.0875 155.218 76.2005 155.276 76.2005 155.333C76.144 155.447 76.0875 155.561 76.031 155.732C75.9745 155.675 75.918 155.618 75.8051 155.504Z" fill="white"/>
<path d="M26.3793 158.016C26.4358 158.13 26.5488 158.244 26.5488 158.415C26.5488 158.472 26.4358 158.53 26.3793 158.587C26.3228 158.472 26.2099 158.358 26.2099 158.187C26.1534 158.13 26.3228 158.073 26.3793 158.016Z" fill="white"/>
<path d="M33.4966 158.929C33.5531 158.815 33.6096 158.701 33.7225 158.587C33.779 158.644 33.892 158.701 33.892 158.758C33.8355 158.872 33.779 158.986 33.7225 159.158C33.6096 159.1 33.5531 158.986 33.4966 158.929Z" fill="white"/>
<path d="M18.1887 152.878C18.1887 153.449 18.1887 154.02 18.1887 154.591C17.3979 154.077 16.946 153.335 17.1155 152.478C17.2284 151.907 16.0987 151.508 16.833 151.222C17.9063 150.823 17.5109 151.907 17.6803 152.421C17.6803 152.593 17.9628 152.707 18.1887 152.878Z" fill="white"/>
<path d="M78.1211 138.435C77.9516 138.606 77.7822 138.835 77.6127 139.063C77.5562 138.835 77.3868 138.549 77.4433 138.321C77.4997 138.035 77.6692 137.807 77.7822 137.579C77.8951 137.807 78.0081 138.035 78.1211 138.435Z" fill="white"/>
<path d="M18.1887 154.591C18.3581 154.591 18.5841 154.591 18.7535 154.591C18.7535 154.762 18.81 154.99 18.7535 155.161C18.6971 155.333 18.5276 155.504 18.4146 155.675C18.3581 155.504 18.2452 155.333 18.2452 155.219C18.1322 154.933 18.1887 154.762 18.1887 154.591Z" fill="white"/>
<path d="M72.8678 17.9823C72.8113 18.0394 72.6983 18.1535 72.6983 18.1535C72.5853 18.0964 72.4723 17.9823 72.3594 17.9252C72.4159 17.8681 72.5288 17.7539 72.5853 17.6968C72.6983 17.7539 72.8113 17.8681 72.8678 17.9823Z" fill="white"/>
<path d="M19.8269 29C20.1093 29.1713 20.3352 29.2283 20.3917 29.3996C20.4482 29.5709 20.5047 29.7992 20.3917 29.9705C19.9398 30.6555 19.4314 31.2835 19.036 31.9685C18.1323 33.624 17.7368 35.4508 17.5674 37.3346C17.1155 42.872 18.9231 47.7815 21.5215 52.4626C23.2161 55.5453 25.3061 58.4567 27.848 60.9114C28.4128 61.4823 29.1472 61.8248 29.7685 62.3386C29.938 62.4528 29.8815 62.8524 29.8815 63.0807C29.5426 63.0807 29.0907 63.3091 28.9212 63.1378C25.9274 60.2835 23.1031 57.2579 20.8436 53.7185C19.4879 51.6063 18.9796 49.1516 17.6239 47.0965C17.172 46.4114 17.3414 45.3839 17.0025 44.5276C16.4941 43.2146 16.4941 41.6732 16.3812 40.2461C16.2682 38.8189 16.0987 37.3346 16.4377 35.9646C16.946 33.7382 17.285 31.3976 18.9796 29.628C19.3185 29.3425 19.6009 29.1713 19.8269 29Z" fill="white"/>
<path d="M67.2756 124.848C65.9199 125.02 65.1856 124.677 64.5077 124.563C63.8864 124.449 63.152 123.65 63.3215 122.622C63.3215 122.508 63.152 122.337 63.0956 122.165C62.9261 121.709 61.8529 121.537 62.5307 121.024C63.0391 120.567 63.4345 121.48 63.8299 121.766C64.9031 122.508 66.0329 123.193 67.1061 123.992C67.3885 124.163 67.5015 124.506 67.7275 124.791C67.3885 124.791 67.0496 124.906 67.2756 124.848Z" fill="white"/>
<path d="M65.581 58.7421C65.581 59.1988 65.6375 59.4272 65.581 59.5413C64.9596 60.2264 64.3948 61.0827 63.5475 61.4823C62.8131 61.8248 62.4742 62.1673 62.1353 62.9094C61.8529 63.4803 61.0621 63.7657 60.4407 64.1654C60.3277 64.2224 60.0453 64.1654 59.9323 64.0512C59.8758 63.937 59.9323 63.5374 59.9888 63.5374C61.0056 63.4803 60.6102 62.624 60.8361 62.1102C61.0621 61.6535 61.1185 61.0827 61.9658 60.9114C63.0956 60.626 64.0558 59.5984 65.0726 58.9134C65.2421 58.8563 65.4115 58.8563 65.581 58.7421Z" fill="white"/>
<path d="M32.3668 64.7933C32.4798 64.6792 32.5363 64.4508 32.6493 64.4508C34.4568 64.5079 36.1514 64.0512 37.846 63.3091C37.959 63.252 38.2979 63.3091 38.3544 63.4232C38.4674 63.6516 38.5803 63.9941 38.5239 64.1654C38.072 65.4784 37.6766 65.5355 36.2079 65.25C35.1347 65.0217 34.0049 65.0788 32.9317 65.0217C32.7057 64.9646 32.5363 64.8504 32.3668 64.7933Z" fill="white"/>
<path d="M39.3712 65.7067C39.3147 65.5925 39.2582 65.4213 39.1453 65.1929C39.4842 65.1358 39.8231 65.0217 40.162 65.0217C40.3315 65.0217 40.5009 65.25 40.6704 65.3642C40.3315 65.4784 39.9926 65.5354 39.3712 65.7067Z" fill="white"/>
<path d="M57.221 116.628C57.108 116.685 56.9385 116.742 56.7126 116.856C56.6561 116.685 56.4866 116.514 56.5431 116.4C56.5996 116.228 56.7691 116.057 56.882 115.886C56.995 116.057 57.0515 116.171 57.221 116.628Z" fill="white"/>
<path d="M42.0826 62.5669C41.5742 62.624 41.2917 62.6811 40.9528 62.6811C40.8963 62.6811 40.8963 62.4527 40.8398 62.3386C41.0658 62.2815 41.3482 62.2244 41.5742 62.2244C41.6871 62.1673 41.8001 62.3386 42.0826 62.5669Z" fill="white"/>
<path d="M39.3712 62.624C39.8231 62.7953 39.9361 62.8524 40.1055 62.9095C39.9361 63.0236 39.8231 63.1949 39.5972 63.252C39.4842 63.3091 39.3147 63.1378 39.1453 63.0807C39.2582 62.9095 39.3147 62.6811 39.3712 62.624Z" fill="white"/>
<path d="M53.2669 111.547C53.0974 112.004 53.0409 112.118 52.9844 112.289C52.8715 112.118 52.702 112.004 52.6455 111.776C52.589 111.661 52.7585 111.49 52.815 111.319C52.9844 111.376 53.2104 111.49 53.2669 111.547Z" fill="white"/>
<path d="M56.0912 69.2461C55.9782 69.3032 55.8088 69.3603 55.5828 69.4744C55.5263 69.3032 55.3569 69.1319 55.4133 69.0177C55.4698 68.8465 55.6393 68.6752 55.7523 68.504C55.8652 68.6752 55.9217 68.8465 56.0912 69.2461Z" fill="white"/>
<path d="M54.792 70.5019C54.7355 70.559 54.679 70.6161 54.5661 70.7303C54.5096 70.6161 54.3966 70.5019 54.3966 70.3307C54.3966 70.2736 54.5096 70.2165 54.5661 70.1594C54.6226 70.2736 54.7355 70.3878 54.792 70.5019Z" fill="white"/>
<path d="M43.7772 65.4783C43.7207 65.4212 43.6642 65.3642 43.5513 65.25C43.6642 65.1929 43.7772 65.0787 43.9467 65.0787C44.0032 65.0787 44.0597 65.1929 44.1161 65.25C44.0032 65.3642 43.8902 65.4212 43.7772 65.4783Z" fill="white"/>
<path d="M42.5344 65.3642C42.5909 65.25 42.6474 65.1358 42.7604 65.0217C42.8169 65.0788 42.9298 65.1358 42.9298 65.1929C42.8733 65.3071 42.8169 65.4213 42.7604 65.5925C42.6474 65.5354 42.5909 65.4784 42.5344 65.3642Z" fill="white"/>
<path d="M41.8001 65.3642C41.7436 65.4213 41.6871 65.4784 41.5741 65.5925C41.5176 65.4784 41.4047 65.3642 41.4047 65.1929C41.4047 65.1358 41.5176 65.0788 41.5741 65.0217C41.6871 65.1358 41.7436 65.25 41.8001 65.3642Z" fill="white"/>
<path d="M49.3129 64.622C49.3694 64.5649 49.4258 64.5079 49.5388 64.3937C49.5953 64.5079 49.7083 64.622 49.7083 64.7933C49.7083 64.8504 49.5953 64.9075 49.5388 64.9645C49.4258 64.9075 49.3694 64.7362 49.3129 64.622Z" fill="white"/>
<path d="M65.9199 58.2283C65.9764 58.2854 66.0893 58.3996 66.0893 58.3996C66.0329 58.5138 65.9199 58.6279 65.8634 58.7421C65.8069 58.685 65.6939 58.5709 65.6375 58.5138C65.6939 58.3996 65.8069 58.2854 65.9199 58.2283Z" fill="white"/>
<path d="M59.0286 118.569C58.9721 118.512 58.9156 118.455 58.8026 118.341C58.9156 118.283 59.0286 118.169 59.198 118.169C59.2545 118.169 59.311 118.283 59.3675 118.341C59.2545 118.398 59.1415 118.512 59.0286 118.569Z" fill="white"/>
<path d="M34.9087 119.14C34.7958 119.083 34.6828 119.026 34.5698 118.911C34.6263 118.854 34.6828 118.74 34.7393 118.74C34.8523 118.797 34.9652 118.854 35.1347 118.911C35.0217 118.969 34.9652 119.026 34.9087 119.14Z" fill="white"/>
<path d="M60.0453 119.596C60.1018 119.482 60.1583 119.368 60.2712 119.254C60.3277 119.311 60.4407 119.368 60.4407 119.425C60.3842 119.539 60.3277 119.654 60.2712 119.825C60.1583 119.711 60.1018 119.654 60.0453 119.596Z" fill="white"/>
<path d="M59.3109 119.996C59.2544 120.11 59.198 120.224 59.085 120.339C59.0285 120.282 58.9155 120.224 58.9155 120.167C58.972 120.053 59.0285 119.939 59.085 119.768C59.1415 119.825 59.198 119.882 59.3109 119.996Z" fill="white"/>
<path d="M61.5705 120.738C61.514 120.795 61.4575 120.852 61.3445 120.967C61.288 120.852 61.175 120.738 61.175 120.567C61.175 120.51 61.288 120.453 61.3445 120.396C61.401 120.453 61.514 120.624 61.5705 120.738Z" fill="white"/>
<path d="M63.265 124.734C63.2085 124.791 63.1521 124.848 63.0391 124.963C62.9826 124.848 62.8696 124.734 62.8696 124.563C62.8696 124.506 62.9826 124.449 63.0391 124.392C63.0956 124.449 63.2085 124.563 63.265 124.734Z" fill="white"/>
<path d="M56.6561 125.876C56.7126 125.762 56.7691 125.648 56.8821 125.533C56.9386 125.591 57.0515 125.648 57.0515 125.705C56.995 125.819 56.9386 125.933 56.8821 126.104C56.7691 125.99 56.7126 125.933 56.6561 125.876Z" fill="white"/>
<path d="M54.6791 128.274C54.5662 128.217 54.4532 128.159 54.3402 128.045C54.3967 127.988 54.4532 127.874 54.5097 127.874C54.6226 127.931 54.7356 127.988 54.9051 128.045C54.7921 128.102 54.7356 128.159 54.6791 128.274Z" fill="white"/>
<path d="M41.2918 64.1653C41.1788 64.2224 41.0658 64.3366 40.8964 64.3366C40.8399 64.3366 40.7834 64.2224 40.7269 64.1653C40.8399 64.1083 40.9529 63.9941 41.1223 63.9941C41.1788 63.9941 41.2353 64.1083 41.2918 64.1653Z" fill="white"/>
<path d="M42.1955 61.6536C42.252 61.7107 42.365 61.8248 42.365 61.8248C42.3085 61.939 42.1955 62.0532 42.139 62.1673C42.0825 62.1103 41.9696 61.9961 41.9131 61.939C41.9696 61.8248 42.0825 61.7107 42.1955 61.6536Z" fill="white"/>
<path d="M43.0994 61.1969C43.1559 61.1398 43.2123 61.0827 43.3253 60.9685C43.3818 61.0827 43.4948 61.1969 43.4948 61.3681C43.4948 61.4252 43.3818 61.4823 43.3253 61.5394C43.2123 61.4823 43.1559 61.3681 43.0994 61.1969Z" fill="white"/>
<path d="M46.3755 59.5984C46.2626 59.6555 46.1496 59.7697 45.9801 59.7697C45.9236 59.7697 45.8672 59.6555 45.8107 59.5984C45.9236 59.5414 46.0366 59.4272 46.2061 59.4272C46.2626 59.4272 46.319 59.5414 46.3755 59.5984Z" fill="white"/>
<path d="M4.68835 164.638C4.74484 164.524 4.80133 164.409 4.9143 164.295C4.97079 164.352 5.08376 164.409 5.08376 164.467C5.02727 164.581 4.97079 164.695 4.9143 164.866C4.85781 164.809 4.80133 164.695 4.68835 164.638Z" fill="white"/>
<path d="M15.9857 168.634C16.0422 168.52 16.0987 168.405 16.2117 168.291C16.2682 168.348 16.3811 168.406 16.3811 168.463C16.3246 168.577 16.2682 168.691 16.2117 168.862C16.1552 168.748 16.0987 168.691 15.9857 168.634Z" fill="white"/>
<path d="M79.9286 6.73622C79.8721 6.67913 79.8156 6.62204 79.7026 6.50787C79.8156 6.45078 79.9286 6.33661 80.098 6.33661C80.1545 6.33661 80.211 6.45078 80.2675 6.50787C80.1545 6.62204 80.0416 6.67913 79.9286 6.73622Z" fill="white"/>
<path d="M74.6753 6.62206C74.7318 6.50789 74.7883 6.39371 74.9012 6.27954C74.9577 6.33663 75.0707 6.39371 75.0707 6.4508C75.0142 6.56497 74.9577 6.67915 74.9012 6.85041C74.8448 6.73623 74.7883 6.67915 74.6753 6.62206Z" fill="white"/>
</g>
<defs>
<clipPath id="clip0_266_4262">
<rect width="91" height="174" fill="white"/>
</clipPath>
</defs>
</svg>
