<svg width="174" height="173" viewBox="0 0 174 173" fill="none" xmlns="http://www.w3.org/2000/svg">
<g clip-path="url(#clip0_262_2548)">
<path d="M104.632 119.865C104.865 121.845 104.341 123.126 105.157 124.465C105.739 125.397 104.749 126.911 105.797 127.959C105.39 129.706 106.321 131.279 106.438 132.967C106.554 134.714 107.02 136.403 107.312 138.092C107.37 138.441 107.486 138.966 107.37 139.024C107.079 139.198 106.554 139.315 106.321 139.14C104.691 138.092 102.71 137.976 100.963 137.335C99.6818 136.811 98.3422 136.694 97.0609 136.287C95.7796 135.879 95.4301 135.763 95.4301 134.481C95.4301 133.142 95.4301 131.744 95.4301 130.405C95.4301 124.582 95.4301 118.758 95.4301 112.935C95.4301 112.469 95.4301 111.945 95.4301 111.479C95.4301 111.421 95.3136 111.246 95.2554 111.304C95.1389 111.362 94.9059 111.421 94.9059 111.537C94.8477 111.828 94.9059 112.119 94.9059 112.411C94.9059 114.915 94.7895 117.477 94.9642 119.981C95.3136 124.989 94.1488 129.881 94.3818 134.889C94.3818 135.53 94.1488 135.821 93.5664 135.704C92.4015 135.471 91.0619 136.287 90.0136 135.122C87.8586 135.471 85.6454 134.423 83.5487 135.646C83.4322 135.704 82.7333 135.297 82.7915 135.18C83.0245 132.734 82.1508 130.23 83.2575 127.843C83.4904 127.26 83.3157 126.503 83.3157 125.863C83.3157 123.417 82.9662 120.913 83.4322 118.642C83.8399 116.545 83.7816 114.507 83.8981 112.469C83.8981 112.178 83.8981 111.887 83.8981 111.595C83.8981 111.537 83.7234 111.362 83.7234 111.421C83.6069 111.479 83.4322 111.595 83.3739 111.654C83.3157 111.712 83.3739 111.828 83.3739 111.945C83.1992 115.381 83.2574 118.816 82.7333 122.136C82.3256 124.815 82.3838 127.435 82.2091 130.056C82.1508 131.22 81.4519 132.327 81.6267 133.608C81.7431 134.249 81.7431 135.006 81.4519 135.53C81.2772 135.821 80.2288 135.471 79.8794 135.763C78.5398 136.927 76.6178 135.646 75.3947 136.869C71.609 137.393 68.1144 138.907 64.7363 140.654C64.0957 141.004 63.455 141.295 62.7561 141.47C61.9989 141.703 61.766 141.295 61.9407 140.538C62.5231 138.558 63.1056 136.52 63.5715 134.54C64.4451 131.104 65.2023 127.668 66.0759 124.232C66.5419 122.427 67.1243 120.738 67.066 118.816C67.2408 118.583 67.5902 118.409 67.6485 118.118C67.7067 117.593 67.6485 117.011 67.9979 116.138C68.2309 115.439 68.1144 115.089 67.9979 114.798C67.8814 114.973 67.6485 115.206 67.7067 115.381C67.7067 115.73 67.8814 116.138 67.9397 116.487C68.0562 116.254 68.1726 116.021 67.9979 116.138C67.4737 116.72 67.1243 116.895 67.1243 117.186C67.066 117.71 67.1243 118.292 67.1243 118.816C66.0177 119.224 66.8913 120.622 65.9594 121.088C65.377 126.154 63.3385 130.871 62.3484 135.879C61.9407 137.859 61.1253 139.839 60.6594 141.877C60.5429 142.401 60.1934 142.984 59.7857 143.217C57.2231 144.789 55.2428 147.002 52.7384 148.632C51.923 149.157 51.3988 150.205 50.7582 150.962C50.5252 151.253 50.2922 151.602 50.001 151.777C49.8263 151.894 49.4186 151.952 49.2438 151.835C49.0691 151.719 48.9526 151.253 49.0109 151.078C50.1175 149.448 50.1175 147.468 50.6999 145.662C51.1659 144.323 51.4571 142.867 51.8648 141.528C52.2725 140.13 52.8549 138.849 53.0879 137.393C53.3208 135.996 53.845 134.598 54.2527 133.259C55.0681 130.696 55.6505 128.017 56.5824 125.513C57.2231 123.825 57.7472 122.078 58.1549 120.389C58.5044 118.7 59.0868 117.011 59.5528 115.381C60.4846 112.119 61.533 108.858 62.4649 105.539C63.222 103.035 63.8627 100.531 64.6781 98.0267C65.144 96.4544 65.4353 94.8238 66.0759 93.368C66.7166 91.8539 67.0078 90.2233 67.4155 88.7092C68.0562 86.4381 69.687 85.5646 71.2595 84.5746C72.1331 84.0505 73.3562 83.934 74.4628 83.8758C77.6662 83.8175 80.8695 83.0023 84.1311 83.2352C87.3344 83.4681 90.5378 83.1187 93.7411 83.3517C96.3038 83.5264 98.8082 84.0505 101.313 84.7493C103.759 85.4481 104.225 85.6228 104.865 86.6128C105.623 87.7192 106.438 88.7675 106.787 90.1651C107.486 92.8439 108.709 95.4062 109.467 98.085C110.573 101.987 111.913 105.83 113.019 109.732C113.718 112.119 114.65 114.507 115.291 116.895C116.397 120.796 117.737 124.64 118.844 128.542C120.125 133.142 121.814 137.568 123.154 142.168C124.144 145.43 125.017 148.749 126.357 151.894C126.415 152.068 126.357 152.301 126.357 152.476C126.357 152.651 126.299 152.825 126.299 153C126.066 152.942 125.833 152.942 125.716 152.767C124.493 151.544 123.27 150.263 121.989 149.098C120.3 147.526 118.611 146.07 116.922 144.556C115.582 144.556 115.582 143.275 115.466 142.634C114.825 139.548 113.66 136.578 113.078 133.433C113.019 133.259 112.845 133.084 112.67 132.967C112.612 133.142 112.495 133.317 112.495 133.491C112.786 135.006 113.019 136.578 113.311 138.092C113.602 139.431 113.951 140.771 114.184 142.11C114.242 142.285 114.009 142.634 113.835 142.809C113.718 142.925 113.427 142.867 113.311 142.751C112.67 142.343 112.087 141.877 111.505 141.528C110.748 141.062 109.7 140.887 109.175 140.247C108.593 139.606 109.001 138.558 108.535 137.626C108.069 136.753 108.418 135.53 107.894 134.423C107.428 133.375 107.428 132.094 107.253 130.929C107.079 129.823 106.787 128.774 106.671 127.668C106.554 126.445 106.205 125.28 105.914 124.174C105.681 123.068 105.681 121.961 105.39 120.913C105.098 120.622 104.807 120.622 104.632 119.865C104.632 118.991 104.691 118.758 104.632 118.583C104.574 118.292 104.399 118.001 104.283 117.71C104.225 117.943 104.05 118.176 104.05 118.467C103.992 119.049 103.992 119.573 104.05 120.156C104.05 120.33 104.225 120.447 104.341 120.563C104.458 120.447 104.574 120.389 104.632 120.272C104.691 119.865 104.632 119.515 104.632 119.865ZM104.05 116.021C104.05 115.846 104.108 115.614 104.05 115.439C103.992 115.206 103.875 114.973 103.759 114.682C103.642 114.915 103.526 115.148 103.468 115.439C103.409 115.788 103.409 116.196 103.468 116.604C103.468 116.778 103.642 116.895 103.759 117.069C103.875 116.895 103.992 116.778 104.05 116.604C104.108 116.429 104.05 116.196 104.05 116.021ZM67.8814 113.168C67.9979 113.575 68.1144 113.808 68.1726 114.041C68.2891 113.808 68.5221 113.517 68.5221 113.284C68.5803 113.051 68.4056 112.76 68.3474 112.527C68.2309 112.702 68.0562 112.935 67.8814 113.168ZM69.454 108.334C69.3957 108.392 69.2793 108.451 69.2793 108.509C69.3375 108.625 69.3957 108.742 69.454 108.917C69.5122 108.858 69.6287 108.8 69.6287 108.742C69.5705 108.567 69.5122 108.451 69.454 108.334ZM68.9298 111.129C68.988 111.071 69.0463 111.013 69.1628 110.897C69.0463 110.838 68.9298 110.722 68.7551 110.722C68.6968 110.722 68.6386 110.838 68.5803 110.897C68.6968 111.013 68.8133 111.071 68.9298 111.129Z" fill="white"/>
<path d="M80.8696 47.9451C71.7837 47.1298 74.0552 46.7804 76.2684 46.664C78.5981 46.5475 80.9278 46.664 83.2575 46.6057C85.296 46.5475 87.3345 46.7804 89.1982 47.7122C89.6059 47.8869 90.5378 48.1198 90.596 47.3628C90.7125 46.1399 91.8774 46.4893 92.0521 46.664C92.6928 47.3628 93.4499 47.1881 94.2071 47.1881C95.0807 47.1881 95.9544 47.1881 96.828 47.1881C101.196 47.3628 105.623 47.3628 109.933 47.8869C111.913 48.1198 113.893 48.1781 115.815 48.411C118.669 48.8186 121.465 49.5175 124.377 49.5175C125.658 50.7986 127.405 49.6922 128.92 50.5657C130.201 51.2645 132.065 50.8568 133.521 51.3227C136.142 52.0798 138.821 52.4874 141.383 53.3027C144.121 54.1762 146.858 54.9915 149.596 55.9232C150.528 56.2144 151.401 56.6803 152.333 57.0879C156.061 58.5438 159.497 60.582 162.758 62.9114C164.739 64.309 166.719 65.7649 168.35 67.6284C168.466 67.7448 168.466 67.9195 168.466 68.036C168.292 68.0942 168.117 68.2107 167.942 68.1525C167.534 67.9778 167.068 67.8613 166.719 67.5701C164.448 65.5901 161.594 65.0078 158.856 64.0761C155.769 63.0861 152.624 62.2126 149.363 61.6302C147.907 61.3973 146.334 61.1061 144.878 60.6402C143.422 60.1744 141.675 60.4655 140.219 59.9414C138.821 59.4173 137.365 59.7667 136.083 59.3591C134.802 58.8932 133.521 59.0679 132.239 58.835C130.026 58.4273 127.813 57.9032 125.716 57.0297C121.406 55.1662 116.863 54.0015 112.437 52.6621C109.874 51.9051 107.137 51.3227 104.516 50.7404C101.837 50.158 99.1577 49.6339 96.595 48.7604C95.4302 48.3528 94.3818 48.5857 93.2752 48.411C93.217 48.411 93.1005 48.5857 92.984 48.7022C93.1587 48.8186 93.2752 48.9933 93.4499 48.9933C95.2554 48.9933 96.828 49.8086 98.517 50.158C101.138 50.7404 103.817 51.381 106.38 52.1962C108.709 52.8951 111.039 53.6521 113.427 54.1762C114.883 54.4674 116.164 55.0497 117.562 55.3991C120.183 56.0397 122.746 56.9132 125.309 57.7285C125.658 57.845 125.949 58.0197 126.299 58.1944C126.473 58.3109 126.59 58.4856 126.706 58.602C126.59 58.7185 126.473 58.8932 126.299 58.8932C125.833 58.9514 125.309 59.0097 124.843 58.8932C121.465 57.7867 118.028 58.602 114.592 58.3109C112.262 58.1361 109.933 57.845 107.545 57.7285C105.098 57.612 102.71 57.7285 100.264 57.7285C97.8181 57.7285 95.3137 58.1361 92.984 57.612C89.8389 56.9715 86.752 57.2044 83.6069 57.1462C80.5201 57.0879 77.375 57.2044 74.2882 57.0879C72.3662 57.0297 70.6189 57.9614 68.6969 57.7285C66.8914 57.5538 65.0276 57.6703 63.1638 57.6703C61.2418 57.6703 59.2034 57.3209 57.3396 57.7285C54.6022 58.3691 51.8066 57.7867 49.1274 58.3109C46.9724 58.7185 44.8175 58.5438 42.6625 58.835C39.6339 59.3008 36.6053 59.8249 33.5184 59.9414C32.1206 61.1061 30.3151 60.2326 28.7426 60.9896C27.403 61.6302 25.5392 61.1643 24.0832 61.7467C21.8117 62.6202 19.3655 63.0278 17.0358 63.6684C13.0171 64.7749 9.28957 66.5219 5.56205 68.2689C5.38733 68.3272 5.15436 68.3272 4.92139 68.3854C4.97963 68.0942 4.92139 67.7448 5.09611 67.6284C7.01812 65.9978 8.88187 64.309 10.9786 62.9114C13.483 61.2808 15.9292 59.6502 18.7831 58.5438C21.5205 57.4956 24.1996 56.2144 26.9953 55.1662C29.4997 54.1762 32.1789 53.6521 34.6833 52.6621C36.4888 51.9051 38.5273 51.6721 40.5075 51.2063C43.7109 50.4492 47.0307 49.9833 50.234 49.3428C51.6318 49.0516 53.0879 49.2263 54.3692 48.7604C55.7671 48.2363 57.1649 48.411 58.5045 48.2363C59.7858 48.0616 61.0089 47.5375 62.3485 47.654C63.6298 47.7704 64.9111 47.7122 66.1925 47.1881C67.1243 46.8387 68.2892 47.1298 69.3375 47.1298C69.5705 47.2463 69.5705 47.3045 80.8696 47.9451C92.5181 48.411 92.751 48.2363 93.0422 48.1198C92.8093 48.0034 92.5763 47.8287 92.3433 47.8287C91.9939 47.8287 91.6444 47.9451 91.3532 48.0616C91.5862 48.1781 91.8774 48.3528 80.8696 47.9451Z" fill="white"/>
<path d="M87.3927 25.1173C88.441 25.1173 89.5476 25.292 90.596 25.059C92.3433 24.7679 93.9741 25.4667 95.6049 25.7578C97.1192 26.049 98.6917 26.4567 100.264 27.1555C103.118 28.4366 106.03 29.6013 108.709 31.4066C113.485 34.7259 117.446 38.7441 120.3 43.7523C120.766 44.6258 121.232 45.4993 121.756 46.3728C121.93 46.6058 122.513 46.8387 121.93 47.1881C121.581 47.421 121.115 47.7122 120.766 47.654C120.241 47.654 119.717 47.1299 119.251 47.1881C117.795 47.3628 116.514 46.7222 115.116 46.5475C113.835 46.3728 112.437 46.8969 111.272 45.9652C111.214 45.9069 111.097 45.9652 110.981 45.9652C107.894 46.4311 104.982 45.2664 101.895 45.3246C98.9829 45.3828 96.0708 44.917 93.1004 44.8005C90.0136 44.684 86.9267 44.8005 83.7816 44.8005C80.753 44.8005 77.7827 44.684 74.7541 44.8005C70.7353 44.9752 66.7748 45.6158 62.7561 45.3828C60.4847 46.2563 58.0967 45.9069 55.7088 45.9652C55.4176 45.9652 55.0681 45.9069 54.8934 46.0234C54.4274 46.3728 53.9615 46.9552 53.4956 46.1981C53.2626 45.7905 53.5538 45.2081 53.7868 44.6258C54.8351 42.1217 56.5242 40.0253 58.2132 38.0453C60.2517 35.6577 62.5814 33.3865 65.1441 31.6978C68.2891 29.6595 71.609 27.8543 75.2782 26.6314C79.2387 25.5249 83.1992 24.8261 87.3927 25.1173ZM77.0255 41.4229C79.064 41.4229 81.219 41.0153 83.0827 41.5394C85.0047 42.0635 86.8103 41.8305 88.674 42.0052C88.9652 42.0052 89.2564 41.7141 89.4894 41.4811C89.5476 41.4229 89.3147 41.0153 89.1399 40.8405C85.4124 37.8124 84.8883 34.2018 87.6256 30.2419C88.4993 28.9607 89.9553 28.2619 91.5861 28.6113C92.518 28.8443 93.3917 29.4266 94.2071 30.009C95.2554 30.8242 95.9543 31.8725 96.0126 33.3283C96.0708 35.5995 95.4884 37.6959 94.0323 39.5012C93.6829 39.9088 93.4499 40.4329 93.2169 40.8988C92.8675 41.5976 93.1004 41.8888 93.9158 41.8888C96.2455 42.0635 98.5752 41.8888 100.963 42.3546C103.584 42.8788 106.38 42.5293 109.175 42.9952C111.33 43.3446 113.544 43.4611 115.64 44.2181C116.048 44.3928 116.63 44.2764 117.096 44.2181C117.155 44.2181 117.329 43.8105 117.271 43.7523C116.922 43.1117 116.514 42.4711 116.048 41.947C114.65 40.4911 113.136 39.0935 111.738 37.5794C109.234 34.9006 106.089 33.2118 102.943 31.4066C99.5654 29.4848 95.8378 28.7278 92.1103 28.029C89.7806 27.6213 87.2762 27.9707 84.83 27.9125C83.8981 27.9125 83.4322 28.2619 83.141 29.0772C82.7333 30.1837 82.6168 31.4648 81.8596 32.3383C80.2289 34.2018 79.2387 36.473 77.0838 37.9288C75.3365 39.1518 73.531 40.0835 71.5507 40.7823C71.376 40.8405 71.2013 41.0153 71.0265 41.1317C71.2013 41.19 71.376 41.3064 71.5507 41.3064C73.298 41.4229 75.1618 41.4229 77.0255 41.4229Z" fill="white"/>
<path d="M119.31 64.7749C117.446 64.542 115.582 64.2508 113.718 64.1343C111.855 64.0178 109.933 64.4837 108.185 64.0178C104.865 63.2026 101.546 63.6102 98.2259 63.552C94.8478 63.4355 91.4115 63.552 88.0334 63.552C86.2861 63.552 84.5389 63.4937 82.7916 63.552C80.8114 63.6684 78.8893 64.0178 76.9091 64.0761C74.9871 64.1926 72.9486 63.7267 71.1431 64.1926C68.9299 64.7749 66.8332 64.6002 64.6782 64.6584C63.3386 64.7167 62.232 65.4737 60.8342 65.299C59.6111 65.1825 58.155 64.7749 56.9902 65.8231C56.8737 65.9396 56.6407 65.8231 56.4078 65.8231C53.8451 65.9978 51.3407 66.1725 48.778 66.4055C47.6714 66.5219 46.623 66.8131 45.5164 66.9878C44.5263 67.1625 43.4197 66.5219 42.5461 67.5701C42.4296 67.6866 41.9636 67.5701 41.6724 67.5701C40.4493 67.5701 39.2845 67.5701 38.1196 68.0943C37.1295 68.5019 35.8482 67.8031 34.9163 68.7348C33.169 68.3272 31.5965 69.3172 29.9074 69.3754C29.0338 69.3754 28.1019 69.7248 27.2283 69.8995C27.0536 69.9578 26.8788 69.7831 26.7041 69.7831C26.8206 69.6666 26.9953 69.4919 27.1118 69.3754C27.9854 68.3854 29.325 68.7348 30.4316 68.3272C32.5283 67.5701 34.9745 67.6284 37.1877 66.9878C39.5757 66.289 42.0219 66.2308 44.3516 65.3572C45.5747 64.8914 47.089 64.8331 48.4285 64.7749C51.8066 64.6584 55.0099 63.2608 58.4462 63.4937C59.8441 62.6202 61.5331 63.3773 62.8144 62.7949C64.2705 62.1544 65.6683 62.7367 66.9496 62.2708C68.9299 61.5138 70.9684 62.1544 72.8321 61.6302C74.8124 61.1061 76.8509 61.5138 78.7146 61.0479C82.2092 60.2326 85.8202 61.0479 89.2565 60.4073C92.984 59.7667 96.6533 60.0579 100.381 59.9414C104.167 59.825 107.952 59.9414 111.738 59.8832C113.602 59.8832 115.349 60.7567 117.329 60.5238C119.135 60.2908 121.115 60.1161 122.804 60.582C124.901 61.1061 126.939 61.0479 128.978 61.0479C130.084 61.0479 131.016 61.9214 132.239 61.6885C133.23 61.5138 134.22 61.7467 135.21 62.0961C136.666 62.562 138.297 62.2708 139.927 62.7367C141.616 63.2026 143.48 63.0279 145.169 63.4355C146.742 63.7849 148.373 64.0761 149.945 64.4255C151.11 64.6584 152.275 65.299 153.44 65.0661C154.721 64.8914 155.828 65.4737 156.992 65.7649C161.244 66.8131 165.496 68.2107 169.282 70.4236C170.796 71.2971 172.077 72.8112 173.126 74.2671C174.232 75.8977 174.174 77.8776 173.009 79.45C172.194 80.5564 171.087 81.4299 169.864 82.2452C166.137 84.5164 162.176 86.0887 158.099 87.5445C156.643 88.0686 155.07 87.9522 153.731 88.9422C153.323 89.2333 152.45 88.8839 151.809 88.7675C152.275 88.4763 152.741 87.9522 153.265 87.8357C155.362 87.3116 157.342 86.3799 159.264 85.5063C161.477 84.4581 163.399 83.0023 165.03 81.197C166.603 79.45 166.544 78.1688 164.972 76.4218C163.807 75.1989 161.361 73.9177 158.973 72.6365C157.051 71.6466 155.129 70.7148 152.974 70.1907C151.809 69.8995 150.761 69.4919 149.596 69.2007C148.314 68.9095 146.8 69.2007 145.81 68.5019C144.587 67.6284 143.189 68.5601 142.082 67.5701C141.616 67.1625 140.568 67.5119 139.811 67.3954C139.112 67.279 138.413 66.9296 137.714 66.8713C134.453 66.4637 131.249 65.9396 128.046 65.5902C125.25 65.4155 122.28 65.0661 119.31 64.7749Z" fill="white"/>
<path d="M53.3791 59.9414C57.3396 60.2326 60.3682 59.1261 63.5715 59.3591C66.7748 59.592 70.0364 59.8249 73.1233 59.3008C76.6761 58.7185 80.1706 59.0097 83.6652 58.835C83.8399 58.835 84.0146 59.0679 84.1893 59.1844C84.0729 59.3008 83.9564 59.4755 83.7816 59.592C83.4904 59.7667 83.141 59.9414 82.7915 59.9414C81.7432 59.9996 80.6366 59.8832 79.5882 59.9996C78.1321 60.1161 76.6178 60.3491 75.1618 60.582C73.7639 60.7567 72.3079 60.0579 71.0265 61.1643C70.9683 61.2226 70.8518 61.1643 70.7353 61.1643C68.0562 60.6985 65.4935 61.9214 62.8144 61.8049C61.6495 61.7467 60.4264 62.1543 59.2616 62.329C58.155 62.562 56.9319 61.8049 56 62.8531C55.8253 63.0278 55.2428 62.8531 54.8934 62.9114C53.2043 63.0861 51.5736 63.3772 49.8845 63.4355C48.312 63.4937 46.8559 64.4837 45.1669 64.0178C43.8856 65.299 42.1383 64.2508 40.624 65.066C39.4591 65.7649 37.7119 65.4154 36.2558 65.7649C33.3437 66.5219 30.4315 67.046 27.5194 67.8613C25.248 68.5019 22.9765 69.026 20.7051 69.783C16.7446 71.1224 11.9687 73.4518 9.46426 75.6065C8.24117 76.6547 8.12469 79.5082 9.2313 80.6729C10.7456 82.3617 12.6094 83.5846 14.5314 84.8075C16.9193 86.3216 19.5402 87.3116 22.0446 88.418C22.2194 88.4763 22.3358 88.5927 22.5106 88.7092C22.2776 88.8257 21.9864 89.0586 21.7534 89.0004C19.482 88.3598 17.2105 87.7775 14.9973 87.0204C11.6192 85.8557 8.29942 84.3999 5.15432 82.5946C2.53341 81.0805 2.59166 81.0805 1.31032 78.6929C0.669654 77.47 0.786139 76.1888 1.01911 75.0824C1.25208 74.0341 2.12572 72.8695 2.99935 72.1706C5.21257 70.3654 13.3665 66.4054 16.3369 65.8231C17.6182 65.5902 18.7831 65.1825 20.0644 64.8913C21.2875 64.6002 22.5106 64.2508 23.7337 63.9596C25.0732 63.6684 26.4711 63.4937 27.6942 63.0278C29.0337 62.5037 30.3733 62.9114 31.7711 62.329C33.4019 61.6302 35.4404 61.8632 37.3042 61.6302C38.469 61.4555 39.6921 61.2226 40.8569 61.0479C42.0218 60.8732 43.3614 61.4555 44.4097 60.4655C44.468 60.4073 44.5845 60.4655 44.701 60.4655C47.9625 61.0479 51.0494 59.7085 53.3791 59.9414Z" fill="white"/>
<path d="M87.2181 78.0523C89.3731 78.0523 90.9456 77.9941 92.5181 78.0523C95.372 78.1688 98.2259 78.1106 100.963 78.6929C103.934 79.3335 107.079 79.6247 109.641 81.5464C110.166 81.8958 110.748 82.187 111.214 82.6529C111.855 83.2934 111.796 84.5164 111.214 85.2152C111.097 85.3899 110.923 85.5063 110.806 85.6228C110.107 86.2052 109.35 86.7875 108.651 87.4281C107.545 86.7293 108.302 85.681 108.185 84.8658C108.127 84.1087 107.719 83.4681 107.079 83.4099C104.691 83.177 102.419 82.2452 100.031 82.187C98.7501 82.187 97.4688 81.7793 96.1874 81.6629C94.9643 81.5464 93.5083 82.0123 92.4599 81.5464C90.1302 80.6147 87.684 80.8476 85.4126 81.1388C83.2576 81.4299 81.0444 81.2552 78.9477 81.6629C75.5696 82.3617 71.9586 82.1287 68.8717 83.8758C68.697 83.934 68.464 83.8758 68.2893 83.8758C66.0761 84.2252 65.8431 84.6911 66.542 86.8457C66.6585 87.1369 66.6003 87.4863 66.6003 87.8357C66.2508 87.7775 65.6684 87.7775 65.6684 87.661C65.4354 86.671 64.2123 87.1369 63.8046 86.1469C62.6398 83.4681 63.2804 82.1287 65.7849 81.0223C69.3959 79.45 73.2981 78.9841 77.2586 78.5182C80.8697 78.0523 84.3642 78.3435 87.2181 78.0523Z" fill="white"/>
<path d="M61.5331 92.0286C60.8342 91.9121 59.4364 91.6792 58.0968 91.4462C56.8155 91.2133 55.4176 91.9121 54.2528 90.8639C54.0198 90.6892 53.4956 90.8639 53.0879 90.8057C50.7582 90.631 48.3703 90.631 46.0406 90.1651C43.4779 89.641 40.9735 89.2916 38.3526 89.0586C37.1295 87.7775 35.324 88.8839 33.8097 88.0104C32.5283 87.3116 30.7228 87.4863 29.1503 87.3116C28.9756 87.3116 28.7426 87.3116 28.5679 87.2534C26.7041 86.2052 24.6074 86.0887 22.6271 85.3899C21.6953 85.0405 20.9381 84.2252 19.8315 84.3999C19.1326 83.177 17.56 82.8858 16.9776 81.5464C16.6282 80.7893 16.6282 80.2652 17.0941 79.5082C17.793 78.4017 18.8996 77.7612 19.7732 76.8876C19.8897 76.7712 20.2974 76.8876 20.5304 76.8876C20.4139 77.1206 20.2974 77.2953 20.2392 77.5282C20.1809 78.4017 20.0645 79.217 20.1227 80.0905C20.1227 80.4399 20.3557 80.8476 20.5886 81.0223C21.637 81.7793 22.6271 82.6529 23.792 83.0023C24.7821 83.2934 25.6557 83.7593 26.5294 84.1087C27.3448 84.4581 28.2766 84.8658 29.092 84.8658C30.1986 84.8075 31.0723 85.3316 32.0624 85.5063C34.6833 85.9722 37.3042 86.7293 40.0416 86.671C41.5559 87.661 43.4197 86.8457 44.934 87.4863C46.623 88.1851 48.4285 87.3698 50.0011 87.9522C52.0978 88.651 54.1945 88.0687 56.1748 88.5345C58.621 89.1169 61.0672 89.0004 63.5133 89.0004C64.154 89.0004 64.2122 89.2916 64.3287 89.8739C64.6782 91.6792 64.6199 91.9121 62.8727 91.9121C62.8144 92.0286 62.5232 92.0286 61.5331 92.0286Z" fill="white"/>
<path d="M113.544 89.1169C116.747 88.8257 119.95 88.3016 123.154 88.5345C124.551 87.661 126.124 88.2433 127.522 87.8939C128.978 87.5445 130.492 87.6028 131.948 87.3116C136.491 86.4963 141.15 86.1469 145.635 84.5746C146.8 84.1669 148.023 83.934 149.246 83.4099C150.411 82.8858 151.576 82.4781 152.624 81.6629C154.313 80.3235 154.43 80.0323 153.731 77.8776C153.614 77.5864 153.789 77.237 153.847 76.8876C154.139 76.9459 154.43 76.8876 154.604 77.0623C155.187 77.5864 155.711 78.1106 156.235 78.6929C157.4 79.9158 157.4 81.4882 156.177 82.6528C155.595 83.2352 154.896 83.7011 154.139 84.1087C151.634 85.3316 148.955 86.1469 146.276 86.8457C144.121 87.4281 141.791 87.4863 139.694 88.5345C137.947 88.1269 136.375 89.1169 134.686 89.1751C133.695 89.1751 132.705 89.5245 131.715 89.6992C130.725 89.8739 129.618 89.2916 128.745 90.2233C128.687 90.3398 128.395 90.2233 128.162 90.2815C125.716 90.4562 123.27 90.6892 120.882 90.8639C119.659 90.9221 118.669 91.7374 117.329 91.5045C116.164 91.3298 115 91.5045 113.777 91.9703C112.845 92.3197 111.68 92.0868 110.631 92.0286C110.049 91.9703 109.175 92.4944 109.234 91.2133C109.234 89.8739 109.583 89.2333 110.573 89.1169C111.622 89.0586 112.553 89.1169 113.544 89.1169Z" fill="white"/>
<path d="M86.6938 75.8977C85.4707 75.723 84.2476 75.723 83.0827 75.3735C81.9179 75.0241 80.753 75.0824 79.5882 74.733C78.1904 74.3253 77.608 73.2771 76.7343 72.5201C76.5596 72.3454 76.6761 71.4136 76.9673 71.2389C78.1321 70.5401 79.297 69.7248 80.5783 69.4919C81.7432 69.2589 82.908 69.026 84.1311 68.8513C85.9366 68.6184 87.8586 68.5019 89.6059 68.8513C91.7026 69.2589 93.9158 69.4336 95.8961 70.4819C96.6532 70.8895 97.1192 71.2389 97.1192 72.1124C97.1192 73.0442 96.9444 73.6847 95.8961 74.0342C94.6147 74.5 93.4499 75.1406 91.9938 75.1988C91.1202 75.2571 90.2466 75.6065 89.3147 75.723C88.441 75.8394 87.5674 75.723 86.6938 75.723C86.6938 75.7812 86.6938 75.8394 86.6938 75.8977Z" fill="white"/>
<path d="M53.9615 76.8876C52.156 76.8294 50.234 77.1788 48.4285 76.3053C48.2538 76.2471 47.9625 76.3635 47.9043 76.2471C47.4384 75.5482 46.4482 75.3153 46.4482 74.2671C46.4482 73.1024 47.3219 72.9277 48.079 72.6948C49.1856 72.3454 50.2922 71.8795 51.3988 71.7048C52.7384 71.5301 54.078 71.5883 55.4176 71.7048C56.6989 71.8212 57.9802 72.0542 59.2033 72.2871C59.3781 72.2871 59.5528 72.4036 59.6693 72.4618C60.4847 73.0442 61.3001 73.6847 62.1155 74.2671C61.2418 74.9077 60.7176 75.8976 59.4946 76.3635C57.689 77.0623 55.8253 76.8294 53.9615 76.8876Z" fill="white"/>
<path d="M119.834 76.8876C115.931 76.8876 115.931 76.8876 113.66 75.723C113.252 75.49 112.786 75.3735 112.495 75.0824C112.32 74.9077 112.262 74.2671 112.437 74.1506C113.194 73.4518 113.951 72.6365 114.883 72.3454C116.281 71.9377 117.795 71.7048 119.251 71.763C120.707 71.8213 122.163 71.2971 123.678 72.2289C124.493 72.6948 125.833 72.2289 126.881 72.8695C127.463 73.2189 127.988 73.51 127.988 74.3253C127.988 75.1406 127.522 75.5482 126.881 75.7812C125.425 76.3053 124.085 77.1206 122.455 76.9459C121.581 76.8294 120.707 76.8876 119.834 76.8876Z" fill="white"/>
<path d="M138.704 80.9641C137.423 80.9058 136.083 81.2552 134.919 80.3817C134.627 80.1488 134.278 79.9741 134.045 79.7411C133.521 79.1588 133.87 78.5764 134.453 77.9941C135.501 76.9459 136.782 77.7612 137.889 77.1788C138.879 76.6547 139.927 76.5965 141.034 77.2953C141.558 77.6447 142.49 77.47 143.131 77.7612C143.597 77.9359 144.47 77.8776 144.296 78.9259C144.179 79.6829 143.771 80.207 143.073 80.2652C141.966 80.3235 141.034 81.2552 139.869 80.9058C139.462 80.9058 139.054 80.9641 138.704 80.9641Z" fill="white"/>
<path d="M35.5569 80.9641C34.1008 81.0223 32.8777 80.9058 31.5964 80.4982C30.7227 80.207 30.4315 79.5664 29.8491 79.1588C29.7909 79.1006 29.9074 78.7512 30.0238 78.5765C30.1986 78.4017 30.4898 78.2853 30.6645 78.1106C31.6546 77.4118 32.9942 77.8776 33.8678 77.4118C35.0327 76.8294 35.8481 76.8294 36.9547 77.47C37.5371 77.8194 38.8185 77.2371 39.1679 77.6447C39.6338 78.1688 40.9152 77.6447 40.6822 78.9841C40.5075 79.8576 40.0415 80.1488 39.2844 80.4399C38.0031 80.9058 36.7217 81.1388 35.5569 80.9641Z" fill="white"/>
</g>
<defs>
<clipPath id="clip0_262_2548">
<rect width="173" height="174" fill="white" transform="translate(0.5)"/>
</clipPath>
</defs>
</svg>
