<svg width="174" height="174" viewBox="0 0 174 174" fill="none" xmlns="http://www.w3.org/2000/svg">
<g clip-path="url(#clip0_262_2544)">
<path d="M86.5534 174C37.3709 172.282 0.372382 136.005 0.499963 86.6818C0.627544 37.1675 37.945 -0.0636607 87.1913 -1.77122e-05C136.246 0.0636253 173.819 37.1039 173.5 87.6364C173.117 136.387 136.438 172.6 86.5534 174ZM75.9004 110.293C83.6191 110.293 90.8274 110.293 98.2909 110.293C98.2909 102.783 98.2909 95.4009 98.2909 87.8273C90.7636 87.8273 83.3639 87.8273 75.9004 87.8273C75.9004 95.4009 75.9004 102.72 75.9004 110.293ZM98.4185 86.6818C98.4185 79.0446 98.4185 71.662 98.4185 64.1521C90.8274 64.1521 83.6191 64.1521 75.9642 64.1521C75.9642 71.7257 75.9642 79.1082 75.9642 86.6818C83.4277 86.6818 90.8274 86.6818 98.4185 86.6818ZM74.7522 64.0249C68.2455 64.0249 61.8027 63.9612 55.3598 64.0885C54.7857 64.0885 53.8289 64.9795 53.7651 65.4886C53.3186 72.4257 52.9996 79.3628 52.6169 86.4908C60.1441 86.4908 67.2887 86.4908 74.7522 86.4908C74.7522 79.0446 74.7522 71.7257 74.7522 64.0249ZM52.6169 87.6364C52.9358 95.2736 53.2548 102.529 53.6375 110.039C60.9734 110.039 67.799 110.039 74.7522 110.039C74.7522 103.102 74.816 96.2282 74.6884 89.3548C74.6884 88.782 73.6039 87.7001 73.0298 87.7001C66.3318 87.6364 59.6976 87.6364 52.6169 87.6364ZM99.6943 86.6818C107.222 86.6818 114.366 86.6818 121 86.6818C121 79.1082 121 71.9166 121 64.3431C113.473 64.3431 106.647 64.3431 99.6943 64.3431C99.6943 71.7893 99.6943 79.1082 99.6943 86.6818ZM99.5667 88.0183C99.5667 95.6554 99.5667 102.974 99.5667 110.293C106.52 110.293 113.345 110.293 120.554 110.293C120.937 102.783 121.319 95.4645 121.702 88.0183C114.111 88.0183 107.158 88.0183 99.5667 88.0183ZM97.5254 42.3862C90.5084 42.3862 83.938 42.3862 77.1762 42.3862C76.7935 49.2597 76.4745 55.9422 76.1556 62.8156C83.8104 62.8156 91.0188 62.8156 98.4823 62.8156C98.1633 55.9422 97.8444 49.2597 97.5254 42.3862ZM75.9004 111.63C76.2194 118.567 76.4745 125.186 76.7935 131.868C83.6829 131.868 90.2533 131.868 97.0151 131.868C97.3978 125.059 97.7806 118.44 98.0995 111.63C90.5722 111.63 83.4915 111.63 75.9004 111.63ZM76.2194 42.5772C70.1593 42.5772 64.5457 42.6408 58.9321 42.5772C57.0822 42.5772 56.6357 43.5318 56.4443 45.1229C55.8702 49.3233 55.2323 53.4601 54.5944 57.6606C54.3392 59.4426 54.1478 61.2882 53.9565 63.0702C60.7183 63.0702 66.9697 63.1339 73.1574 63.0066C73.8591 63.0066 75.1349 61.9883 75.1349 61.3518C75.6452 55.1148 75.9004 48.8778 76.2194 42.5772ZM120.745 63.1975C119.788 56.3241 118.831 49.6415 117.811 42.7044C111.304 42.7044 105.053 42.7044 98.4823 42.7044C98.8012 49.4506 99.1202 56.2604 99.4391 63.1975C106.839 63.1975 113.664 63.1975 120.745 63.1975ZM32.5866 86.6818C38.7105 86.6818 44.3241 86.7454 49.9376 86.5545C50.5756 86.5545 51.66 85.218 51.7238 84.3906C52.1065 80.3175 52.2341 76.1807 52.4255 72.0439C52.4893 69.4345 52.4255 66.8888 52.4255 64.4704C46.3016 64.4704 40.4329 64.4704 34.309 64.4704C33.7348 71.9166 33.2245 78.9173 32.5866 86.6818ZM53.7013 111.375C54.6581 118.058 55.5512 124.613 56.5719 131.55C63.0147 131.55 69.2024 131.55 75.1987 131.55C75.1987 124.995 75.1987 118.376 75.1987 111.375C67.799 111.375 60.9734 111.375 53.7013 111.375ZM139.882 110.039C140.52 102.465 141.094 95.4645 141.668 88.2092C135.226 88.2092 129.038 88.2092 122.659 88.2092C122.212 95.6554 121.83 102.847 121.447 110.039C127.762 110.039 133.631 110.039 139.882 110.039ZM52.6169 109.466C52.2979 102.147 51.9789 94.8917 51.66 87.7001C45.0896 87.7001 38.9657 87.7001 32.6504 87.7001C33.1607 95.019 33.6711 102.02 34.2452 109.466C40.3691 109.466 46.3016 109.466 52.6169 109.466ZM122.404 86.809C129.229 86.809 135.289 86.809 141.732 86.809C141.222 79.4901 140.775 72.3621 140.265 64.9159C133.95 64.9159 128.017 64.9159 122.404 64.9159C122.404 72.1712 122.404 79.3628 122.404 86.809ZM97.9081 131.932C102.82 131.932 107.413 131.996 111.942 131.932C117.173 131.868 117.237 131.868 118.066 126.586C118.831 121.622 119.533 116.658 120.299 111.757C112.963 111.757 106.137 111.757 99.184 111.757C98.7374 118.503 98.3547 125.059 97.9081 131.932ZM140.01 63.5157C138.67 57.4696 137.395 51.4872 135.991 45.5684C135.864 44.9956 135.226 44.1046 134.715 44.0409C129.484 43.5954 124.317 43.3409 118.831 42.959C119.788 49.5779 120.554 55.6876 121.511 61.7337C121.638 62.4338 122.595 63.4521 123.169 63.4521C128.719 63.5794 134.205 63.5157 140.01 63.5157ZM55.8702 42.7044C50.3842 43.0227 45.2809 43.2136 40.2415 43.5954C39.7312 43.6591 38.9019 44.3592 38.7743 44.8683C37.3071 50.978 35.9037 57.1514 34.5003 63.2611C40.3691 63.2611 45.855 63.3248 51.341 63.1975C51.9152 63.1975 52.9358 62.1792 52.9996 61.4791C54.084 55.433 54.9133 49.387 55.8702 42.7044ZM118.257 131.296C121.702 131.296 124.764 131.359 127.762 131.296C134.907 131.041 134.907 131.041 136.629 123.977C137.65 119.712 138.607 115.512 139.563 111.375C133.248 111.375 127.379 111.375 121.383 111.375C120.299 118.185 119.278 124.613 118.257 131.296ZM55.5512 131.296C54.5944 124.295 53.6375 117.676 52.6806 110.739C46.4292 110.739 40.5604 110.739 34.5003 110.739C35.9037 116.849 37.1795 122.895 38.6467 128.813C38.7743 129.386 39.7312 130.15 40.3053 130.214C45.1534 130.659 50.129 130.914 55.5512 131.296ZM78.8986 24.4389C78.3882 30.1668 77.8779 35.5764 77.3038 41.177C84.1932 41.177 90.5722 41.177 97.3978 41.177C96.8875 35.4491 96.3772 29.9758 95.8669 24.4389C90.0619 24.4389 84.7035 24.4389 78.8986 24.4389ZM141.286 65.1068C141.732 72.1712 142.115 78.8537 142.625 85.4089C142.689 85.9817 143.582 86.9363 144.093 86.9363C148.366 87.0636 152.704 87 157.297 87C156.659 79.7447 156.085 72.8712 155.447 65.9341C150.599 65.6796 146.198 65.425 141.286 65.1068ZM96.8237 133.141C89.8705 133.141 83.4915 133.141 76.7935 133.141C77.3038 138.805 77.7503 144.215 78.2607 149.625C84.1294 149.625 89.6154 149.625 95.1014 149.625C95.7393 144.151 96.2496 138.869 96.8237 133.141ZM142.625 88.2728C142.051 95.5281 141.477 102.529 140.903 109.911C145.879 109.657 150.344 109.466 155.064 109.275C155.83 102.147 156.532 95.3372 157.233 88.2728C152.322 88.2728 147.729 88.2728 142.625 88.2728ZM33.1607 109.275C32.6504 101.765 32.2039 94.7008 31.6935 87.6364C26.6541 87.6364 21.9336 87.6364 17.0855 87.6364C17.7234 94.7008 18.3613 101.511 18.9992 108.448C23.7835 108.702 28.2489 108.957 33.1607 109.275ZM31.6935 86.2999C32.2039 79.0446 32.778 72.0439 33.2883 64.6613C28.4402 64.9159 23.9111 65.1068 19.063 65.3614C18.4251 72.3621 17.7872 79.2355 17.0855 86.3635C22.0612 86.2999 26.5903 86.2999 31.6935 86.2999ZM77.8779 24.7571C72.8385 24.7571 67.9904 24.6935 63.1423 24.8208C62.4406 24.8208 61.4837 25.9663 61.2286 26.7937C60.2079 30.0395 59.3787 33.2853 58.4856 36.5947C58.0391 38.2494 57.7201 39.9042 57.4011 41.3679C63.2061 41.3679 68.5007 41.3679 73.7953 41.3679C75.3263 41.3679 76.4107 41.1134 76.6021 39.2041C76.9211 34.3672 77.4314 29.5303 77.8779 24.7571ZM98.4823 41.4952C104.989 41.4952 111.113 41.4952 117.556 41.4952C116.216 36.4038 114.876 31.3123 113.473 26.2209C113.345 25.7118 112.708 25.0753 112.261 25.0117C107.222 24.6935 102.246 24.5025 96.9513 24.3116C97.4616 30.2941 97.9081 35.6401 98.4823 41.4952ZM97.8444 133.078C97.2702 138.933 96.6961 144.279 96.1858 149.434C101.289 149.434 106.01 149.497 110.73 149.37C111.368 149.37 112.325 148.67 112.516 148.097C114.047 143.133 115.451 138.042 116.854 133.078C110.347 133.078 104.223 133.078 97.8444 133.078ZM77.24 149.116C76.8573 144.342 76.5383 139.505 76.028 134.732C75.9642 134.032 75.0073 132.95 74.497 132.95C68.7559 132.823 62.9509 132.887 56.9546 132.887C58.2942 137.851 59.5062 142.879 60.9734 147.779C61.1648 148.352 62.1216 149.052 62.7595 149.116C67.4163 149.179 72.1368 149.116 77.24 149.116ZM19.4458 63.7703C23.7835 63.7703 27.8023 63.8339 31.8211 63.7066C32.459 63.7066 33.4797 63.0066 33.6711 62.4338C35.202 56.3241 36.5416 50.1507 38.0726 43.5954C33.7986 43.9773 30.035 44.2955 26.2713 44.741C25.6334 44.8047 24.868 45.632 24.6766 46.2685C22.8267 52.1236 21.1681 57.9151 19.4458 63.7703ZM155.256 64.9159C153.47 58.6152 151.811 52.76 150.089 46.9049C149.897 46.3321 149.26 45.5047 148.749 45.4411C144.858 44.932 140.903 44.5501 136.693 44.1046C138.096 50.5962 139.308 56.4513 140.775 62.3065C140.967 63.1975 142.37 64.2794 143.263 64.3431C147.091 64.6613 150.854 64.6613 155.256 64.9159ZM135.927 130.786C140.137 130.405 143.774 130.086 147.473 129.704C148.111 129.641 149.004 129.132 149.132 128.623C151.046 122.64 152.896 116.658 154.809 110.23C150.28 110.484 146.261 110.548 142.243 110.93C141.541 110.993 140.52 112.012 140.265 112.775C138.798 118.567 137.458 124.422 135.927 130.786ZM19.1906 109.466C21.0405 115.83 22.6991 121.622 24.4214 127.413C24.6128 127.986 25.2507 128.813 25.761 128.877C29.5885 129.386 33.4797 129.768 37.7537 130.214C36.2865 123.849 35.0107 117.867 33.5435 111.948C33.3521 111.248 32.3952 110.421 31.7573 110.357C27.8023 109.848 23.7835 109.721 19.1906 109.466ZM135.289 42.959C132.993 37.4221 130.888 32.267 128.655 27.1756C128.4 26.6664 127.507 26.2209 126.933 26.1573C122.85 25.7118 118.768 25.4572 114.239 25.0753C115.706 30.5486 116.982 35.6401 118.449 40.6679C118.64 41.2407 119.597 42.0044 120.235 42.068C124.955 42.4499 129.867 42.6408 135.289 42.959ZM60.6545 24.8844C55.934 25.2026 51.8514 25.4572 47.7688 25.839C47.1947 25.9027 46.3654 26.4755 46.1102 26.9846C43.8775 32.0124 41.7725 37.0402 39.4122 42.5772C44.8344 42.2589 49.6825 42.068 54.5306 41.6862C55.2323 41.6225 56.1891 40.7952 56.3805 40.0951C57.9115 35.2582 59.1873 30.3577 60.6545 24.8844ZM60.0803 148.925C58.6132 143.451 57.3374 138.36 55.8702 133.332C55.7426 132.887 55.0409 132.25 54.5944 132.25C49.6187 131.868 44.643 131.614 39.157 131.296C41.4535 136.769 43.431 141.606 45.5361 146.443C45.7913 147.079 46.6843 147.779 47.3222 147.843C51.4048 148.288 55.5512 148.543 60.0803 148.925ZM113.282 149.306C117.811 148.988 121.957 148.797 126.04 148.415C126.614 148.352 127.443 147.779 127.698 147.27C129.995 142.306 132.1 137.278 134.524 131.868C129.038 132.123 124.19 132.377 119.342 132.696C118.768 132.759 117.875 133.332 117.747 133.778C116.216 138.805 114.813 143.897 113.282 149.306ZM167.185 87.0636C167.312 86.6181 167.44 86.3635 167.44 86.0453C167.121 82.1631 166.866 78.2809 166.419 74.3987C165.462 66.5069 165.462 66.5069 157.361 66.1887C157.17 66.1887 156.978 66.316 156.468 66.5706C157.042 73.3167 157.68 80.1902 158.254 87.0636C161.507 87.0636 164.378 87.0636 167.185 87.0636ZM158.254 88.2092C157.552 95.1463 156.851 102.02 156.085 109.211C159.466 108.893 162.337 108.639 165.271 108.384C166.036 101.447 166.802 94.9554 167.567 88.2092C164.187 88.2092 161.38 88.2092 158.254 88.2092ZM18.0424 65.425C15.1718 65.6159 12.6202 65.7432 10.1323 65.9978C9.55822 66.0614 8.72894 66.7615 8.66515 67.2706C7.89967 73.5077 7.26176 79.7447 6.62386 86.0453C10.0685 86.0453 13.0029 86.0453 16.0649 86.0453C16.7666 79.1082 17.4045 72.4257 18.0424 65.425ZM6.62386 87.5091C7.26176 93.8734 7.89967 99.8559 8.60136 105.838C8.66515 106.538 9.55822 107.557 10.2599 107.62C12.7478 108.002 15.2356 108.066 18.0424 108.32C17.4045 101.192 16.7666 94.4462 16.1286 87.5728C12.8115 87.5091 9.87718 87.5091 6.62386 87.5091ZM149.196 44.3592C146.198 38.7586 143.582 33.7944 140.967 28.8939C140.712 28.3848 140.074 27.8756 139.563 27.7483C136.374 27.2392 133.121 26.8573 129.484 26.3482C131.781 31.8215 133.822 36.7856 135.991 41.6862C136.246 42.3226 137.139 42.959 137.841 43.0227C141.35 43.5954 144.922 43.9137 149.196 44.3592ZM25.5059 43.7864C29.9074 43.4045 33.6711 43.0863 37.3709 42.7681C37.8174 42.7044 38.3916 42.3226 38.5829 41.8771C40.8156 36.8493 42.9207 31.7578 45.3447 26.0936C41.5173 26.5391 38.4553 26.8573 35.4572 27.3665C34.8193 27.4938 34.0538 28.0029 33.7348 28.5757C31.1194 33.3489 28.504 38.3131 25.5059 43.7864ZM128.464 148.161C132.1 147.715 135.098 147.461 137.969 147.015C138.607 146.888 139.5 146.506 139.755 145.933C142.562 141.033 145.305 136.069 148.303 130.659C144.093 131.041 140.456 131.296 136.884 131.677C136.182 131.741 135.289 132.441 135.034 133.078C132.929 137.851 130.888 142.751 128.464 148.161ZM25.3145 129.895C28.2489 135.432 30.8643 140.333 33.5435 145.233C33.7348 145.615 34.309 146.061 34.7555 146.124C37.945 146.633 41.1346 147.079 44.8982 147.588C42.6017 142.115 40.6242 137.214 38.5191 132.377C38.264 131.805 37.4985 131.168 36.9244 131.105C33.2883 130.595 29.6522 130.277 25.3145 129.895ZM93.8256 11.1375C89.8705 11.1375 85.9793 11.0739 82.0881 11.2012C81.6416 11.2012 80.8761 11.8376 80.8123 12.2831C80.1744 15.8471 79.664 19.4747 79.0899 23.1024C84.8949 23.1024 90.1895 23.1024 95.6755 23.1024C95.1014 19.0292 94.5273 15.2743 93.8256 11.1375ZM78.452 150.961C79.0261 154.907 79.6003 158.726 80.1744 162.735C84.1294 162.735 87.7017 162.799 91.2739 162.672C91.9118 162.672 92.9963 161.971 93.1239 161.462C93.8256 158.089 94.3359 154.716 94.91 150.961C89.3602 150.961 84.1932 150.961 78.452 150.961ZM78.0055 23.357C78.7072 19.1565 79.2813 15.3379 79.983 11.0739C76.028 11.2648 72.3281 11.3921 68.6921 11.6467C68.1817 11.7103 67.48 12.1558 67.2249 12.6013C65.5025 16.1653 63.9078 19.793 62.2492 23.357C67.799 23.357 72.8385 23.357 78.0055 23.357ZM112.452 23.4843C110.858 19.9202 109.199 16.2926 107.477 12.7286C107.285 12.3467 106.775 11.8376 106.392 11.7739C102.629 11.5194 98.9288 11.3921 94.8462 11.2012C95.5479 15.4652 96.122 19.2838 96.8237 23.4843C102.055 23.4843 107.158 23.4843 112.452 23.4843ZM111.623 150.77C106.201 150.77 101.225 150.77 95.9944 150.77C95.2927 154.843 94.6548 158.598 93.9531 162.481C97.7806 162.481 101.289 162.544 104.734 162.417C105.308 162.417 106.201 161.908 106.456 161.399C108.306 157.898 109.901 154.398 111.623 150.77ZM79.1537 162.672C78.5796 158.917 78.1969 155.607 77.559 152.298C77.4314 151.661 76.6659 150.643 76.1556 150.643C71.4351 150.516 66.7784 150.579 61.8027 150.579C63.3337 154.016 64.8646 157.453 66.4594 160.826C66.7146 161.335 67.4801 161.971 68.0542 161.971C71.6264 162.29 75.1987 162.481 79.1537 162.672ZM165.399 65.8069C163.357 59.6335 161.507 53.7783 159.53 47.9868C159.338 47.414 158.509 46.9049 157.935 46.7776C155.702 46.3321 153.406 46.0139 150.791 45.5684C152.577 51.9327 154.235 57.8515 156.021 63.7066C156.213 64.3431 157.106 65.0431 157.744 65.1068C160.104 65.4886 162.528 65.6159 165.399 65.8069ZM9.11169 65.0431C11.9823 64.8522 14.4063 64.7249 16.7666 64.4704C17.4045 64.4067 18.3613 63.7066 18.5527 63.1339C20.3388 57.2787 22.0612 51.4235 23.9111 45.1229C21.2957 45.5047 19.1268 45.7593 17.0217 46.1412C16.32 46.2685 15.2994 46.8412 15.108 47.414C13.0667 53.1419 11.153 58.9334 9.11169 65.0431ZM149.961 129.45C152.704 129.004 155.001 128.75 157.233 128.241C157.807 128.113 158.573 127.541 158.764 126.968C160.806 121.304 162.783 115.639 164.888 109.53C162.081 109.721 159.657 109.784 157.233 110.166C156.595 110.23 155.639 110.93 155.447 111.566C153.661 117.358 151.875 123.213 149.961 129.45ZM23.7197 128.559C21.9336 122.258 20.275 116.403 18.4889 110.548C18.2975 109.975 17.532 109.339 16.9579 109.275C14.4701 108.957 11.9185 108.83 9.0479 108.575C11.0892 114.621 12.9391 120.349 14.9166 126.013C15.108 126.586 15.8097 127.286 16.4476 127.413C18.6165 127.859 20.9129 128.113 23.7197 128.559ZM47.1947 24.8208C51.9152 24.5025 55.9978 24.1843 60.0803 23.8025C60.5907 23.7388 61.2286 23.2297 61.4837 22.7205C63.1423 19.2202 64.7371 15.6562 66.587 11.7103C63.0147 12.0285 60.0166 12.2194 56.9546 12.5377C56.3167 12.6013 55.5512 13.1104 55.1685 13.6832C52.5531 17.1836 50.129 20.7476 47.1947 24.8208ZM127.316 25.139C122.723 17.82 119.342 9.73736 108.561 12.5377C110.092 15.9107 111.623 19.4111 113.282 22.7842C113.601 23.4206 114.494 24.057 115.195 24.1207C119.087 24.5662 122.978 24.8208 127.316 25.139ZM46.7481 148.861C49.6187 152.998 51.9789 156.371 54.403 159.744C54.7219 160.253 55.2961 160.826 55.8064 160.89C58.9959 161.335 62.1854 161.653 65.8215 162.035C64.0354 158.026 62.5682 154.653 60.9734 151.343C60.6545 150.707 59.8252 150.007 59.1873 149.943C55.2961 149.497 51.4686 149.243 46.7481 148.861ZM126.614 149.37C121.893 149.688 117.938 150.007 113.983 150.325C113.473 150.388 112.708 150.834 112.516 151.279C110.794 154.716 109.199 158.217 107.285 162.226C110.347 161.971 112.771 161.844 115.195 161.526C116.28 161.399 117.747 161.271 118.321 160.571C121.064 157.135 123.616 153.507 126.614 149.37ZM15.8097 45.5047C19.3182 44.6774 23.0818 44.8683 24.2938 43.2136C27.6747 38.6313 29.9712 33.3489 32.7142 28.3211C32.5228 28.0666 32.3315 27.8756 32.1401 27.6211C29.8436 28.4484 26.6541 28.6393 25.3783 30.2304C21.9974 34.7491 19.3182 39.7769 15.8097 45.5047ZM141.86 28.5121C143.965 32.5216 146.389 36.0856 147.792 39.9678C149.642 45.0592 153.534 45.4411 158.382 45.5047C156.021 41.5589 153.534 38.1222 151.747 34.3672C149.834 30.2304 146.708 28.4484 141.86 28.5121ZM16.1286 128.813C18.5527 132.887 21.2319 136.578 23.2094 140.651C25.1231 144.597 28.3126 145.17 32.459 145.488C30.6091 141.988 28.5678 138.996 27.3558 135.687C25.5059 130.532 21.9336 128.623 16.8303 128.559C16.7666 128.495 16.7028 128.559 16.1286 128.813ZM157.552 129.641C150.28 129.641 150.025 129.768 146.899 135.369C146.198 136.578 145.56 137.787 144.922 138.996C143.646 141.351 142.434 143.642 141.158 145.997C143.901 145.933 146.899 145.87 148.048 144.406C151.556 139.824 154.363 134.732 157.552 129.641ZM54.0202 13.5559C53.8927 13.3014 53.7651 13.1104 53.6375 12.8559C51.0859 13.365 47.8326 13.1104 46.0464 14.6379C42.219 17.8837 39.157 21.9568 35.202 26.3482C38.9019 25.9027 41.7087 25.5845 44.5154 25.0753C45.2809 24.948 46.1102 24.4389 46.5567 23.8661C49.1722 20.493 51.5324 17.0563 54.0202 13.5559ZM139.244 26.4755C136.374 23.2297 133.758 20.7476 131.781 17.8837C129.038 13.8742 125.147 13.7469 120.554 13.4287C122.468 16.1653 124.445 18.3292 125.657 20.8112C128.4 26.5391 133.503 25.9663 139.244 26.4755ZM53.191 160.189C48.0239 149.816 44.8982 147.524 35.0107 147.524C40.9432 152.552 43.3672 161.335 53.191 160.189ZM119.15 161.271C122.595 160.571 125.785 160.89 127.571 159.426C131.398 156.244 134.524 152.17 138.543 147.906C135.098 148.352 132.483 148.606 129.867 149.052C128.974 149.179 127.89 149.497 127.379 150.134C124.7 153.571 122.212 157.071 119.15 161.271ZM7.77209 66.9524C7.51692 66.6342 7.26176 66.316 7.07039 65.9978C5.85837 66.8251 3.75328 67.4616 3.6257 68.4162C2.66884 74.2077 2.15852 80.0629 1.45682 86.109C2.98779 86.109 4.19982 86.109 5.73079 86.109C6.36869 79.681 7.07039 73.3167 7.77209 66.9524ZM7.7083 107.048C7.13418 101.447 6.56007 95.9736 5.98595 90.5003C5.60321 87 5.34805 86.7454 1.39303 87.891C1.96715 92.9824 2.79642 98.1375 3.11538 103.293C3.30675 106.22 4.45498 107.302 7.7083 107.048ZM172.734 87.1273C172.16 81.3994 171.65 76.0534 171.076 70.7074C170.757 67.4616 170.629 67.3343 166.674 67.5252C167.312 74.0168 167.95 80.5084 168.652 87.1273C169.991 87.1273 171.14 87.1273 172.734 87.1273ZM168.588 88.2728C167.823 95.019 167.057 101.447 166.292 107.875C169.545 108.384 170.566 107.111 170.757 104.311C171.203 98.9649 172.033 93.6825 172.671 88.2728C171.14 88.2728 170.119 88.2728 168.588 88.2728ZM93.379 9.99194C91.3377 1.90927 92.8049 3.30942 85.0863 3.4367C80.9399 3.50035 82.7898 7.70079 80.8761 10.2465C84.6397 10.2465 87.6379 10.2465 90.5722 10.2465C91.4653 10.1829 92.2946 10.1192 93.379 9.99194ZM69.2024 10.3102C72.3919 10.3102 75.3263 10.3738 78.3244 10.2465C79.0899 10.1829 80.1744 9.54643 80.4295 8.91C81.1312 7.25529 81.4502 5.40964 81.8967 3.56399C74.1781 3.05485 72.8385 3.81856 69.2024 10.3102ZM105.754 10.5011C101.48 3.69128 99.184 2.5457 92.9963 3.81856C94.2721 10.2465 94.2721 10.2465 100.715 10.4374C102.246 10.5647 103.841 10.5011 105.754 10.5011ZM4.13602 65.3614C4.3274 65.6159 4.51877 65.8705 4.71014 66.1251C5.92216 65.4886 7.83588 65.1704 8.21862 64.2158C10.3875 58.6788 12.1098 52.951 14.0236 47.2867C13.7684 47.0958 13.4494 46.8412 13.1943 46.6503C12.0461 47.605 10.3237 48.3687 9.87718 49.6415C7.77209 54.7966 5.98595 60.079 4.13602 65.3614ZM4.00844 107.939C5.98595 113.603 7.77209 119.076 9.94097 124.422C10.3875 125.44 12.1098 125.95 13.2581 126.713C12.1098 120.922 10.2599 115.83 8.72894 110.675C8.02725 108.193 6.49628 107.748 4.00844 107.939ZM80.7485 163.817C81.5778 170.372 82.1519 170.945 88.6585 170.372C92.7411 169.99 91.2101 166.236 92.7411 163.817C88.4034 163.817 84.7035 163.817 80.7485 163.817ZM161.89 47.1595C161.444 47.414 161.061 47.7322 160.614 47.9868C162.337 53.2055 164.123 58.3606 165.654 63.5794C166.355 66.0614 167.695 66.7615 170.31 66.2524C168.524 61.1609 166.866 56.1331 164.952 51.169C164.378 49.7052 162.911 48.496 161.89 47.1595ZM68.2455 163.053C72.3281 169.927 74.9435 171.263 81.0036 169.736C80.6847 168.399 80.4295 167.063 79.9192 165.79C79.5365 164.963 78.8348 163.753 78.1331 163.69C74.9435 163.308 71.6902 163.244 68.2455 163.053ZM92.0394 169.99C98.4185 171.836 101.863 168.527 104.861 163.308C102.629 163.435 100.779 163.499 98.9288 163.626C92.9963 163.944 92.9963 163.944 92.0394 169.99ZM169.736 109.339C169.609 109.084 169.417 108.83 169.29 108.575C168.142 109.084 166.292 109.339 165.973 110.166C163.74 115.767 161.826 121.558 159.849 127.222C160.104 127.413 160.423 127.668 160.678 127.859C161.762 126.904 163.357 126.204 163.868 124.995C165.973 119.84 167.823 114.557 169.736 109.339ZM43.6862 15.4652C43.4948 15.2107 43.2396 15.0197 43.0483 14.7652C36.0951 16.6108 33.0331 23.1024 28.1213 27.4938C30.3539 27.3028 32.778 27.1756 34.1814 25.9027C37.5623 22.7205 40.5604 18.9656 43.6862 15.4652ZM43.8775 158.789C40.6242 155.162 37.8812 152.298 35.3934 149.116C33.3521 146.506 30.6729 146.124 27.6747 146.252C32.8418 150.197 35.5848 157.262 43.8775 158.789ZM129.867 158.726C137.458 157.771 140.393 151.088 145.496 146.824C143.263 147.079 140.775 147.27 139.308 148.606C135.927 151.661 132.993 155.289 129.867 158.726ZM57.5925 11.1375C64.3543 11.8376 69.3938 10.5647 72.0092 4.20042C65.4388 2.80027 62.3768 8.019 57.5925 11.1375ZM102.756 4.26406C106.392 10.6284 110.921 12.8559 116.79 11.0102C112.325 8.14629 109.135 2.9912 102.756 4.26406ZM146.836 28.1302C141.86 21.1295 135.289 15.7834 130.25 15.4652C136.31 19.793 138.224 27.9393 146.836 28.1302ZM56.9546 162.417C61.6751 165.535 64.7371 170.691 71.0523 169.354C68.5645 163.053 63.5888 161.781 56.9546 162.417ZM101.544 169.29C106.01 170.627 111.687 167.89 115.195 162.672C107.03 162.608 106.903 162.608 101.544 169.29ZM11.9823 127.031C11.7909 127.222 11.5995 127.477 11.4081 127.668C15.3632 132.568 17.532 138.869 22.8904 142.751C20.5302 137.914 17.851 133.268 14.9166 128.813C14.3425 127.986 13.0029 127.604 11.9823 127.031ZM12.1098 46.0775C18.1062 42.7681 19.6371 36.1492 22.9542 30.8668C17.7234 34.7491 15.4907 40.7952 12.1098 46.0775ZM152.066 30.5486C151.684 30.8032 151.365 31.0578 150.982 31.3123C153.725 35.8946 156.468 40.5406 159.338 45.0592C159.913 46.0139 161.316 46.3957 162.273 47.0958C162.464 46.8412 162.592 46.6503 162.783 46.3957C159.083 41.2407 156.468 35.2582 152.066 30.5486ZM150.472 143.833C155.511 139.633 158.254 133.714 161.762 128.304C155.639 131.677 154.044 138.551 150.472 143.833ZM111.942 5.53692C115.897 8.91 119.214 13.4287 125.976 12.5377C120.937 10.0556 117.492 5.7915 111.942 5.53692ZM62.0579 168.081C58.1666 164.708 54.8495 160.317 48.3429 161.144C53.1272 163.626 56.5081 167.89 62.0579 168.081ZM48.9808 12.2194C55.934 13.1741 58.9321 8.4645 62.8871 5.34599C57.5287 5.66421 54.084 9.54644 48.9808 12.2194ZM110.539 168.654C116.088 168.336 119.725 164.326 124.573 161.781C117.938 160.953 114.557 165.408 110.539 168.654ZM24.2301 145.106C24.1663 145.17 24.1025 145.233 24.0387 145.361C27.4196 148.606 30.8005 151.852 34.2452 155.034L34.1814 155.098C30.8643 151.789 27.5472 148.415 24.2301 145.106Z" fill="white"/>
</g>
<defs>
<clipPath id="clip0_262_2544">
<rect width="173" height="174" fill="white" transform="translate(0.5)"/>
</clipPath>
</defs>
</svg>
