<svg width="108" height="617" viewBox="0 0 108 617" fill="none" xmlns="http://www.w3.org/2000/svg">
<g clip-path="url(#clip0_711_492)">
<path d="M0.46875 15.5869C0.46875 9.79912 9.32044 0.573059 51.8929 0.573059C98.212 0.573059 107.485 17.2487 107.485 25.0422" stroke="white" stroke-width="2" stroke-miterlimit="10"/>
<path d="M0.46875 15.5296C0.46875 21.3747 9.32044 30.5434 51.8929 30.5434C98.212 30.5434 107.485 13.8678 107.485 6.07431" stroke="white" stroke-width="2" stroke-miterlimit="10"/>
<path d="M0.46875 34.4401C0.46875 28.6524 9.32044 19.4263 51.8929 19.4263C98.212 19.4263 107.485 36.102 107.485 43.8954" stroke="white" stroke-width="2" stroke-miterlimit="10"/>
<path d="M0.46875 34.3828C0.46875 40.2279 9.32044 49.3967 51.8929 49.3967C98.212 49.3967 107.485 32.721 107.485 24.9276" stroke="white" stroke-width="2" stroke-miterlimit="10"/>
<path d="M0.46875 53.408C0.46875 47.6202 9.32044 38.3942 51.8929 38.3942C98.212 38.3942 107.485 55.0698 107.485 62.8633" stroke="white" stroke-width="2" stroke-miterlimit="10"/>
<path d="M0.46875 53.3507C0.46875 59.1958 9.32044 68.3645 51.8929 68.3645C98.212 68.3645 107.485 51.6889 107.485 43.8954" stroke="white" stroke-width="2" stroke-miterlimit="10"/>
<path d="M0.46875 72.2613C0.46875 66.4735 9.32044 57.2474 51.8929 57.2474C98.212 57.2474 107.485 73.9231 107.485 81.7166" stroke="white" stroke-width="2" stroke-miterlimit="10"/>
<path d="M0.46875 72.204C0.46875 78.0491 9.32044 87.2178 51.8929 87.2178C98.212 87.2178 107.485 70.5421 107.485 62.7487" stroke="white" stroke-width="2" stroke-miterlimit="10"/>
<path d="M0.46875 91.2291C0.46875 85.4413 9.32044 76.2153 51.8929 76.2153C98.212 76.2153 107.485 92.8909 107.485 100.684" stroke="white" stroke-width="2" stroke-miterlimit="10"/>
<path d="M0.46875 91.1145C0.46875 96.9596 9.32044 106.128 51.8929 106.128C98.212 106.128 107.485 89.4527 107.485 81.6592" stroke="white" stroke-width="2" stroke-miterlimit="10"/>
<path d="M0.46875 110.082C0.46875 104.237 9.32044 95.0685 51.8929 95.0685C98.212 95.0685 107.485 111.744 107.485 119.538" stroke="white" stroke-width="2" stroke-miterlimit="10"/>
<path d="M0.46875 109.968C0.46875 115.813 9.32044 124.982 51.8929 124.982C98.212 124.982 107.485 108.306 107.485 100.513" stroke="white" stroke-width="2" stroke-miterlimit="10"/>
<path d="M0.46875 129.05C0.46875 123.262 9.32044 114.036 51.8929 114.036C98.212 114.036 107.485 130.712 107.485 138.506" stroke="white" stroke-width="2" stroke-miterlimit="10"/>
<path d="M0.46875 128.993C0.46875 134.838 9.32044 144.007 51.8929 144.007C98.212 144.007 107.485 127.331 107.485 119.538" stroke="white" stroke-width="2" stroke-miterlimit="10"/>
<path d="M0.46875 147.904C0.46875 142.058 9.32044 132.89 51.8929 132.89C98.212 132.89 107.485 149.565 107.485 157.359" stroke="white" stroke-width="2" stroke-miterlimit="10"/>
<path d="M0.46875 147.846C0.46875 153.691 9.32044 162.86 51.8929 162.86C98.212 162.86 107.485 146.184 107.485 138.391" stroke="white" stroke-width="2" stroke-miterlimit="10"/>
<path d="M0.46875 166.814C0.46875 160.969 9.32044 151.8 51.8929 151.8C98.212 151.8 107.485 168.476 107.485 176.269" stroke="white" stroke-width="2" stroke-miterlimit="10"/>
<path d="M0.46875 166.699C0.46875 172.545 9.32044 181.713 51.8929 181.713C98.212 181.713 107.485 165.038 107.485 157.244" stroke="white" stroke-width="2" stroke-miterlimit="10"/>
<path d="M0.46875 185.667C0.46875 179.822 9.32044 170.654 51.8929 170.654C98.212 170.654 107.485 187.329 107.485 195.123" stroke="white" stroke-width="2" stroke-miterlimit="10"/>
<path d="M0.46875 185.553C0.46875 191.398 9.32044 200.567 51.8929 200.567C98.212 200.567 107.485 183.891 107.485 176.097" stroke="white" stroke-width="2" stroke-miterlimit="10"/>
<path d="M0.46875 204.635C0.46875 198.79 9.32044 189.621 51.8929 189.621C98.212 189.621 107.485 206.297 107.485 214.09" stroke="white" stroke-width="2" stroke-miterlimit="10"/>
<path d="M0.46875 204.521C0.46875 210.366 9.32044 219.534 51.8929 219.534C98.212 219.534 107.485 202.859 107.485 195.065" stroke="white" stroke-width="2" stroke-miterlimit="10"/>
<path d="M0.46875 223.488C0.46875 217.643 9.32044 208.475 51.8929 208.475C98.212 208.475 107.485 225.15 107.485 232.944" stroke="white" stroke-width="2" stroke-miterlimit="10"/>
<path d="M0.46875 223.374C0.46875 229.219 9.32044 238.388 51.8929 238.388C98.212 238.388 107.485 221.712 107.485 213.919" stroke="white" stroke-width="2" stroke-miterlimit="10"/>
<path d="M0.46875 242.456C0.46875 236.611 9.32044 227.442 51.8929 227.442C98.212 227.442 107.485 244.118 107.485 251.912" stroke="white" stroke-width="2" stroke-miterlimit="10"/>
<path d="M0.46875 242.342C0.46875 248.187 9.32044 257.356 51.8929 257.356C98.212 257.356 107.485 240.68 107.485 232.886" stroke="white" stroke-width="2" stroke-miterlimit="10"/>
<path d="M0.46875 261.31C0.46875 255.464 9.32044 246.296 51.8929 246.296C98.212 246.296 107.485 262.971 107.485 270.765" stroke="white" stroke-width="2" stroke-miterlimit="10"/>
<path d="M0.46875 261.195C0.46875 267.04 9.32044 276.209 51.8929 276.209C98.212 276.209 107.485 259.533 107.485 251.74" stroke="white" stroke-width="2" stroke-miterlimit="10"/>
<path d="M0.46875 280.277C0.46875 274.432 9.32044 265.264 51.8929 265.264C98.212 265.264 107.485 281.939 107.485 289.733" stroke="white" stroke-width="2" stroke-miterlimit="10"/>
<path d="M0.46875 280.163C0.46875 286.008 9.32044 295.177 51.8929 295.177C98.212 295.177 107.485 278.501 107.485 270.708" stroke="white" stroke-width="2" stroke-miterlimit="10"/>
<path d="M0.46875 299.131C0.46875 293.286 9.32044 284.117 51.8929 284.117C98.212 284.117 107.485 300.793 107.485 308.586" stroke="white" stroke-width="2" stroke-miterlimit="10"/>
<path d="M0.46875 299.016C0.46875 304.861 9.32044 314.03 51.8929 314.03C98.212 314.03 107.485 297.354 107.485 289.561" stroke="white" stroke-width="2" stroke-miterlimit="10"/>
<path d="M0.46875 317.984C0.46875 312.139 9.32044 302.97 51.8929 302.97C98.212 302.97 107.485 319.646 107.485 327.439" stroke="white" stroke-width="2" stroke-miterlimit="10"/>
<path d="M0.46875 317.927C0.46875 323.714 9.32044 332.94 51.8929 332.94C98.212 332.94 107.485 316.265 107.485 308.471" stroke="white" stroke-width="2" stroke-miterlimit="10"/>
<path d="M0.46875 336.837C0.46875 330.992 9.32044 321.823 51.8929 321.823C98.212 321.823 107.485 338.499 107.485 346.293" stroke="white" stroke-width="2" stroke-miterlimit="10"/>
<path d="M0.46875 336.78C0.46875 342.625 9.32044 351.794 51.8929 351.794C98.212 351.794 107.485 335.118 107.485 327.325" stroke="white" stroke-width="2" stroke-miterlimit="10"/>
<path d="M0.46875 355.805C0.46875 349.96 9.32044 340.791 51.8929 340.791C98.212 340.791 107.485 357.467 107.485 365.26" stroke="white" stroke-width="2" stroke-miterlimit="10"/>
<path d="M0.46875 355.748C0.46875 361.536 9.32044 370.762 51.8929 370.762C98.212 370.762 107.485 354.086 107.485 346.292" stroke="white" stroke-width="2" stroke-miterlimit="10"/>
<path d="M0.46875 374.658C0.46875 368.813 9.32044 359.644 51.8929 359.644C98.212 359.644 107.485 376.32 107.485 384.114" stroke="white" stroke-width="2" stroke-miterlimit="10"/>
<path d="M0.46875 374.601C0.46875 380.446 9.32044 389.615 51.8929 389.615C98.212 389.615 107.485 372.939 107.485 365.146" stroke="white" stroke-width="2" stroke-miterlimit="10"/>
<path d="M0.46875 393.626C0.46875 387.781 9.32044 378.612 51.8929 378.612C98.212 378.612 107.485 395.288 107.485 403.081" stroke="white" stroke-width="2" stroke-miterlimit="10"/>
<path d="M0.46875 393.512C0.46875 399.357 9.32044 408.583 51.8929 408.583C98.212 408.583 107.485 391.907 107.485 384.114" stroke="white" stroke-width="2" stroke-miterlimit="10"/>
<path d="M0.46875 412.479C0.46875 406.634 9.32044 397.466 51.8929 397.466C98.212 397.466 107.485 414.141 107.485 421.935" stroke="white" stroke-width="2" stroke-miterlimit="10"/>
<path d="M0.46875 412.422C0.46875 418.267 9.32044 427.436 51.8929 427.436C98.212 427.436 107.485 410.76 107.485 402.967" stroke="white" stroke-width="2" stroke-miterlimit="10"/>
<path d="M0.46875 431.447C0.46875 425.602 9.32044 416.433 51.8929 416.433C98.212 416.433 107.485 433.109 107.485 440.903" stroke="white" stroke-width="2" stroke-miterlimit="10"/>
<path d="M0.46875 431.39C0.46875 437.178 9.32044 446.404 51.8929 446.404C98.212 446.404 107.485 429.728 107.485 421.935" stroke="white" stroke-width="2" stroke-miterlimit="10"/>
<path d="M0.46875 450.301C0.46875 444.456 9.32044 435.287 51.8929 435.287C98.212 435.287 107.485 451.962 107.485 459.756" stroke="white" stroke-width="2" stroke-miterlimit="10"/>
<path d="M0.46875 450.243C0.46875 456.088 9.32044 465.257 51.8929 465.257C98.212 465.257 107.485 448.581 107.485 440.788" stroke="white" stroke-width="2" stroke-miterlimit="10"/>
<path d="M0.46875 469.211C0.46875 463.366 9.32044 454.197 51.8929 454.197C98.212 454.197 107.485 470.873 107.485 478.666" stroke="white" stroke-width="2" stroke-miterlimit="10"/>
<path d="M0.46875 469.097C0.46875 474.942 9.32044 484.11 51.8929 484.11C98.212 484.11 107.485 467.435 107.485 459.641" stroke="white" stroke-width="2" stroke-miterlimit="10"/>
<path d="M0.46875 488.064C0.46875 482.219 9.32044 473.051 51.8929 473.051C98.212 473.051 107.485 489.726 107.485 497.52" stroke="white" stroke-width="2" stroke-miterlimit="10"/>
<path d="M0.46875 487.95C0.46875 493.795 9.32044 502.964 51.8929 502.964C98.212 502.964 107.485 486.288 107.485 478.495" stroke="white" stroke-width="2" stroke-miterlimit="10"/>
<path d="M0.46875 507.032C0.46875 501.187 9.32044 492.018 51.8929 492.018C98.212 492.018 107.485 508.694 107.485 516.488" stroke="white" stroke-width="2" stroke-miterlimit="10"/>
<path d="M0.46875 506.918C0.46875 512.763 9.32044 521.932 51.8929 521.932C98.212 521.932 107.485 505.256 107.485 497.462" stroke="white" stroke-width="2" stroke-miterlimit="10"/>
<path d="M0.46875 525.886C0.46875 520.04 9.32044 510.872 51.8929 510.872C98.212 510.872 107.485 527.547 107.485 535.341" stroke="white" stroke-width="2" stroke-miterlimit="10"/>
<path d="M0.46875 525.771C0.46875 531.616 9.32044 540.785 51.8929 540.785C98.212 540.785 107.485 524.109 107.485 516.316" stroke="white" stroke-width="2" stroke-miterlimit="10"/>
<path d="M0.46875 544.853C0.46875 539.008 9.32044 529.84 51.8929 529.84C98.212 529.84 107.485 546.515 107.485 554.309" stroke="white" stroke-width="2" stroke-miterlimit="10"/>
<path d="M0.46875 544.739C0.46875 550.584 9.32044 559.753 51.8929 559.753C98.212 559.753 107.485 543.077 107.485 535.283" stroke="white" stroke-width="2" stroke-miterlimit="10"/>
<path d="M0.46875 563.707C0.46875 557.862 9.32044 548.693 51.8929 548.693C98.212 548.693 107.485 565.368 107.485 573.162" stroke="white" stroke-width="2" stroke-miterlimit="10"/>
<path d="M0.46875 563.592C0.46875 569.437 9.32044 578.606 51.8929 578.606C98.212 578.606 107.485 561.93 107.485 554.137" stroke="white" stroke-width="2" stroke-miterlimit="10"/>
<path d="M0.46875 582.675C0.46875 576.829 9.32044 567.661 51.8929 567.661C98.212 567.661 107.485 584.336 107.485 592.13" stroke="white" stroke-width="2" stroke-miterlimit="10"/>
<path d="M0.46875 582.56C0.46875 588.405 9.32044 597.574 51.8929 597.574C98.212 597.574 107.485 580.898 107.485 573.105" stroke="white" stroke-width="2" stroke-miterlimit="10"/>
<path d="M0.46875 601.528C0.46875 595.683 9.32044 586.514 51.8929 586.514C98.212 586.514 107.485 603.19 107.485 610.983" stroke="white" stroke-width="2" stroke-miterlimit="10"/>
<path d="M0.46875 601.413C0.46875 607.258 9.32044 616.427 51.8929 616.427C98.212 616.427 107.485 599.751 107.485 591.958" stroke="white" stroke-width="2" stroke-miterlimit="10"/>
</g>
<defs>
<clipPath id="clip0_711_492">
<rect width="108" height="617" fill="white"/>
</clipPath>
</defs>
</svg>
