<?xml version="1.0" encoding="UTF-8" standalone="no"?>
<svg
   width="108"
   height="617"
   viewBox="0 0 108 617"
   fill="none"
   version="1.1"
   id="svg137"
   sodipodi:docname="spira2l.svg"
   inkscape:version="1.2-beta (1b65182ce9, 2022-04-05)"
   xmlns:inkscape="http://www.inkscape.org/namespaces/inkscape"
   xmlns:sodipodi="http://sodipodi.sourceforge.net/DTD/sodipodi-0.dtd"
   xmlns="http://www.w3.org/2000/svg"
   xmlns:svg="http://www.w3.org/2000/svg">
  <sodipodi:namedview
     id="namedview139"
     pagecolor="#ffffff"
     bordercolor="#666666"
     borderopacity="1.0"
     inkscape:pageshadow="2"
     inkscape:pageopacity="0.0"
     inkscape:pagecheckerboard="0"
     inkscape:deskcolor="#d1d1d1"
     showgrid="false"
     inkscape:zoom="1.3192869"
     inkscape:cx="35.625307"
     inkscape:cy="369.51781"
     inkscape:window-width="1920"
     inkscape:window-height="1001"
     inkscape:window-x="-9"
     inkscape:window-y="-9"
     inkscape:window-maximized="1"
     inkscape:current-layer="layer1" />
  <defs
     id="defs135">
    <clipPath
       id="clip0_711_492">
      <rect
         width="108"
         height="617"
         fill="white"
         id="rect132" />
    </clipPath>
  </defs>
  <g
     inkscape:groupmode="layer"
     id="layer1"
     inkscape:label="Layer 1">
    <g
       clip-path="url(#clip0_711_492)"
       id="g130"
       style="display:inline">
      <path
         d="m 0.46875,15.5869 c 0,-5.78778 8.85169,-15.013841 51.42415,-15.013841 46.3191,0 55.5921,16.675641 55.5921,24.469141"
         stroke="#ffffff"
         stroke-width="2"
         stroke-miterlimit="10"
         id="path2" />
      <path
         d="m 0.46875,15.5296 c 0,5.8451 8.85169,15.0138 51.42415,15.0138 46.3191,0 55.5921,-16.6756 55.5921,-24.46909"
         stroke="#ffffff"
         stroke-width="2"
         stroke-miterlimit="10"
         id="path4" />
      <path
         d="m 0.46875,34.4401 c 0,-5.7877 8.85169,-15.0138 51.42415,-15.0138 46.3191,0 55.5921,16.6757 55.5921,24.4691"
         stroke="#ffffff"
         stroke-width="2"
         stroke-miterlimit="10"
         id="path6" />
      <path
         d="m 0.46875,34.3828 c 0,5.8451 8.85169,15.0139 51.42415,15.0139 46.3191,0 55.5921,-16.6757 55.5921,-24.4691"
         stroke="#ffffff"
         stroke-width="2"
         stroke-miterlimit="10"
         id="path8" />
      <path
         d="m 0.46875,53.408 c 0,-5.7878 8.85169,-15.0138 51.42415,-15.0138 46.3191,0 55.5921,16.6756 55.5921,24.4691"
         stroke="#ffffff"
         stroke-width="2"
         stroke-miterlimit="10"
         id="path10" />
      <path
         d="m 0.46875,53.3507 c 0,5.8451 8.85169,15.0138 51.42415,15.0138 46.3191,0 55.5921,-16.6756 55.5921,-24.4691"
         stroke="#ffffff"
         stroke-width="2"
         stroke-miterlimit="10"
         id="path12" />
      <path
         d="m 0.46875,72.2613 c 0,-5.7878 8.85169,-15.0139 51.42415,-15.0139 46.3191,0 55.5921,16.6757 55.5921,24.4692"
         stroke="#ffffff"
         stroke-width="2"
         stroke-miterlimit="10"
         id="path14" />
      <path
         d="m 0.46875,72.204 c 0,5.8451 8.85169,15.0138 51.42415,15.0138 46.3191,0 55.5921,-16.6757 55.5921,-24.4691"
         stroke="#ffffff"
         stroke-width="2"
         stroke-miterlimit="10"
         id="path16" />
      <path
         d="m 0.46875,91.2291 c 0,-5.7878 8.85169,-15.0138 51.42415,-15.0138 46.3191,0 55.5921,16.6756 55.5921,24.4687"
         stroke="#ffffff"
         stroke-width="2"
         stroke-miterlimit="10"
         id="path18" />
      <path
         d="m 0.46875,91.1145 c 0,5.8451 8.85169,15.0135 51.42415,15.0135 46.3191,0 55.5921,-16.6753 55.5921,-24.4688"
         stroke="#ffffff"
         stroke-width="2"
         stroke-miterlimit="10"
         id="path20" />
      <path
         d="m 0.46875,110.082 c 0,-5.845 8.85169,-15.0135 51.42415,-15.0135 46.3191,0 55.5921,16.6755 55.5921,24.4695"
         stroke="#ffffff"
         stroke-width="2"
         stroke-miterlimit="10"
         id="path22" />
      <path
         d="m 0.46875,109.968 c 0,5.845 8.85169,15.014 51.42415,15.014 46.3191,0 55.5921,-16.676 55.5921,-24.469"
         stroke="#ffffff"
         stroke-width="2"
         stroke-miterlimit="10"
         id="path24" />
      <path
         d="m 0.46875,129.05 c 0,-5.788 8.85169,-15.014 51.42415,-15.014 46.3191,0 55.5921,16.676 55.5921,24.47"
         stroke="#ffffff"
         stroke-width="2"
         stroke-miterlimit="10"
         id="path26" />
      <path
         d="m 0.46875,128.993 c 0,5.845 8.85169,15.014 51.42415,15.014 46.3191,0 55.5921,-16.676 55.5921,-24.469"
         stroke="#ffffff"
         stroke-width="2"
         stroke-miterlimit="10"
         id="path28" />
      <path
         d="m 0.46875,147.904 c 0,-5.846 8.85169,-15.014 51.42415,-15.014 46.3191,0 55.5921,16.675 55.5921,24.469"
         stroke="#ffffff"
         stroke-width="2"
         stroke-miterlimit="10"
         id="path30" />
      <path
         d="m 0.46875,147.846 c 0,5.845 8.85169,15.014 51.42415,15.014 46.3191,0 55.5921,-16.676 55.5921,-24.469"
         stroke="#ffffff"
         stroke-width="2"
         stroke-miterlimit="10"
         id="path32" />
      <path
         d="m 0.46875,166.814 c 0,-5.845 8.85169,-15.014 51.42415,-15.014 46.3191,0 55.5921,16.676 55.5921,24.469"
         stroke="#ffffff"
         stroke-width="2"
         stroke-miterlimit="10"
         id="path34" />
      <path
         d="m 0.46875,166.699 c 0,5.846 8.85169,15.014 51.42415,15.014 46.3191,0 55.5921,-16.675 55.5921,-24.469"
         stroke="#ffffff"
         stroke-width="2"
         stroke-miterlimit="10"
         id="path36" />
      <path
         d="m 0.46875,185.667 c 0,-5.845 8.85169,-15.013 51.42415,-15.013 46.3191,0 55.5921,16.675 55.5921,24.469"
         stroke="#ffffff"
         stroke-width="2"
         stroke-miterlimit="10"
         id="path38" />
      <path
         d="m 0.46875,185.553 c 0,5.845 8.85169,15.014 51.42415,15.014 46.3191,0 55.5921,-16.676 55.5921,-24.47"
         stroke="#ffffff"
         stroke-width="2"
         stroke-miterlimit="10"
         id="path40" />
      <path
         d="m 0.46875,204.635 c 0,-5.845 8.85169,-15.014 51.42415,-15.014 46.3191,0 55.5921,16.676 55.5921,24.469"
         stroke="#ffffff"
         stroke-width="2"
         stroke-miterlimit="10"
         id="path42" />
      <path
         d="m 0.46875,204.521 c 0,5.845 8.85169,15.013 51.42415,15.013 46.3191,0 55.5921,-16.675 55.5921,-24.469"
         stroke="#ffffff"
         stroke-width="2"
         stroke-miterlimit="10"
         id="path44" />
      <path
         d="m 0.46875,223.488 c 0,-5.845 8.85169,-15.013 51.42415,-15.013 46.3191,0 55.5921,16.675 55.5921,24.469"
         stroke="#ffffff"
         stroke-width="2"
         stroke-miterlimit="10"
         id="path46" />
      <path
         d="m 0.46875,223.374 c 0,5.845 8.85169,15.014 51.42415,15.014 46.3191,0 55.5921,-16.676 55.5921,-24.469"
         stroke="#ffffff"
         stroke-width="2"
         stroke-miterlimit="10"
         id="path48" />
      <path
         d="m 0.46875,242.456 c 0,-5.845 8.85169,-15.014 51.42415,-15.014 46.3191,0 55.5921,16.676 55.5921,24.47"
         stroke="#ffffff"
         stroke-width="2"
         stroke-miterlimit="10"
         id="path50" />
      <path
         d="m 0.46875,242.342 c 0,5.845 8.85169,15.014 51.42415,15.014 46.3191,0 55.5921,-16.676 55.5921,-24.47"
         stroke="#ffffff"
         stroke-width="2"
         stroke-miterlimit="10"
         id="path52" />
      <path
         d="m 0.46875,261.31 c 0,-5.846 8.85169,-15.014 51.42415,-15.014 46.3191,0 55.5921,16.675 55.5921,24.469"
         stroke="#ffffff"
         stroke-width="2"
         stroke-miterlimit="10"
         id="path54" />
      <path
         d="m 0.46875,261.195 c 0,5.845 8.85169,15.014 51.42415,15.014 46.3191,0 55.5921,-16.676 55.5921,-24.469"
         stroke="#ffffff"
         stroke-width="2"
         stroke-miterlimit="10"
         id="path56" />
      <path
         d="m 0.46875,280.277 c 0,-5.845 8.85169,-15.013 51.42415,-15.013 46.3191,0 55.5921,16.675 55.5921,24.469"
         stroke="#ffffff"
         stroke-width="2"
         stroke-miterlimit="10"
         id="path58" />
      <path
         d="m 0.46875,280.163 c 0,5.845 8.85169,15.014 51.42415,15.014 46.3191,0 55.5921,-16.676 55.5921,-24.469"
         stroke="#ffffff"
         stroke-width="2"
         stroke-miterlimit="10"
         id="path60" />
      <path
         d="m 0.46875,299.131 c 0,-5.845 8.85169,-15.014 51.42415,-15.014 46.3191,0 55.5921,16.676 55.5921,24.469"
         stroke="#ffffff"
         stroke-width="2"
         stroke-miterlimit="10"
         id="path62" />
      <path
         d="m 0.46875,299.016 c 0,5.845 8.85169,15.014 51.42415,15.014 46.3191,0 55.5921,-16.676 55.5921,-24.469"
         stroke="#ffffff"
         stroke-width="2"
         stroke-miterlimit="10"
         id="path64" />
      <path
         d="m 0.46875,317.984 c 0,-5.845 8.85169,-15.014 51.42415,-15.014 46.3191,0 55.5921,16.676 55.5921,24.469"
         stroke="#ffffff"
         stroke-width="2"
         stroke-miterlimit="10"
         id="path66" />
      <path
         d="m 0.46875,317.927 c 0,5.787 8.85169,15.013 51.42415,15.013 46.3191,0 55.5921,-16.675 55.5921,-24.469"
         stroke="#ffffff"
         stroke-width="2"
         stroke-miterlimit="10"
         id="path68" />
      <path
         d="m 0.46875,336.837 c 0,-5.845 8.85169,-15.014 51.42415,-15.014 46.3191,0 55.5921,16.676 55.5921,24.47"
         stroke="#ffffff"
         stroke-width="2"
         stroke-miterlimit="10"
         id="path70" />
      <path
         d="m 0.46875,336.78 c 0,5.845 8.85169,15.014 51.42415,15.014 46.3191,0 55.5921,-16.676 55.5921,-24.469"
         stroke="#ffffff"
         stroke-width="2"
         stroke-miterlimit="10"
         id="path72" />
      <path
         d="m 0.46875,355.805 c 0,-5.845 8.85169,-15.014 51.42415,-15.014 46.3191,0 55.5921,16.676 55.5921,24.469"
         stroke="#ffffff"
         stroke-width="2"
         stroke-miterlimit="10"
         id="path74" />
      <path
         d="m 0.46875,355.748 c 0,5.788 8.85169,15.014 51.42415,15.014 46.3191,0 55.5921,-16.676 55.5921,-24.47"
         stroke="#ffffff"
         stroke-width="2"
         stroke-miterlimit="10"
         id="path76" />
      <path
         d="m 0.46875,374.658 c 0,-5.845 8.85169,-15.014 51.42415,-15.014 46.3191,0 55.5921,16.676 55.5921,24.47"
         stroke="#ffffff"
         stroke-width="2"
         stroke-miterlimit="10"
         id="path78" />
      <path
         d="m 0.46875,374.601 c 0,5.845 8.85169,15.014 51.42415,15.014 46.3191,0 55.5921,-16.676 55.5921,-24.469"
         stroke="#ffffff"
         stroke-width="2"
         stroke-miterlimit="10"
         id="path80" />
      <path
         d="m 0.46875,393.626 c 0,-5.845 8.85169,-15.014 51.42415,-15.014 46.3191,0 55.5921,16.676 55.5921,24.469"
         stroke="#ffffff"
         stroke-width="2"
         stroke-miterlimit="10"
         id="path82" />
      <path
         d="m 0.46875,393.512 c 0,5.845 8.85169,15.071 51.42415,15.071 46.3191,0 55.5921,-16.676 55.5921,-24.469"
         stroke="#ffffff"
         stroke-width="2"
         stroke-miterlimit="10"
         id="path84" />
      <path
         d="m 0.46875,412.479 c 0,-5.845 8.85169,-15.013 51.42415,-15.013 46.3191,0 55.5921,16.675 55.5921,24.469"
         stroke="#ffffff"
         stroke-width="2"
         stroke-miterlimit="10"
         id="path86" />
      <path
         d="m 0.46875,412.422 c 0,5.845 8.85169,15.014 51.42415,15.014 46.3191,0 55.5921,-16.676 55.5921,-24.469"
         stroke="#ffffff"
         stroke-width="2"
         stroke-miterlimit="10"
         id="path88" />
      <path
         d="m 0.46875,431.447 c 0,-5.845 8.85169,-15.014 51.42415,-15.014 46.3191,0 55.5921,16.676 55.5921,24.47"
         stroke="#ffffff"
         stroke-width="2"
         stroke-miterlimit="10"
         id="path90" />
      <path
         d="m 0.46875,431.39 c 0,5.788 8.85169,15.014 51.42415,15.014 46.3191,0 55.5921,-16.676 55.5921,-24.469"
         stroke="#ffffff"
         stroke-width="2"
         stroke-miterlimit="10"
         id="path92" />
      <path
         d="m 0.46875,450.301 c 0,-5.845 8.85169,-15.014 51.42415,-15.014 46.3191,0 55.5921,16.675 55.5921,24.469"
         stroke="#ffffff"
         stroke-width="2"
         stroke-miterlimit="10"
         id="path94" />
      <path
         d="m 0.46875,450.243 c 0,5.845 8.85169,15.014 51.42415,15.014 46.3191,0 55.5921,-16.676 55.5921,-24.469"
         stroke="#ffffff"
         stroke-width="2"
         stroke-miterlimit="10"
         id="path96" />
      <path
         d="m 0.46875,469.211 c 0,-5.845 8.85169,-15.014 51.42415,-15.014 46.3191,0 55.5921,16.676 55.5921,24.469"
         stroke="#ffffff"
         stroke-width="2"
         stroke-miterlimit="10"
         id="path98" />
      <path
         d="m 0.46875,469.097 c 0,5.845 8.85169,15.013 51.42415,15.013 46.3191,0 55.5921,-16.675 55.5921,-24.469"
         stroke="#ffffff"
         stroke-width="2"
         stroke-miterlimit="10"
         id="path100" />
      <path
         d="m 0.46875,488.064 c 0,-5.845 8.85169,-15.013 51.42415,-15.013 46.3191,0 55.5921,16.675 55.5921,24.469"
         stroke="#ffffff"
         stroke-width="2"
         stroke-miterlimit="10"
         id="path102" />
      <path
         d="m 0.46875,487.95 c 0,5.845 8.85169,15.014 51.42415,15.014 46.3191,0 55.5921,-16.676 55.5921,-24.469"
         stroke="#ffffff"
         stroke-width="2"
         stroke-miterlimit="10"
         id="path104" />
      <path
         d="m 0.46875,507.032 c 0,-5.845 8.85169,-15.014 51.42415,-15.014 46.3191,0 55.5921,16.676 55.5921,24.47"
         stroke="#ffffff"
         stroke-width="2"
         stroke-miterlimit="10"
         id="path106" />
      <path
         d="m 0.46875,506.918 c 0,5.845 8.85169,15.014 51.42415,15.014 46.3191,0 55.5921,-16.676 55.5921,-24.47"
         stroke="#ffffff"
         stroke-width="2"
         stroke-miterlimit="10"
         id="path108" />
      <path
         d="m 0.46875,525.886 c 0,-5.846 8.85169,-15.014 51.42415,-15.014 46.3191,0 55.5921,16.675 55.5921,24.469"
         stroke="#ffffff"
         stroke-width="2"
         stroke-miterlimit="10"
         id="path110" />
      <path
         d="m 0.46875,525.771 c 0,5.845 8.85169,15.014 51.42415,15.014 46.3191,0 55.5921,-16.676 55.5921,-24.469"
         stroke="#ffffff"
         stroke-width="2"
         stroke-miterlimit="10"
         id="path112" />
      <path
         d="m 0.46875,544.853 c 0,-5.845 8.85169,-15.013 51.42415,-15.013 46.3191,0 55.5921,16.675 55.5921,24.469"
         stroke="#ffffff"
         stroke-width="2"
         stroke-miterlimit="10"
         id="path114" />
      <path
         d="m 0.46875,544.739 c 0,5.845 8.85169,15.014 51.42415,15.014 46.3191,0 55.5921,-16.676 55.5921,-24.47"
         stroke="#ffffff"
         stroke-width="2"
         stroke-miterlimit="10"
         id="path116" />
      <path
         d="m 0.46875,563.707 c 0,-5.845 8.85169,-15.014 51.42415,-15.014 46.3191,0 55.5921,16.675 55.5921,24.469"
         stroke="#ffffff"
         stroke-width="2"
         stroke-miterlimit="10"
         id="path118" />
      <path
         d="m 0.46875,563.592 c 0,5.845 8.85169,15.014 51.42415,15.014 46.3191,0 55.5921,-16.676 55.5921,-24.469"
         stroke="#ffffff"
         stroke-width="2"
         stroke-miterlimit="10"
         id="path120" />
      <path
         d="m 0.46875,582.675 c 0,-5.846 8.85169,-15.014 51.42415,-15.014 46.3191,0 55.5921,16.675 55.5921,24.469"
         stroke="#ffffff"
         stroke-width="2"
         stroke-miterlimit="10"
         id="path122" />
      <path
         d="m 0.46875,582.56 c 0,5.845 8.85169,15.014 51.42415,15.014 46.3191,0 55.5921,-16.676 55.5921,-24.469"
         stroke="#ffffff"
         stroke-width="2"
         stroke-miterlimit="10"
         id="path124" />
      <path
         d="m 0.46875,601.528 c 0,-5.845 8.85169,-15.014 51.42415,-15.014 46.3191,0 55.5921,16.676 55.5921,24.469"
         stroke="#ffffff"
         stroke-width="2"
         stroke-miterlimit="10"
         id="path126" />
      <path
         d="m 0.46875,601.413 c 0,5.845 8.85169,15.014 51.42415,15.014 46.3191,0 55.5921,-16.676 55.5921,-24.469"
         stroke="#ffffff"
         stroke-width="2"
         stroke-miterlimit="10"
         id="path128" />
      <path
         d="m 1.0668141,-3.4893276 c 0,5.8451 8.85169,15.0137996 51.4241459,15.0137996 46.3191,0 55.5921,-16.6755996 55.5921,-24.46909"
         stroke="#ffffff"
         stroke-width="2"
         stroke-miterlimit="10"
         id="path4-6"
         style="display:inline" />
      <path
         d="m 3.0668133,617.51043 c 0,5.845 8.8516897,15.014 51.4241497,15.014 46.319097,0 55.592097,-16.676 55.592097,-24.469"
         stroke="#ffffff"
         stroke-width="2"
         stroke-miterlimit="10"
         id="path128-4"
         style="display:inline" />
      <path
         d="m 1.0668138,621.52152 c 0,-5.845 8.85169,-15.014 51.4241502,-15.014 46.3191,0 55.592096,16.676 55.592096,24.469"
         stroke="#ffffff"
         stroke-width="2"
         stroke-miterlimit="10"
         id="path126-7"
         style="display:inline" />
    </g>
  </g>
</svg>
