<svg id="Layer_1" data-name="Layer 1" xmlns="http://www.w3.org/2000/svg" viewBox="0 0 2112.79 569.78">
  <defs>
    <style>
      .cls-1 {
        fill: #fff;
      }
    </style>
  </defs>
  <path class="cls-1" d="M-238-774.45H841.29c3.22,0,3.23-5,0-5H-238c-3.22,0-3.22,5,0,5Z" transform="translate(1267.96 1059.99)"/>
  <path class="cls-1" d="M-25.39-581.33c4.72-6.94,10.75-13.61,16.82-20.07a343.44,343.44,0,0,1,54-46.29,410.6,410.6,0,0,1,94-48.88c33.13-12.08,68.31-18.43,103.3-22.12a566.81,566.81,0,0,1,58.54-3.42c13.13,0,26.27.6,39.37,1.55,33.3,2.41,66.63,7.14,98.87,15.95,35.3,9.65,69.17,25.21,100.29,44.38a366.33,366.33,0,0,1,63.31,48.88c9.1,8.85,18.46,18.83,25.6,28.63.33.46.66.91,1,1.37,1.8,2.65,6.13.15,4.31-2.52-5.13-7.54-11.37-14.46-17.6-21.09a349.93,349.93,0,0,0-54.28-46.57A416.72,416.72,0,0,0,467.19-701c-33.28-12.28-68.66-18.66-103.83-22.46a567.18,567.18,0,0,0-60.27-3.6c-13.55,0-27.1.64-40.61,1.64C228.79-723,195-718.14,162.43-709.12,127-699.31,92.84-683.59,61.56-664.28A372.33,372.33,0,0,0-2.35-614.86a235.64,235.64,0,0,0-26.34,29.59c-.35.47-.69.94-1,1.42-1.81,2.67,2.52,5.17,4.32,2.52Z" transform="translate(1267.96 1059.99)"/>
  <path class="cls-1" d="M-220.26-904c7.81,3.56,15.69,7,23.59,10.33,18.16,7.74,36.46,15.17,54.94,22.12q31.35,11.79,63.51,21.06c20,5.74,40.07,10.93,60.26,15.79,10.44,2.52,20.9,5.07,31.41,7.24l.46.1c3.14.67,4.48-4.15,1.33-4.82C6.64-834-1.92-836-10.47-838.06c-19.48-4.61-38.89-9.54-58.18-14.93-21.54-6-42.84-12.75-63.84-20.45-19.09-7-38-14.56-56.72-22.46-9.38-4-18.79-8.06-28.11-12.24l-.41-.18a2.57,2.57,0,0,0-3.42.89,2.52,2.52,0,0,0,.89,3.42Z" transform="translate(1267.96 1059.99)"/>
  <path class="cls-1" d="M-173.84-994.94c4.6,4.83,9.52,9.35,14.46,13.81a481.11,481.11,0,0,0,40,32.34A567.4,567.4,0,0,0-63-913.16q22.41,12.55,45.72,23.44,7.11,3.3,14.3,6.42c2.35,1,4.7,2.14,7.12,3l.29.11a2.51,2.51,0,0,0,3.07-1.74A2.56,2.56,0,0,0,5.78-885l-1.17-.47-1.4-.57-.86-.37-.51-.21c-.59-.24.49.21-.13-.05q-6.3-2.68-12.51-5.52-22-10.06-43.24-21.71a592.94,592.94,0,0,1-56.41-34.62,474,474,0,0,1-42-33.05c-6.06-5.36-11.87-11-17.65-16.63l-.23-.24c-2.22-2.34-5.76,1.2-3.54,3.53Z" transform="translate(1267.96 1059.99)"/>
  <path class="cls-1" d="M-110.41-1026.7c10.36,12.91,21.17,25.49,32.19,37.85a727.22,727.22,0,0,0,55.85,56c4.77,4.31,9.57,8.59,14.46,12.75a2.56,2.56,0,0,0,3.54,0,2.51,2.51,0,0,0,0-3.53c-13.07-11.14-25.73-22.82-38-34.81-18.71-18.25-36.11-37.83-52.93-57.83-3.89-4.63-7.76-9.28-11.55-14a2.51,2.51,0,0,0-3.53,0,2.56,2.56,0,0,0,0,3.54Z" transform="translate(1267.96 1059.99)"/>
  <path class="cls-1" d="M-108.95-520.9c11.11-13.86,22.72-27.34,34.59-40.55A773.47,773.47,0,0,1-18-617.58c4.74-4.28,9.5-8.55,14.34-12.73a2.52,2.52,0,0,0,0-3.53,2.55,2.55,0,0,0-3.54,0C-20.12-622.66-32.73-611-45-599.17c-19.49,18.84-37.61,39-55.07,59.74-4.18,4.95-8.33,9.93-12.39,15a2.58,2.58,0,0,0,0,3.54,2.53,2.53,0,0,0,3.54,0Z" transform="translate(1267.96 1059.99)"/>
  <path class="cls-1" d="M-170.3-555.44c4.53-4.76,9.39-9.23,14.26-13.63a469.54,469.54,0,0,1,39.2-31.73,568.36,568.36,0,0,1,56.19-35.52q22.4-12.55,45.66-23.43c4.75-2.21,9.52-4.37,14.33-6.44l2.49-1.07c.39-.16-.57.24,0,0l.45-.19.92-.38,2.28-.94.29-.11A2.58,2.58,0,0,0,7.52-672a2.51,2.51,0,0,0-3.07-1.74c-5.93,2.34-11.75,5-17.55,7.59-14.75,6.73-29.24,14-43.46,21.81a593.76,593.76,0,0,0-56.6,34.75A489.41,489.41,0,0,0-155.73-576c-6.11,5.39-12.32,10.86-17.87,16.83l-.24.24c-2.21,2.33,1.32,5.87,3.54,3.53Z" transform="translate(1267.96 1059.99)"/>
  <path class="cls-1" d="M-218.88-645.07c7.62-3.46,15.3-6.79,23-10.08,17.61-7.53,35.4-14.77,53.34-21.56q31.25-11.84,63.3-21.2C-59-703.78-38.62-709.08-18.16-714c10.57-2.55,21.21-4.78,31.76-7.33l.47-.1c3.14-.67,1.81-5.49-1.33-4.82-8.84,1.89-17.64,3.95-26.43,6-19.81,4.72-39.55,9.76-59.15,15.3q-32.43,9.15-64,20.78c-18.84,7-37.47,14.5-56,22.32q-9.53,4-19,8.18c-3.06,1.35-6.18,2.63-9.19,4.09l-.4.19a2.52,2.52,0,0,0-.9,3.42,2.55,2.55,0,0,0,3.42.89Z" transform="translate(1267.96 1059.99)"/>
  <path class="cls-1" d="M3.35-882.62a185.21,185.21,0,0,0,17.29,13.15A382.34,382.34,0,0,0,70.5-840.39,465.14,465.14,0,0,0,150.6-810c31.72,8.85,64.34,14,97.13,16.82a634.7,634.7,0,0,0,89.58,1.35c30.91-1.73,61.83-5.45,92.08-12.11a466.35,466.35,0,0,0,88-28.86,410.08,410.08,0,0,0,57.41-30.77,250.26,250.26,0,0,0,25.11-18.2l1.06-.91c2.41-2.13-1.13-5.66-3.54-3.53a174.75,174.75,0,0,1-16.64,12.62A383.34,383.34,0,0,1,532-845.08c-55.31,27.3-115.49,41.93-176.79,47a633.08,633.08,0,0,1-87.43,1.3c-61.48-3.36-122.24-15.5-178.72-40.49a409.13,409.13,0,0,1-56.56-30.31A240.78,240.78,0,0,1,7.9-885.28l-1-.87c-2.4-2.13-5.95,1.4-3.53,3.53Z" transform="translate(1267.96 1059.99)"/>
  <path class="cls-1" d="M-17.19-946.82c25.67,23.63,53.63,45.2,82.37,64.92C88.87-865.64,113.62-850.54,140-839c30.88,13.56,64.32,20.7,97.63,25.14a477.48,477.48,0,0,0,106.66,2.5c34.39-3.12,69.39-8.91,102-20.46,26.76-9.48,51.84-23.47,75.68-38.74a754.39,754.39,0,0,0,98-74.87l1.57-1.43c2.37-2.18-1.17-5.71-3.54-3.53C592.6-927,565-905.73,536.6-886.24c-23.21,15.94-47.44,30.73-73.19,42.22-30.81,13.73-64.44,20.9-97.75,25.3a475.14,475.14,0,0,1-104.72,2.47c-34.25-3-69.09-8.85-101.59-20.35-26.49-9.38-51.29-23.35-74.88-38.48A746,746,0,0,1-12.16-949l-1.5-1.36c-2.36-2.18-5.91,1.35-3.53,3.53Z" transform="translate(1267.96 1059.99)"/>
  <path class="cls-1" d="M-13.66-603.55c25.37-23.34,53-44.64,81.37-64.13,23.21-15.94,47.44-30.73,73.19-42.22,30.81-13.74,64.45-20.9,97.76-25.3a474.62,474.62,0,0,1,104.73-2.47c34.24,3,69.08,8.85,101.57,20.35,26.48,9.38,51.29,23.35,74.87,38.48a746.15,746.15,0,0,1,96.63,73.9c.5.46,1,.91,1.5,1.37,2.37,2.18,5.91-1.35,3.54-3.54-25.68-23.62-53.64-45.19-82.38-64.91-23.68-16.26-48.44-31.36-74.79-42.92-30.87-13.56-64.31-20.7-97.61-25.14a476.81,476.81,0,0,0-106.65-2.5c-34.4,3.12-69.4,8.9-102,20.46-26.76,9.48-51.85,23.47-75.69,38.74a755,755,0,0,0-97.95,74.87c-.53.47-1.05,1-1.57,1.43-2.38,2.18,1.16,5.71,3.53,3.53Z" transform="translate(1267.96 1059.99)"/>
  <path class="cls-1" d="M6.92-667.77a176,176,0,0,1,16.64-12.62,383.34,383.34,0,0,1,48.79-28.47c55.29-27.29,115.45-41.92,176.72-47a634.17,634.17,0,0,1,87.83-1.28c61.49,3.4,122.24,15.6,178.71,40.64a409.18,409.18,0,0,1,56.17,30.14,240.27,240.27,0,0,1,24.64,17.78l1,.83c2.4,2.13,6-1.4,3.53-3.54a186.85,186.85,0,0,0-17.29-13.14,382.34,382.34,0,0,0-49.86-29.08,465.52,465.52,0,0,0-79.59-30.29c-31.88-8.93-64.67-14.15-97.63-17a633.57,633.57,0,0,0-89.5-1.35c-31.08,1.74-62.18,5.49-92.59,12.22A466.84,466.84,0,0,0,87-721.18a409,409,0,0,0-57.41,30.77,250.26,250.26,0,0,0-25.11,18.2l-1.06.91c-2.41,2.13,1.13,5.66,3.54,3.53Z" transform="translate(1267.96 1059.99)"/>
  <path class="cls-1" d="M629.7-969.63c-4.77,7-10.87,13.74-17,20.26A345.19,345.19,0,0,1,558.54-903a409.31,409.31,0,0,1-94.17,48.8c-33.13,12-68.29,18.34-103.25,22a566.56,566.56,0,0,1-58.23,3.39c-13.39,0-26.79-.62-40.14-1.6-33.05-2.41-66.13-7.08-98.16-15.74-35.44-9.58-69.44-25.14-100.69-44.33A366.2,366.2,0,0,1,.19-939.61c-9.1-8.84-18.46-18.82-25.6-28.63-.33-.45-.67-.9-1-1.37-1.8-2.64-6.14-.14-4.32,2.53,5.13,7.54,11.38,14.45,17.6,21.08a350.16,350.16,0,0,0,54.64,46.83,416.07,416.07,0,0,0,95.06,49.44c33.3,12.21,68.69,18.53,103.85,22.32a579.35,579.35,0,0,0,60.63,3.61c13.33,0,26.68-.62,40-1.6,33.6-2.47,67.28-7.24,99.81-16.14,35.69-9.77,70-25.51,101.49-44.88a372.72,372.72,0,0,0,64.31-49.67A234.93,234.93,0,0,0,633-965.68c.34-.47.69-.94,1-1.42,1.82-2.67-2.51-5.18-4.31-2.53Z" transform="translate(1267.96 1059.99)"/>
  <path class="cls-1" d="M820.9-907.83c-7.8,3.54-15.66,6.94-23.54,10.29-17.85,7.6-35.93,14.9-54.15,21.71q-31.41,11.75-63.66,21c-19.63,5.61-39.41,10.7-59.25,15.47-10.25,2.47-20.56,4.64-30.8,7.09l-.43.09c-3.15.68-1.82,5.5,1.33,4.83,8.49-1.83,17-3.8,25.41-5.8,19.3-4.57,38.54-9.45,57.65-14.77,21.55-6,42.87-12.71,63.88-20.39,19.13-7,38-14.54,56.81-22.44q9.79-4.12,19.52-8.39c3.12-1.37,6.29-2.67,9.35-4.16l.4-.18a2.52,2.52,0,0,0,.9-3.42,2.56,2.56,0,0,0-3.42-.89Z" transform="translate(1267.96 1059.99)"/>
  <path class="cls-1" d="M774.61-998.49c-4.53,4.75-9.39,9.22-14.26,13.63a471.57,471.57,0,0,1-39.2,31.73A568.36,568.36,0,0,1,665-917.61q-22.4,12.54-45.67,23.43c-4.74,2.21-9.51,4.37-14.32,6.44l-2.5,1.07h0l-.46.19-.92.38c-.75.32-1.51.63-2.28.94l-.28.11a2.58,2.58,0,0,0-1.75,3.08,2.52,2.52,0,0,0,3.08,1.74c5.92-2.34,11.75-4.95,17.54-7.59,14.75-6.73,29.24-14,43.47-21.81a593.61,593.61,0,0,0,56.59-34.75A489.55,489.55,0,0,0,760-977.89c6.1-5.39,12.31-10.86,17.87-16.83l.23-.24c2.22-2.33-1.31-5.87-3.53-3.53Z" transform="translate(1267.96 1059.99)"/>
  <path class="cls-1" d="M710.66-1029.61c-10.33,12.88-21.13,25.42-32.13,37.73a729.58,729.58,0,0,1-55.64,55.73c-4.69,4.23-9.41,8.43-14.21,12.53a2.5,2.5,0,0,0,0,3.53,2.54,2.54,0,0,0,3.53,0c13-11,25.51-22.61,37.71-34.49,18.69-18.21,36.08-37.72,52.87-57.68,3.84-4.57,7.67-9.15,11.4-13.81a2.58,2.58,0,0,0,0-3.54,2.51,2.51,0,0,0-3.53,0Z" transform="translate(1267.96 1059.99)"/>
  <path class="cls-1" d="M716.8-524.46c-11.12-13.86-22.73-27.34-34.6-40.54a773.62,773.62,0,0,0-56.38-56.14c-4.74-4.28-9.5-8.55-14.33-12.73a2.57,2.57,0,0,0-3.54,0,2.53,2.53,0,0,0,0,3.54c12.94,11.18,25.55,22.79,37.85,34.67,19.49,18.84,37.61,39,55.07,59.74,4.18,5,8.33,9.94,12.39,15a2.53,2.53,0,0,0,3.54,0,2.57,2.57,0,0,0,0-3.54Z" transform="translate(1267.96 1059.99)"/>
  <path class="cls-1" d="M778.14-559c-4.59-4.82-9.52-9.34-14.46-13.8a479.47,479.47,0,0,0-40-32.34,567.26,567.26,0,0,0-56.38-35.63q-22.42-12.56-45.72-23.44-7.11-3.3-14.31-6.42c-2.34-1-4.7-2.14-7.12-3l-.28-.11a2.52,2.52,0,0,0-3.08,1.74,2.57,2.57,0,0,0,1.75,3.08l1.16.47,1.4.57.87.37.51.21c.58.24-.49-.21.13,0q6.28,2.68,12.51,5.52c14.67,6.7,29.08,14,43.24,21.71a596,596,0,0,1,56.4,34.61,476,476,0,0,1,42,33.06c6.07,5.36,11.87,11,17.65,16.63l.24.24c2.22,2.33,5.75-1.2,3.53-3.54Z" transform="translate(1267.96 1059.99)"/>
  <path class="cls-1" d="M825.71-649.41c-7.71-3.5-15.48-6.86-23.27-10.19-17.81-7.62-35.76-14.94-53.88-21.81q-31.34-11.88-63.48-21.28c-20.24-5.88-40.64-11.19-61.13-16.14-10.6-2.57-21.23-5.17-31.92-7.37l-.46-.1c-3.14-.67-4.48,4.14-1.33,4.82,8.73,1.87,17.44,3.9,26.13,6,19.77,4.7,39.47,9.73,59,15.25,21.56,6.08,42.85,12.91,63.85,20.69,18.67,6.9,37.2,14.35,55.51,22.09q14.07,6,28,12.21l.41.18a2.58,2.58,0,0,0,3.42-.89,2.54,2.54,0,0,0-.9-3.43Z" transform="translate(1267.96 1059.99)"/>
  <g id="orbit">
    <path class="cls-1" d="M-42.15-565.37c-10.16,8.33-22.07,14.66-35.16,16.69a59.13,59.13,0,0,1-24.58-1.49c-14.77-4-27.5-13.33-37.95-24.3C-153-588.26-163-604.89-171-622.1c-9.66-20.78-16.42-42.88-21.21-65.26a417.16,417.16,0,0,1-8.89-78,434.18,434.18,0,0,1,5.46-80.2,342,342,0,0,1,18.44-68.82c7.26-18.58,16.56-36.77,28.95-52.48,9.88-12.55,22-23.83,36.62-30.5a61.56,61.56,0,0,1,52.73.85,85.26,85.26,0,0,1,16.73,10.87c2.47,2,6-1.49,3.54-3.54-10.43-8.56-22.53-15.33-35.93-17.74a65.12,65.12,0,0,0-26.88.77c-15.5,3.76-29.12,13.08-40.23,24.28C-155.44-968-166-951-174.37-933.38c-10.13,21.31-17.3,44-22.33,67a423.78,423.78,0,0,0-9.36,80.32,441,441,0,0,0,5.75,82.67c4.05,24.26,10.28,48.26,19.51,71.08,7.68,19,17.39,37.37,30.35,53.33,10.4,12.82,23.23,24.17,38.58,30.63a66.86,66.86,0,0,0,56.2-2.17,91.43,91.43,0,0,0,17.05-11.31c2.49-2-1.06-5.56-3.53-3.53Z" transform="translate(1267.96 1059.99)"/>
  </g>
  <g id="orbit-2" data-name="orbit">
    <path class="cls-1" d="M-31.64-579.88c-10,5.86-21.12,9.27-32.74,8.8a56.5,56.5,0,0,1-17.83-3.74c-12.85-4.85-23.74-14-32.7-24.2-11-12.6-19.51-27.37-26.33-42.61a281,281,0,0,1-18.12-57.65,380.7,380.7,0,0,1-2.78-137.4c6.07-37.45,17.73-76,40.48-106.91,8.4-11.4,18.7-21.84,31.18-28.73,13-7.21,28.09-9.65,42.6-5.77a65.52,65.52,0,0,1,16.3,7c2.78,1.64,5.3-2.68,2.52-4.32-16.18-9.55-35.39-12.38-53.22-6.06-13.55,4.8-25.2,13.83-34.79,24.4-11.63,12.83-20.62,27.92-27.79,43.63a284.49,284.49,0,0,0-19.06,59.1,379,379,0,0,0-7.9,69.71,393.09,393.09,0,0,0,4.91,72,307.15,307.15,0,0,0,16.46,61.82c6.55,16.87,14.8,33.26,25.78,47.71,9,11.85,19.93,22.68,33.24,29.62,14.06,7.32,30.16,9.55,45.54,5.24a70.77,70.77,0,0,0,16.77-7.28c2.77-1.64.26-6-2.52-4.32Z" transform="translate(1267.96 1059.99)"/>
  </g>
  <g id="orbit-3" data-name="orbit">
    <path class="cls-1" d="M-20.44-598.42a52.11,52.11,0,0,1-36.92-4.39c-10.65-5.46-19.56-13.77-27-23-9.17-11.32-16.26-24.32-22-37.67A252,252,0,0,1-121.24-712a333.33,333.33,0,0,1-3-115.6c4.82-32.41,14.34-65.37,32.49-93,12.46-19,31.25-37.51,55.15-39.07a50.83,50.83,0,0,1,12.68.75c3.15.58,4.5-4.24,1.33-4.82a58,58,0,0,0-38.24,6.17c-11.09,5.92-20.45,14.82-28.17,24.64-20.23,25.74-31.4,58.1-37.64,89.89a340.56,340.56,0,0,0-1.77,119.55c5.31,32.77,15.58,66.3,34.86,93.7,13.81,19.63,34.12,37.45,59.34,38a56.52,56.52,0,0,0,15.1-1.82c3.12-.79,1.8-5.62-1.33-4.82Z" transform="translate(1267.96 1059.99)"/>
  </g>
  <g id="orbit-4" data-name="orbit">
    <path class="cls-1" d="M-10.55-619.79c-18.66-.62-34-14.36-44.48-29.24-15.07-21.48-23.43-47.35-28.35-72.91a301.15,301.15,0,0,1-2.56-96.37c3.67-27.34,11.11-55,24.92-79,9.36-16.3,23.16-33.42,42-38.26a38.79,38.79,0,0,1,5.54-1,2.58,2.58,0,0,0,2.5-2.5,2.51,2.51,0,0,0-2.5-2.5c-20.24,2-35.86,17.37-46.72,33.46C-75.66-885.21-84.27-857.73-89-830.69a307.66,307.66,0,0,0-1,99.28C-85.88-704-77.94-676.1-63.2-652.35c10.35,16.69,25.69,33.33,46,36.86a47,47,0,0,0,6.7.7c3.21.11,3.21-4.89,0-5Z" transform="translate(1267.96 1059.99)"/>
  </g>
  <g id="orbit-5" data-name="orbit">
    <path class="cls-1" d="M1.27-649.76c-12.19-8-21.13-21.09-27.68-34.26-8.65-17.4-13.77-36.51-16.71-55.65a262.94,262.94,0,0,1-1.4-66.91c2.06-19.8,6.38-39.63,14.08-58,5.92-14.16,14.08-28,26-37.91,1.25-1,2.15-1.72,3.55-2.7a2.56,2.56,0,0,0,.9-3.42,2.51,2.51,0,0,0-3.42-.9c-12.92,9-22.08,22.57-28.75,36.64-8.54,18-13.54,37.64-16.24,57.36a268.73,268.73,0,0,0-.64,68.94c2.48,20.41,7.31,40.63,15.69,59.46,6.41,14.39,15.2,28.67,27.74,38.52,1.42,1.11,2.88,2.18,4.39,3.18,2.69,1.78,5.2-2.55,2.52-4.32Z" transform="translate(1267.96 1059.99)"/>
  </g>
  <g id="orbit-6" data-name="orbit">
    <path class="cls-1" d="M14.31-702.72A218.6,218.6,0,0,1,3.18-758.93,259,259,0,0,1,6.1-821.37a212.89,212.89,0,0,1,7.72-31c1-3-3.8-4.37-4.82-1.32A231.25,231.25,0,0,0-2-795.14a262.35,262.35,0,0,0,3.47,63,204.75,204.75,0,0,0,8,30.74,2.56,2.56,0,0,0,3.07,1.75,2.53,2.53,0,0,0,1.75-3.08Z" transform="translate(1267.96 1059.99)"/>
  </g>
  <g id="orbit-7" data-name="orbit">
    <path class="cls-1" d="M15-775.5c0,49.15-6.73,98.92-23.32,145.33-6.69,18.69-15.09,36.89-25.94,53.54-9,13.77-19.85,26.78-33.22,36.5-11.09,8.06-24,13.86-37.8,14.91s-27.23-2.53-39.14-9.33c-13.72-7.81-25.17-19.28-34.63-31.81-11.48-15.2-20.51-32.24-27.77-49.83-18.2-44.09-26.48-92.17-28.32-139.67-1.95-50.25,3.14-101.34,17.84-149.54,6-19.79,13.75-39.15,23.91-57.19,8.53-15.15,18.82-29.52,31.74-41.25,10.55-9.56,23-17.25,37-20.49a65.47,65.47,0,0,1,39.39,3.39c13.95,5.66,25.88,15.56,35.84,26.68C-37.24-980.72-27.7-965-19.85-948.63.26-906.8,10-860,13.55-813.95Q15-794.76,15-775.5c0,3.21,5,3.22,5,0,0-50-6.89-100.85-24-148-12.45-34.34-31-70.13-61.37-92-11.74-8.44-25.42-14.19-39.92-15.29-14.24-1.08-28.41,2.63-40.83,9.53-14.15,7.86-26,19.46-35.81,32.18-12,15.52-21.33,32.94-28.92,51-18.92,45-27.42,94.32-29.3,142.93-2,51.15,3.29,103.31,18.46,152.31,6.28,20.29,14.33,40.18,24.92,58.62,8.79,15.31,19.46,29.9,32.74,41.63,11.08,9.79,24.18,17.66,38.73,20.88a70.21,70.21,0,0,0,41.39-3.53C-52-538.12-30.46-569.1-16-598.95c20.64-42.51,30.68-89.93,34.42-136.81C19.51-749,20-762.24,20-775.5,20-778.72,15-778.73,15-775.5Z" transform="translate(1267.96 1059.99)"/>
  </g>
  <g id="orbit-8" data-name="orbit">
    <path class="cls-1" d="M268.71-824.79s-1-.34-.61-.11c0,0-.6-.44-.31-.24,0,0,.09.12.12.13.28,0,.21.53,0-.08.12.29.35.57.5.85s.13.31.21.46c-.34-.7,0,.1.1.29a41.53,41.53,0,0,1,1.77,7.11,183.69,183.69,0,0,1,2.31,23.57q.74,15.45.16,30.91A213.59,213.59,0,0,1,270.85-737a56.24,56.24,0,0,1-1.93,8.88c-.09.25-.17.5-.27.75s-.34.77-.07.21c-.18.37-.36.72-.55,1.07,0,.06-.1.13-.13.2-.14.38.36-.49.14-.17,0,.06-.28.22-.29.29,0-.26.66-.37,1-.38-3.21.11-3.23,5.11,0,5,2-.07,3.34-1.64,4.12-3.35a32.3,32.3,0,0,0,2.19-7.4A176.61,176.61,0,0,0,277.71-757c.56-11,.6-22.1.17-33.13a209.7,209.7,0,0,0-2.44-26.6,43.27,43.27,0,0,0-2.11-8.55c-.83-2.09-2.08-4.42-4.62-4.51-3.22-.11-3.22,4.89,0,5Z" transform="translate(1267.96 1059.99)"/>
  </g>
  <g id="orbit-9" data-name="orbit">
    <path class="cls-1" d="M227.14-829.09c.61,0-.6-.12-.12,0s.39.3-.06-.06c.11.09.27.11.38.21.46.39-.36-.41.07,0,.2.21,1,1.11.54.52a14.66,14.66,0,0,1,.81,1.24c.28.5.54,1,.78,1.52.07.14.37.85.17.37.15.35.28.7.42,1,.54,1.44,1,2.92,1.4,4.4a134.13,134.13,0,0,1,3.85,25.75,263.24,263.24,0,0,1,.24,33.47,155.76,155.76,0,0,1-3.45,27c-.42,1.81-.9,3.61-1.48,5.37-.25.75-.52,1.5-.81,2.23,0,0-.27.66-.12.31s-.11.23-.13.28c-.14.3-.28.6-.43.9a15.88,15.88,0,0,1-.93,1.6c-.06.09-.13.17-.18.26-.31.47.16-.18,0,0s-.3.35-.47.51-.65.54-.26.26-.2.08-.28.15c-.31.25.61-.19,0,0s.61,0,0,0c-3.21.06-3.22,5.06,0,5,5.39-.12,7.61-7.5,8.83-11.62,2.6-8.75,3.62-18,4.32-27.09a263.74,263.74,0,0,0,.28-35.67c-.57-9.65-1.54-19.46-3.93-28.85a37,37,0,0,0-3.65-9.79c-1.28-2.15-3.18-4.2-5.85-4.25-3.22-.07-3.22,4.93,0,5Z" transform="translate(1267.96 1059.99)"/>
  </g>
  <g id="orbit-10" data-name="orbit">
    <path class="cls-1" d="M177.85-838c.33,0,.66,0,1,.06-.66-.06,0,0,.31.08s.53.15.8.24l.47.18c-.36-.14-.25-.12,0,0,.56.3,1.08.63,1.62,1,.12.08.47.35,0,0a5.54,5.54,0,0,1,.45.37q.47.39.9.81a28.84,28.84,0,0,1,5.58,8.4c4.32,9,6.46,19.5,7.71,29.47a179.44,179.44,0,0,1,.52,39.11c-1,10.67-3,21.53-7,31.5a48.07,48.07,0,0,1-2.91,5.9c-.52.9-1.08,1.77-1.68,2.62a18,18,0,0,1-1.45,1.77,19,19,0,0,1-1.78,1.7c-.08.07-.6.45-.09.08l-.46.33q-.45.3-.93.57c-.17.09-1.17.54-.5.27a8.22,8.22,0,0,1-.95.33c-.32.09-.65.14-1,.22.75-.18-.37,0-.64,0-3.21,0-3.22,5,0,5,7.29-.07,12.18-7,15.12-12.86,5-9.89,7.24-21,8.65-31.92a178,178,0,0,0,.54-40.81c-1.16-11.46-3.27-23.06-7.85-33.69C191.4-834,186.25-843,177.85-843c-3.22,0-3.22,5,0,5Z" transform="translate(1267.96 1059.99)"/>
  </g>
  <g id="orbit-11" data-name="orbit">
    <path class="cls-1" d="M140.18-848.87a32.08,32.08,0,0,1,8.93,7.39A57,57,0,0,1,156.75-830c5.28,10.13,8.32,21.4,10.05,32.65a147,147,0,0,1,.59,39.36c-1.36,11.52-4.13,23.15-9,33.69-4.09,8.81-9.82,17.55-18.25,22.15-2.82,1.54-.3,5.86,2.53,4.32,8.12-4.43,14-12.28,18.25-20.32,5.59-10.6,8.91-22.36,10.73-34.17a151.3,151.3,0,0,0,.67-41.54,118.14,118.14,0,0,0-9.59-35.34c-4.35-9.39-10.71-18.86-20-24-2.82-1.55-5.34,2.77-2.52,4.32Z" transform="translate(1267.96 1059.99)"/>
  </g>
  <g id="orbit-12" data-name="orbit">
    <path class="cls-1" d="M94.36-868.45c10.42,4.48,18,13.36,23.73,23.06,7.48,12.71,11.88,27.11,14.37,41.58a170.2,170.2,0,0,1,.86,51.23c-2,14.85-6,29.73-12.94,43.05A76.24,76.24,0,0,1,110-694.06a45.5,45.5,0,0,1-12.36,10.14,35.26,35.26,0,0,1-3.39,1.64,2.52,2.52,0,0,0-.9,3.42,2.56,2.56,0,0,0,3.42.9c11-4.68,19.36-14.34,25.38-24.42,7.84-13.13,12.53-28.1,15.13-43.1a175.68,175.68,0,0,0,1-53.09c-2.09-15.66-6.26-31.23-13.61-45.28C119-854.6,111.16-865,100.38-871c-1.13-.63-2.3-1.2-3.5-1.72a2.59,2.59,0,0,0-3.42.9,2.51,2.51,0,0,0,.9,3.42Z" transform="translate(1267.96 1059.99)"/>
  </g>
  <g id="orbit-13" data-name="orbit">
    <path class="cls-1" d="M61.6-886.77a44.85,44.85,0,0,1,14.09,10.48,81,81,0,0,1,12.07,17.1c8.36,15.37,13.15,32.62,15.88,49.84a221.29,221.29,0,0,1,.9,61.31c-2.17,17.6-6.53,35.32-14.26,51.33-5.78,12-13.78,23.91-25.12,30.62a39.69,39.69,0,0,1-3.71,2,2.52,2.52,0,0,0-.9,3.42,2.55,2.55,0,0,0,3.42.89c12.39-5.69,21.39-17.26,27.82-28.92,8.69-15.77,13.77-33.47,16.61-51.18a225.29,225.29,0,0,0,1.14-63c-2.29-18.49-6.78-36.89-14.9-53.73-6-12.55-14.54-25-26.7-32.37a42.18,42.18,0,0,0-3.82-2,2.57,2.57,0,0,0-3.42.9,2.52,2.52,0,0,0,.9,3.42Z" transform="translate(1267.96 1059.99)"/>
  </g>
  <g id="orbit-14" data-name="orbit">
    <path class="cls-1" d="M37.63-902.66c11.6,9.65,19.78,22.79,26,36.43,7.87,17.3,12.58,36,15.23,54.82a261.11,261.11,0,0,1,.9,64.73A211.39,211.39,0,0,1,66-690.29c-5.76,14.22-13.61,28.15-24.75,38.8-1.18,1.14-2.41,2.22-3.66,3.27a2.52,2.52,0,0,0,0,3.54,2.56,2.56,0,0,0,3.53,0c11.93-9.93,20.5-23.61,26.85-37.61,8-17.74,13-36.8,15.7-56.07a266.42,266.42,0,0,0,1-66.29c-2.19-19.73-6.51-39.38-14-57.79-6-14.77-14.11-29.25-25.72-40.39-1.22-1.17-2.47-2.29-3.77-3.37a2.57,2.57,0,0,0-3.53,0,2.52,2.52,0,0,0,0,3.54Z" transform="translate(1267.96 1059.99)"/>
  </g>
  <g id="orbit-15" data-name="orbit">
    <path class="cls-1" d="M7-927.39C21.4-916,31.89-900.31,39.79-883.89c9.89,20.55,15.9,42.93,19.27,65.43a296.07,296.07,0,0,1,1.17,77.26c-2.65,23-8.07,46.05-17.27,67.36C35.55-656.67,25.61-640,11.65-627.36q-2.28,2.07-4.69,4a2.51,2.51,0,0,0,0,3.54,2.55,2.55,0,0,0,3.53,0c14.79-11.64,25.64-27.88,33.71-44.71,10.11-21,16.35-43.87,19.75-66.93a300.29,300.29,0,0,0,1.22-78.61c-2.77-23.65-8.32-47-17.72-68.95-7.59-17.68-17.91-34.88-32.26-47.9q-2.28-2.07-4.7-4a2.56,2.56,0,0,0-3.53,0,2.5,2.5,0,0,0,0,3.53Z" transform="translate(1267.96 1059.99)"/>
  </g>
  <g id="orbit-16" data-name="orbit">
    <path class="cls-1" d="M-17.19-948.95c15.94,13.15,27.28,31.16,35.82,49.77C29.47-875.57,36-850,39.63-824.33a353.41,353.41,0,0,1,1.25,88C38-710,32.06-683.81,22-659.29,14.1-639.86,3.29-620.8-12-606.22q-2.49,2.37-5.15,4.56c-2.49,2,1.07,5.57,3.53,3.54,16.3-13.44,28-32,36.71-51,11-24,17.69-49.77,21.4-75.81a358.44,358.44,0,0,0,1.37-90c-3-26.79-8.94-53.46-19.24-78.43-8.25-20-19.29-39.55-35.09-54.57q-2.49-2.37-5.15-4.56c-2.46-2-6,1.48-3.53,3.53Z" transform="translate(1267.96 1059.99)"/>
  </g>
  <g id="orbit-17" data-name="orbit">
    <path class="cls-1" d="M-17.19-946.82c12.38,13.81,20.12,31.64,26,49,8.07,23.9,12.76,48.94,15.37,74a473.94,473.94,0,0,1,1,87c-2.08,25.8-6.28,51.58-13.77,76.38-5.57,18.45-12.94,37.25-24.84,52.61-1.18,1.53-2.43,3-3.71,4.44-2.15,2.39,1.38,5.94,3.53,3.53,12.83-14.29,20.91-32.54,27.05-50.54,8.27-24.25,13-49.67,15.68-75.11a473,473,0,0,0,1-88.56c-2.15-26.28-6.41-52.57-14.12-77.82-5.81-19-13.55-38.27-25.91-54.09q-1.77-2.28-3.71-4.44c-2.15-2.4-5.68,1.14-3.53,3.53Z" transform="translate(1267.96 1059.99)"/>
  </g>
  <g id="orbit-18" data-name="orbit">
    <path class="cls-1" d="M299.66-826.29v89.17c0,4.1-.16,8.24,0,12.35v.18c0,3.21,5,3.22,5,0v-89.17c0-4.11.16-8.25,0-12.35v-.18c0-3.22-5-3.22-5,0Z" transform="translate(1267.96 1059.99)"/>
  </g>
  <g id="orbit-19" data-name="orbit">
    <path class="cls-1" d="M642.92-561.86c10.43,8.56,22.52,15.32,35.92,17.73a65.08,65.08,0,0,0,26.87-.77c15.5-3.76,29.12-13.07,40.24-24.27,13.79-13.9,24.35-30.87,32.72-48.48,10.14-21.3,17.31-44,22.33-67a422,422,0,0,0,9.36-80.31,440.25,440.25,0,0,0-5.75-82.68,338.16,338.16,0,0,0-19.5-71.08c-7.69-19-17.39-37.36-30.36-53.33-10.4-12.82-23.23-24.17-38.57-30.62a66.8,66.8,0,0,0-56.21,2.17,91.5,91.5,0,0,0-17.06,11.31c-2.49,2,1.07,5.56,3.53,3.54,10.16-8.34,22.08-14.67,35.17-16.7a59.18,59.18,0,0,1,24.59,1.48c14.77,4,27.49,13.34,37.94,24.3,13.15,13.79,23.14,30.42,31.13,47.64,9.66,20.77,16.43,42.88,21.22,65.25a416.41,416.41,0,0,1,8.88,78,433.31,433.31,0,0,1-5.46,80.2,342.1,342.1,0,0,1-18.43,68.83c-7.26,18.58-16.56,36.76-29,52.48-9.89,12.54-21.95,23.82-36.62,30.5a61.58,61.58,0,0,1-52.72-.85,85.67,85.67,0,0,1-16.73-10.86c-2.47-2-6,1.49-3.54,3.53Z" transform="translate(1267.96 1059.99)"/>
  </g>
  <g id="orbit-20" data-name="orbit">
    <path class="cls-1" d="M633.42-575.59c16.17,9.53,35.36,12.34,53.17,6,13.55-4.8,25.2-13.84,34.78-24.41C733-606.78,742-621.88,749.16-637.59a283.12,283.12,0,0,0,19.06-59.1,378.08,378.08,0,0,0,7.91-69.7,392.38,392.38,0,0,0-4.92-72,306.46,306.46,0,0,0-16.45-61.82C748.21-917,740-933.44,729-947.88c-9-11.86-19.93-22.69-33.25-29.63-14.06-7.33-30.18-9.55-45.57-5.23a70.67,70.67,0,0,0-16.8,7.31c-2.77,1.64-.25,6,2.53,4.32,10-5.89,21.15-9.31,32.8-8.84a56.78,56.78,0,0,1,17.83,3.74c12.84,4.86,23.74,14,32.7,24.2,11,12.6,19.5,27.37,26.32,42.61a281.17,281.17,0,0,1,18.13,57.65,380.92,380.92,0,0,1,2.78,137.4c-6.07,37.45-17.73,76-40.48,106.91-8.4,11.41-18.71,21.84-31.19,28.74-13,7.2-28.06,9.64-42.57,5.77a65.53,65.53,0,0,1-16.26-7c-2.78-1.64-5.3,2.68-2.53,4.31Z" transform="translate(1267.96 1059.99)"/>
  </g>
  <g id="orbit-21" data-name="orbit">
    <path class="cls-1" d="M623.42-593.62A57.31,57.31,0,0,0,663.24-598c11.15-5.49,20.64-14.07,28.47-23.62,20.56-25.05,32-57.06,38.54-88.44a340.19,340.19,0,0,0,3-119.43c-5-33.15-15-67-33.9-95.06-13.53-20-33.5-38.57-58.82-40.06a57,57,0,0,0-13.67.94c-3.16.59-1.82,5.41,1.33,4.83,25.22-4.68,47.22,11,62,30,19.47,25.17,30.06,56.84,36.06,87.74A333.76,333.76,0,0,1,728-725.37c-5.14,32-15,64.63-33.43,91.64-12.76,18.63-31.88,36.3-55.71,36.92a51.68,51.68,0,0,1-14.11-1.63c-3.11-.8-4.45,4-1.32,4.82Z" transform="translate(1267.96 1059.99)"/>
  </g>
  <g id="orbit-22" data-name="orbit">
    <path class="cls-1" d="M614.86-614.81c20.36-.68,36.67-14.84,48-30.63,15.79-22,24.56-48.86,29.62-75.19a307.12,307.12,0,0,0,2.57-99c-3.83-28.15-11.6-56.61-26-81.28-10-17.07-24.73-34.67-44.79-39.6a47.36,47.36,0,0,0-6.46-1.09,2.52,2.52,0,0,0-2.5,2.5,2.55,2.55,0,0,0,2.5,2.5c8.1.82,16,4.57,22.81,9.61,8.13,6.06,14.79,14.09,20.34,22.51,14.76,22.41,23,48.9,27.59,75.14a300,300,0,0,1,1,96.62c-4,26.67-11.62,53.66-25.73,76.85-9.73,16-24,32-43.15,35.5a37,37,0,0,1-5.8.6c-3.21.11-3.22,5.11,0,5Z" transform="translate(1267.96 1059.99)"/>
  </g>
  <g id="orbit-23" data-name="orbit">
    <path class="cls-1" d="M605.56-645.46c13.09-8.64,22.48-22,29.39-35.9,8.9-17.84,14.28-37.36,17.3-57a268.46,268.46,0,0,0,1.51-68.9c-2.18-20.45-6.62-40.8-14.65-59.79-6.16-14.57-14.66-29-27-39.19-1.41-1.16-2.86-2.27-4.35-3.31a2.52,2.52,0,0,0-3.42.9,2.55,2.55,0,0,0,.89,3.42c12,8.37,20.73,21.65,27,35,8.29,17.57,13,36.82,15.67,56a265,265,0,0,1,.54,67c-2.34,19.62-7,39.32-15,57.43-6.25,14.07-14.62,27.84-26.82,37.5-.91.72-2.36,1.76-3.59,2.57-2.67,1.77-.17,6.1,2.53,4.32Z" transform="translate(1267.96 1059.99)"/>
  </g>
  <g id="orbit-24" data-name="orbit">
    <path class="cls-1" d="M594.82-701.41a224,224,0,0,0,11.29-57.31,264.33,264.33,0,0,0-3-63.57,212.32,212.32,0,0,0-7.8-31.41c-1-3-5.84-1.73-4.82,1.33a225.55,225.55,0,0,1,10.8,57.44A256.07,256.07,0,0,1,597.89-733,204.57,204.57,0,0,1,590-702.74a2.52,2.52,0,0,0,1.74,3.08,2.56,2.56,0,0,0,3.08-1.75Z" transform="translate(1267.96 1059.99)"/>
  </g>
  <g id="orbit-25" data-name="orbit">
    <path class="cls-1" d="M584.28-775.52c.05,50,6.9,100.84,24,148,12.45,34.34,31,70.12,61.37,92,11.73,8.45,25.41,14.19,39.91,15.29,14.25,1.09,28.42-2.63,40.84-9.53,14.15-7.86,26-19.46,35.8-32.18,12-15.52,21.33-32.93,28.92-51,18.93-45,27.42-94.33,29.31-142.94,2-51.15-3.29-103.3-18.46-152.31-6.28-20.29-14.34-40.17-24.92-58.61-8.8-15.32-19.46-29.91-32.75-41.64-11.08-9.78-24.18-17.66-38.73-20.88a70.11,70.11,0,0,0-41.38,3.54c-31.88,12.87-53.42,43.85-67.92,73.7-20.64,42.51-30.68,89.93-34.42,136.82-1.05,13.22-1.55,26.47-1.57,39.74,0,3.21,5,3.22,5,0,.05-49.15,6.73-98.92,23.33-145.34,6.68-18.69,15.08-36.88,25.94-53.53,9-13.78,19.84-26.79,33.22-36.51,11.08-8.06,24-13.86,37.79-14.9s27.24,2.53,39.15,9.32c13.71,7.82,25.17,19.28,34.63,31.81,11.48,15.21,20.51,32.25,27.77,49.83,18.2,44.09,26.48,92.17,28.32,139.67,2,50.25-3.14,101.34-17.84,149.55-6,19.79-13.75,39.14-23.92,57.19-8.52,15.14-18.81,29.52-31.74,41.24-10.54,9.56-23,17.25-37,20.49a65.47,65.47,0,0,1-39.39-3.39c-14-5.66-25.88-15.56-35.85-26.68C641.54-570.3,632-586.06,624.15-602.4,604-644.23,594.3-691,590.75-737.08q-1.47-19.18-1.47-38.44C589.28-778.74,584.28-778.75,584.28-775.52Z" transform="translate(1267.96 1059.99)"/>
  </g>
  <g id="orbit-26" data-name="orbit">
    <path class="cls-1" d="M335.6-829.81c-2,.07-3.34,1.64-4.13,3.35a32.78,32.78,0,0,0-2.18,7.4,176.61,176.61,0,0,0-2.69,25.14c-.56,11-.61,22.1-.17,33.13a207.88,207.88,0,0,0,2.44,26.6,41.92,41.92,0,0,0,2.11,8.55c.82,2.09,2.08,4.42,4.62,4.51,3.22.11,3.21-4.89,0-5,0,0,1,.34.61.11,0,0,.59.44.31.24,0,0-.1-.12-.13-.12-.28-.05-.21-.54.05.07-.13-.29-.36-.57-.5-.85l-.21-.46c.34.7,0-.1-.11-.29a42.45,42.45,0,0,1-1.76-7.11,181.92,181.92,0,0,1-2.31-23.57q-.74-15.45-.16-30.91A215.77,215.77,0,0,1,333.45-814a55.17,55.17,0,0,1,1.94-8.88c.08-.25.17-.5.26-.75s.35-.76.08-.21c.18-.37.36-.72.55-1.07a1.32,1.32,0,0,0,.12-.2c.15-.38-.36.49-.14.18.05-.07.28-.23.29-.3,0,.26-.65.37-.95.38,3.21-.11,3.22-5.11,0-5Z" transform="translate(1267.96 1059.99)"/>
  </g>
  <g id="orbit-27" data-name="orbit">
    <path class="cls-1" d="M377.16-834.11c-5.38.11-7.61,7.49-8.83,11.61-2.59,8.75-3.61,18-4.31,27.1a262,262,0,0,0-.29,35.66c.58,9.66,1.54,19.46,3.93,28.85a37.24,37.24,0,0,0,3.66,9.8c1.27,2.14,3.17,4.19,5.84,4.24,3.22.07,3.22-4.93,0-5-.6,0,.61.12.13,0s-.39-.3.06.07c-.11-.09-.28-.12-.39-.22-.46-.38.36.41-.06,0-.2-.21-1-1.11-.54-.52a12.56,12.56,0,0,1-.81-1.24,16.82,16.82,0,0,1-.79-1.52c-.06-.14-.37-.85-.17-.37-.14-.34-.28-.69-.41-1-.54-1.45-1-2.92-1.4-4.41-2.28-8.38-3.24-17.12-3.86-25.75a267,267,0,0,1-.24-33.47,155.89,155.89,0,0,1,3.45-27c.43-1.81.91-3.6,1.49-5.37.25-.75.51-1.5.81-2.23,0,0,.27-.66.12-.31s.1-.23.13-.28c.14-.3.28-.6.43-.9A14.18,14.18,0,0,1,376-828l.18-.26c.3-.47-.17.18,0,0s.3-.35.46-.52.66-.54.27-.26.19-.08.27-.14c.31-.26-.6.18,0,0s-.61,0,0,0c3.22-.07,3.23-5.07,0-5Z" transform="translate(1267.96 1059.99)"/>
  </g>
  <g id="orbit-28" data-name="orbit">
    <path class="cls-1" d="M426.45-843.06c-7.28.07-12.18,7-15.11,12.86-5,9.89-7.24,21-8.66,31.92a179.11,179.11,0,0,0-.54,40.81c1.16,11.46,3.28,23.06,7.86,33.68,2.9,6.74,8.06,15.68,16.45,15.76,3.22,0,3.22-5,0-5-.33,0-.65,0-1-.06.66.06,0,0-.3-.09a7.32,7.32,0,0,1-.8-.23l-.48-.18c.36.14.26.12,0,0-.56-.3-1.09-.63-1.62-1-.12-.08-.47-.35,0,0l-.45-.37c-.31-.26-.6-.53-.89-.81a29.06,29.06,0,0,1-5.59-8.4c-4.31-9-6.46-19.5-7.7-29.47a178.82,178.82,0,0,1-.52-39.11c1-10.67,3-21.53,7-31.5a48.8,48.8,0,0,1,2.9-5.91c.53-.89,1.08-1.76,1.69-2.61a16.34,16.34,0,0,1,1.45-1.78,20.19,20.19,0,0,1,1.77-1.69c.08-.07.61-.45.1-.08l.46-.33c.3-.2.61-.39.92-.57s1.18-.54.5-.27a8.37,8.37,0,0,1,1-.33c.32-.09.64-.14,1-.22-.75.18.38,0,.64,0,3.22,0,3.23-5,0-5Z" transform="translate(1267.96 1059.99)"/>
  </g>
  <g id="orbit-29" data-name="orbit">
    <path class="cls-1" d="M461.6-853.21c-8.1,4.45-14,12.3-18.21,20.34-5.58,10.6-8.89,22.34-10.71,34.14A151.24,151.24,0,0,0,432-757.2a117.9,117.9,0,0,0,9.61,35.37c4.36,9.4,10.74,18.87,20,24,2.82,1.54,5.35-2.78,2.52-4.32a31.1,31.1,0,0,1-4.48-3,41.93,41.93,0,0,1-4.47-4.37A57.07,57.07,0,0,1,447.58-721c-5.29-10.14-8.34-21.42-10.07-32.68a147,147,0,0,1-.6-39.37c1.36-11.5,4.12-23.12,9-33.65,4.08-8.81,9.82-17.56,18.21-22.17,2.82-1.55.3-5.87-2.53-4.32Z" transform="translate(1267.96 1059.99)"/>
  </g>
  <g id="orbit-30" data-name="orbit">
    <path class="cls-1" d="M507.43-872.79c-11,4.74-19.36,14.45-25.37,24.57C474.24-835,469.56-820,467-805a176.47,176.47,0,0,0-.87,53.36c2.1,15.52,6.31,31,13.64,44.87,5.64,10.7,13.53,21.11,24.3,27.05,1.14.62,2.31,1.19,3.5,1.7a2.59,2.59,0,0,0,3.42-.9,2.51,2.51,0,0,0-.89-3.42c-10.42-4.42-18-13.25-23.75-22.9-7.49-12.66-11.91-27-14.43-41.43A170.29,170.29,0,0,1,471-798c1.95-14.85,5.93-29.74,12.85-43.08,5.34-10.28,12.66-20.19,22.76-25.76,1.1-.61,2.23-1.16,3.39-1.66a2.52,2.52,0,0,0,.9-3.42,2.57,2.57,0,0,0-3.42-.9Z" transform="translate(1267.96 1059.99)"/>
  </g>
  <g id="orbit-31" data-name="orbit">
    <path class="cls-1" d="M540.18-891.11c-12.39,5.76-21.38,17.37-27.79,29.09-8.67,15.82-13.73,33.57-16.54,51.32a225,225,0,0,0-1,63.06c2.31,18.44,6.83,36.8,15,53.59,6.06,12.49,14.57,24.95,26.73,32.2a41.83,41.83,0,0,0,3.81,2,2.57,2.57,0,0,0,3.42-.9,2.52,2.52,0,0,0-.89-3.42,44.55,44.55,0,0,1-14.1-10.39,80.11,80.11,0,0,1-12.08-17c-8.39-15.32-13.2-32.52-15.95-49.7a220.39,220.39,0,0,1-1-61.29c2.14-17.64,6.47-35.41,14.19-51.48,5.76-12,13.76-24,25.08-30.78,1.21-.72,2.45-1.37,3.72-2a2.52,2.52,0,0,0,.89-3.42,2.56,2.56,0,0,0-3.42-.89Z" transform="translate(1267.96 1059.99)"/>
  </g>
  <g id="orbit-32" data-name="orbit">
    <path class="cls-1" d="M563.14-906.22c-11.93,9.92-20.49,23.6-26.84,37.61-8.06,17.74-13,36.8-15.7,56.06a266.43,266.43,0,0,0-1,66.29c2.19,19.74,6.52,39.38,14,57.8,6,14.77,14.12,29.25,25.73,40.39,1.21,1.17,2.47,2.29,3.76,3.36a2.56,2.56,0,0,0,3.54,0,2.51,2.51,0,0,0,0-3.53c-11.61-9.66-19.79-22.8-26-36.43-7.88-17.3-12.58-36.05-15.24-54.82a261.19,261.19,0,0,1-.89-64.74,211.47,211.47,0,0,1,13.7-56.39c5.76-14.22,13.61-28.15,24.76-38.8q1.77-1.7,3.66-3.26a2.53,2.53,0,0,0,0-3.54,2.55,2.55,0,0,0-3.54,0Z" transform="translate(1267.96 1059.99)"/>
  </g>
  <g id="orbit-33" data-name="orbit">
    <path class="cls-1" d="M593.81-930.95C579-919.3,568.18-903.06,560.1-886.24c-10.1,21.06-16.34,43.87-19.75,66.93a300.29,300.29,0,0,0-1.21,78.61c2.76,23.65,8.31,47,17.72,69,7.58,17.68,17.9,34.87,32.26,47.89q2.28,2.07,4.69,4a2.59,2.59,0,0,0,3.54,0,2.52,2.52,0,0,0,0-3.54c-14.45-11.37-24.93-27.07-32.84-43.5-9.88-20.54-15.89-42.92-19.26-65.42a295.27,295.27,0,0,1-1.17-77.27c2.65-23,8.07-46,17.27-67.36,7.41-17.16,17.35-33.82,31.3-46.48q2.28-2.06,4.7-4a2.52,2.52,0,0,0,0-3.54,2.58,2.58,0,0,0-3.54,0Z" transform="translate(1267.96 1059.99)"/>
  </g>
  <g id="orbit-34" data-name="orbit">
    <path class="cls-1" d="M618-952.51c-16.29,13.44-28,32-36.71,51-11,24-17.69,49.77-21.39,75.81a358.45,358.45,0,0,0-1.37,90c3,26.79,8.94,53.46,19.24,78.43,8.24,20,19.28,39.55,35.08,54.57q2.49,2.37,5.15,4.56c2.47,2,6-1.48,3.54-3.53-15.94-13.15-27.29-31.16-35.83-49.77-10.83-23.61-17.34-49.19-21-74.84a353.5,353.5,0,0,1-1.26-88.05c2.89-26.29,8.82-52.48,18.84-77,7.94-19.43,18.76-38.49,34.09-53.07q2.49-2.37,5.15-4.56c2.48-2-1.07-5.57-3.54-3.54Z" transform="translate(1267.96 1059.99)"/>
  </g>
  <g id="orbit-35" data-name="orbit">
    <path class="cls-1" d="M618-950.37c-12.82,14.29-20.9,32.54-27,50.54-8.27,24.25-13,49.67-15.69,75.11a473,473,0,0,0-1,88.56c2.15,26.28,6.41,52.57,14.11,77.82,5.81,19.06,13.56,38.27,25.91,54.09Q616-602,618-599.81c2.16,2.4,5.68-1.14,3.54-3.53-12.39-13.81-20.12-31.64-26-49-8.07-23.9-12.76-48.94-15.37-74a473,473,0,0,1-1-87c2.08-25.79,6.27-51.57,13.76-76.38,5.57-18.44,12.95-37.25,24.85-52.61q1.77-2.28,3.71-4.44c2.14-2.39-1.38-5.93-3.54-3.53Z" transform="translate(1267.96 1059.99)"/>
  </g>
  <g id="orbit-36" data-name="orbit">
    <path class="cls-1" d="M-129.08-495.22c-34.55-.12-62.32-25.07-81.11-51.86-27.23-38.85-42.06-85.95-50.55-132.21a537.57,537.57,0,0,1-3.11-172.48c6.91-48.17,20.27-97.07,45.65-139,17.41-28.75,43.3-57.79,78.21-63.34a70,70,0,0,1,10.91-.83c3.22,0,3.22-5,0-5-35.6.12-64.34,25-84.08,52.45-28.17,39.22-43.51,87.37-52.23,134.4a544.79,544.79,0,0,0-3.28,176c7.07,49.22,20.91,99.34,47.25,141.95,18,29.19,44.95,58.51,80.6,63.93a78.19,78.19,0,0,0,11.74.93c3.22,0,3.22-5,0-5Z" transform="translate(1267.96 1059.99)"/>
  </g>
  <g id="orbit-37" data-name="orbit">
    <path class="cls-1" d="M-215.65-494.54c-24.23-22.25-41.2-51.64-54-81.65-16.31-38.37-26.14-79.53-31.54-120.79A606,606,0,0,1-303-837.51c4.35-42.17,13.2-84.2,28.32-123.88,12-31.43,28.18-62.49,51.61-87q3.62-3.78,7.46-7.3c2.38-2.18-1.16-5.71-3.53-3.54-24.57,22.53-41.87,52.33-54.82,82.74-16.42,38.58-26.38,79.73-31.94,121.23A607.39,607.39,0,0,0-308-712.49c4.42,42.85,13.32,85.54,28.77,125.82,12.22,31.87,28.6,63.22,52.31,88.11q3.72,3.9,7.69,7.55c2.37,2.17,5.91-1.35,3.54-3.53Z" transform="translate(1267.96 1059.99)"/>
  </g>
  <g id="orbit-38" data-name="orbit">
    <path class="cls-1" d="M-275.73-494c-19-27.67-32.82-58.65-43.31-90.44-12.51-37.88-20.41-77.26-24.69-116.89a688.93,688.93,0,0,1-1.54-131.45c3.4-40.43,10.42-80.66,22-119.56,9.84-32.89,23-65.1,41.26-94.24,2-3.22,4.12-6.4,6.27-9.54,1.82-2.66-2.51-5.16-4.32-2.52-19.23,28-33.21,59.46-43.84,91.64-12.55,38-20.41,77.5-24.77,117.26a687.16,687.16,0,0,0-1.56,133.45c3.47,40.66,10.53,81.15,22.25,120.28,9.93,33.12,23.19,65.64,41.62,95q3,4.83,6.26,9.53c1.81,2.64,6.14.14,4.32-2.52Z" transform="translate(1267.96 1059.99)"/>
  </g>
  <g id="orbit-39" data-name="orbit">
    <path class="cls-1" d="M-333.64-494c-15.95-30.08-27.85-62.18-36.91-95a661.69,661.69,0,0,1-20.71-115.16,769.08,769.08,0,0,1-1.26-126.52A681.08,681.08,0,0,1-374-947.9c8.47-33.62,19.75-66.69,35.1-97.82q2.59-5.27,5.34-10.44c1.51-2.84-2.81-5.37-4.32-2.52-16.08,30.32-28.14,62.69-37.31,95.73A668.74,668.74,0,0,0-396.16-847a768.68,768.68,0,0,0-1.29,128.56,688.2,688.2,0,0,0,18.57,117.5c8.57,34,20.05,67.49,35.58,99q2.6,5.26,5.34,10.43c1.51,2.85,5.83.32,4.32-2.52Z" transform="translate(1267.96 1059.99)"/>
  </g>
  <g id="orbit-40" data-name="orbit">
    <path class="cls-1" d="M-393.34-494c-13.74-31.6-24.17-64.61-32.12-98.12a759.51,759.51,0,0,1-17.73-113.7,856.83,856.83,0,0,1-1.09-123.38,777.32,777.32,0,0,1,15.79-115.38,610.34,610.34,0,0,1,30.42-100.21q2.29-5.7,4.76-11.33c1.27-2.92-3-5.47-4.32-2.52a590.39,590.39,0,0,0-32.53,98.87,767.77,767.77,0,0,0-18,115,856.91,856.91,0,0,0-1.1,124.42,785.68,785.68,0,0,0,16,116.62,608.57,608.57,0,0,0,30.93,101.29q2.27,5.5,4.63,11c1.28,2.95,5.59.4,4.32-2.52Z" transform="translate(1267.96 1059.99)"/>
  </g>
  <g id="orbit-41" data-name="orbit">
    <path class="cls-1" d="M-456.65-493.44a712.52,712.52,0,0,1-28.1-100.05,866.81,866.81,0,0,1-15.53-113.8,957.56,957.56,0,0,1-.93-120.86,884.39,884.39,0,0,1,13.82-115.17,731.66,731.66,0,0,1,26.66-101.86q2-5.8,4.1-11.57c1.11-3-3.72-4.34-4.82-1.33a712.71,712.71,0,0,0-28.31,101,875.61,875.61,0,0,0-15.48,113.68,957.53,957.53,0,0,0-.94,121.92,893.87,893.87,0,0,0,13.78,115,733,733,0,0,0,26.83,102.8q2,5.81,4.1,11.58c1.09,3,5.93,1.7,4.82-1.33Z" transform="translate(1267.96 1059.99)"/>
  </g>
  <g id="orbit-42" data-name="orbit">
    <path class="cls-1" d="M-527.35-493.44a846,846,0,0,1-24.75-102,984.67,984.67,0,0,1-13.49-112.91,1072,1072,0,0,1-.8-119.18,1000.77,1000.77,0,0,1,12-114,861.31,861.31,0,0,1,23.33-103q1.8-6.13,3.71-12.24c1-3.08-3.86-4.4-4.82-1.33A846.23,846.23,0,0,0-557-955.62a999.71,999.71,0,0,0-13.56,113.25,1071.9,1071.9,0,0,0-.83,119.71,1010.75,1010.75,0,0,0,12,114.36,865.8,865.8,0,0,0,23.48,103.95q1.8,6.14,3.71,12.24c1,3.06,5.78,1.75,4.82-1.33Z" transform="translate(1267.96 1059.99)"/>
  </g>
  <g id="orbit-43" data-name="orbit">
    <path class="cls-1" d="M-604.69-493.44a950.54,950.54,0,0,1-22.63-103,1079.9,1079.9,0,0,1-12.26-112.61,1161.77,1161.77,0,0,1-.73-117.59,1092.3,1092.3,0,0,1,10.89-113.63A964.05,964.05,0,0,1-608-1044.57c1.07-4.07,2.19-8.13,3.32-12.18.87-3.11-4-4.43-4.82-1.33a947.87,947.87,0,0,0-22.72,103.51,1092.28,1092.28,0,0,0-12.34,113A1162.5,1162.5,0,0,0-645.29-723a1110.66,1110.66,0,0,0,10.89,113.4,965.17,965.17,0,0,0,21.57,105.27q1.62,6.09,3.32,12.18c.87,3.09,5.7,1.78,4.82-1.33Z" transform="translate(1267.96 1059.99)"/>
  </g>
  <g id="orbit-44" data-name="orbit">
    <path class="cls-1" d="M-693.64-493.44Q-706-545-713.44-597.6q-7.93-55.77-10.66-112.13Q-727-768-724.72-826.41q2.22-56.48,9.44-112.6,6.87-52.93,18.69-105.08,1.44-6.35,3-12.66c.75-3.13-4.07-4.47-4.82-1.33Q-711-1006-718.4-952.89q-7.87,55.68-10.67,111.93-2.94,58.56-.65,117.22,2.22,57,9.56,113.6c4.63,35.38,10.79,70.57,18.73,105.36,1,4.23,2,8.45,3,12.67.75,3.12,5.58,1.8,4.82-1.33Z" transform="translate(1267.96 1059.99)"/>
  </g>
  <g id="orbit-45" data-name="orbit">
    <path class="cls-1" d="M-783.78-493.44q-10.86-52.34-17.35-105.45-6.82-55.47-9.22-111.36-2.52-57.71-.55-115.49,1.92-56.16,8.18-112.07,6-53.46,16.4-106.32,1.25-6.31,2.56-12.62c.65-3.14-4.17-4.49-4.83-1.33q-10.89,52.48-17.41,105.76-6.9,55.73-9.32,111.88-2.58,58.25-.56,116.58,1.93,56.4,8.28,112.54,6.09,53.58,16.44,106.58,1.24,6.32,2.56,12.63c.65,3.14,5.48,1.81,4.82-1.33Z" transform="translate(1267.96 1059.99)"/>
  </g>
  <g id="orbit-46" data-name="orbit">
    <path class="cls-1" d="M-885.63-493.44q-9.87-52.57-15.8-105.78-6.23-55.56-8.4-111.46-2.28-57.26-.51-114.59,1.74-56.16,7.46-112.09,5.5-53.53,14.9-106.55,1.15-6.43,2.36-12.84c.59-3.15-4.23-4.5-4.82-1.33q-9.9,52.72-15.87,106.08-6.29,55.82-8.5,112-2.33,57.81-.51,115.69,1.77,56.4,7.54,112.57,5.55,53.64,15,106.81,1.15,6.42,2.35,12.84c.6,3.15,5.42,1.82,4.83-1.33Z" transform="translate(1267.96 1059.99)"/>
  </g>
  <g id="orbit-47" data-name="orbit">
    <path class="cls-1" d="M-993-493.44q-9-53-14.34-106.6-5.59-55.37-7.57-111-2.05-57.12-.44-114.3,1.58-55.62,6.68-111,5-53.85,13.53-107.28,1-6.52,2.15-13c.53-3.15-4.29-4.5-4.82-1.33q-9,52.92-14.37,106.36-5.7,55.9-7.71,112.1-2.08,57.39-.46,114.85,1.59,56.4,6.83,112.62,5,53.68,13.54,107,1.05,6.53,2.16,13.05c.53,3.16,5.35,1.82,4.82-1.33Z" transform="translate(1267.96 1059.99)"/>
  </g>
  <g id="orbit-48" data-name="orbit">
    <path class="cls-1" d="M-1114.5-493.44q-8.07-53.2-12.93-106.82-5.07-55.47-6.84-111.18-1.85-56.74-.4-113.52,1.41-55.63,6-111.13,4.52-53.88,12.18-107.42,1-6.63,2-13.24c.47-3.15-4.34-4.51-4.82-1.33q-8.1,53.34-13,107.11-5.12,55.74-6.93,111.71-1.87,57.28-.4,114.63,1.44,55.88,6.11,111.62,4.54,54,12.26,107.65,1,6.63,2,13.25c.48,3.17,5.3,1.82,4.82-1.33Z" transform="translate(1267.96 1059.99)"/>
  </g>
  <g id="orbit-49" data-name="orbit">
    <path class="cls-1" d="M-1243.93-493.44q-7.41-53.56-11.87-107.47-4.58-55-6.21-110.27-1.7-56.7-.38-113.42,1.29-55.7,5.53-111.27,4.13-53.94,11.15-107.61.87-6.64,1.79-13.27c.43-3.15-4.38-4.51-4.82-1.33q-7.4,53.43-11.92,107.21Q-1265.35-895-1267-839q-1.71,57-.37,114,1.32,55.95,5.6,111.76,4.17,54.18,11.26,108.07.87,6.53,1.77,13.05c.44,3.17,5.26,1.82,4.82-1.33Z" transform="translate(1267.96 1059.99)"/>
  </g>
</svg>
